  0
SECTION
  2
HEADER
  9
$ACADVER
  1
AC1015
  9
$ACADMAINTVER
 70
     6
  9
$DWGCODEPAGE
  3
ANSI_1252
  9
$INSBASE
 10
0.0
 20
0.0
 30
0.0
  9
$EXTMIN
 10
0.0
 20
0.0
 30
0.0
  9
$EXTMAX
 10
279.4
 20
215.9
 30
0.0
  9
$LIMMIN
 10
0.0
 20
0.0
  9
$LIMMAX
 10
279.4
 20
215.9
  9
$ORTHOMODE
 70
     0
  9
$REGENMODE
 70
     1
  9
$FILLMODE
 70
     1
  9
$QTEXTMODE
 70
     0
  9
$MIRRTEXT
 70
     1
  9
$LTSCALE
 40
1.0
  9
$ATTMODE
 70
     1
  9
$TEXTSIZE
 40
3.5
  9
$TRACEWID
 40
1.0
  9
$TEXTSTYLE
  7
Standard
  9
$CLAYER
  8
0
  9
$CELTYPE
  6
ByLayer
  9
$CECOLOR
 62
   256
  9
$CELTSCALE
 40
1.0
  9
$DISPSILH
 70
     0
  9
$DIMSCALE
 40
1.0
  9
$DIMASZ
 40
3.302
  9
$DIMEXO
 40
1.0
  9
$DIMDLI
 40
3.75
  9
$DIMRND
 40
0.0
  9
$DIMDLE
 40
0.0
  9
$DIMEXE
 40
1.0
  9
$DIMTP
 40
0.0
  9
$DIMTM
 40
0.0
  9
$DIMTXT
 40
3.5
  9
$DIMCEN
 40
2.5
  9
$DIMTSZ
 40
0.0
  9
$DIMTOL
 70
     0
  9
$DIMLIM
 70
     0
  9
$DIMTIH
 70
     1
  9
$DIMTOH
 70
     1
  9
$DIMSE1
 70
     0
  9
$DIMSE2
 70
     0
  9
$DIMTAD
 70
     1
  9
$DIMZIN
 70
     0
  9
$DIMBLK
  1

  9
$DIMASO
 70
     1
  9
$DIMSHO
 70
     1
  9
$DIMPOST
  1

  9
$DIMAPOST
  1

  9
$DIMALT
 70
     0
  9
$DIMALTD
 70
     3
  9
$DIMALTF
 40
0.0393700787
  9
$DIMLFAC
 40
1.0
  9
$DIMTOFL
 70
     1
  9
$DIMTVP
 40
0.0
  9
$DIMTIX
 70
     0
  9
$DIMSOXD
 70
     0
  9
$DIMSAH
 70
     0
  9
$DIMBLK1
  1

  9
$DIMBLK2
  1

  9
$DIMSTYLE
  2
ISO-25
  9
$DIMCLRD
 70
     0
  9
$DIMCLRE
 70
     0
  9
$DIMCLRT
 70
     0
  9
$DIMTFAC
 40
1.0
  9
$DIMGAP
 40
1.524
  9
$DIMJUST
 70
     0
  9
$DIMSD1
 70
     0
  9
$DIMSD2
 70
     0
  9
$DIMTOLJ
 70
     0
  9
$DIMTZIN
 70
     0
  9
$DIMALTZ
 70
     0
  9
$DIMALTTZ
 70
     0
  9
$DIMUPT
 70
     0
  9
$DIMDEC
 70
     2
  9
$DIMTDEC
 70
     2
  9
$DIMALTU
 70
     2
  9
$DIMALTTD
 70
     3
  9
$DIMTXSTY
  7
Standard
  9
$DIMAUNIT
 70
     0
  9
$DIMADEC
 70
     2
  9
$DIMALTRND
 40
0.0
  9
$DIMAZIN
 70
     0
  9
$DIMDSEP
 70
    44
  9
$DIMATFIT
 70
     3
  9
$DIMFRAC
 70
     0
  9
$DIMLDRBLK
  1

  9
$DIMLUNIT
 70
     2
  9
$DIMLWD
 70
    -2
  9
$DIMLWE
 70
    -2
  9
$DIMTMOVE
 70
     0
  9
$LUNITS
 70
     2
  9
$LUPREC
 70
     2
  9
$SKETCHINC
 40
1.0
  9
$FILLETRAD
 40
10.0
  9
$AUNITS
 70
     0
  9
$AUPREC
 70
     2
  9
$MENU
  1
.
  9
$ELEVATION
 40
0.0
  9
$PELEVATION
 40
0.0
  9
$THICKNESS
 40
0.0
  9
$LIMCHECK
 70
     0
  9
$CHAMFERA
 40
0.0
  9
$CHAMFERB
 40
0.0
  9
$CHAMFERC
 40
0.0
  9
$CHAMFERD
 40
0.0
  9
$SKPOLY
 70
     0
  9
$TDCREATE
 40
2458319.46650331
  9
$TDUCREATE
 40
2458319.633169977
  9
$TDUPDATE
 40
2458319.466503854
  9
$TDUUPDATE
 40
2458319.633170521
  9
$TDINDWG
 40
0.0000000116
  9
$TDUSRTIMER
 40
0.0000000116
  9
$USRTIMER
 70
     1
  9
$ANGBASE
 50
0.0
  9
$ANGDIR
 70
     0
  9
$PDMODE
 70
     0
  9
$PDSIZE
 40
-1.0
  9
$PLINEWID
 40
0.0
  9
$SPLFRAME
 70
     0
  9
$SPLINETYPE
 70
     6
  9
$SPLINESEGS
 70
     8
  9
$HANDSEED
  5
154
  9
$SURFTAB1
 70
     6
  9
$SURFTAB2
 70
     6
  9
$SURFTYPE
 70
     6
  9
$SURFU
 70
     6
  9
$SURFV
 70
     6
  9
$UCSBASE
  2

  9
$UCSNAME
  2

  9
$UCSORG
 10
0.0
 20
0.0
 30
0.0
  9
$UCSXDIR
 10
1.0
 20
0.0
 30
0.0
  9
$UCSYDIR
 10
0.0
 20
1.0
 30
0.0
  9
$UCSORTHOREF
  2

  9
$UCSORTHOVIEW
 70
     0
  9
$UCSORGTOP
 10
0.0
 20
0.0
 30
0.0
  9
$UCSORGBOTTOM
 10
0.0
 20
0.0
 30
0.0
  9
$UCSORGLEFT
 10
0.0
 20
0.0
 30
0.0
  9
$UCSORGRIGHT
 10
0.0
 20
0.0
 30
0.0
  9
$UCSORGFRONT
 10
0.0
 20
0.0
 30
0.0
  9
$UCSORGBACK
 10
0.0
 20
0.0
 30
0.0
  9
$PUCSBASE
  2

  9
$PUCSNAME
  2

  9
$PUCSORG
 10
0.0
 20
0.0
 30
0.0
  9
$PUCSXDIR
 10
1.0
 20
0.0
 30
0.0
  9
$PUCSYDIR
 10
0.0
 20
1.0
 30
0.0
  9
$PUCSORTHOREF
  2

  9
$PUCSORTHOVIEW
 70
     0
  9
$PUCSORGTOP
 10
0.0
 20
0.0
 30
0.0
  9
$PUCSORGBOTTOM
 10
0.0
 20
0.0
 30
0.0
  9
$PUCSORGLEFT
 10
0.0
 20
0.0
 30
0.0
  9
$PUCSORGRIGHT
 10
0.0
 20
0.0
 30
0.0
  9
$PUCSORGFRONT
 10
0.0
 20
0.0
 30
0.0
  9
$PUCSORGBACK
 10
0.0
 20
0.0
 30
0.0
  9
$USERI1
 70
     0
  9
$USERI2
 70
     0
  9
$USERI3
 70
     0
  9
$USERI4
 70
     0
  9
$USERI5
 70
     0
  9
$USERR1
 40
0.0
  9
$USERR2
 40
0.0
  9
$USERR3
 40
0.0
  9
$USERR4
 40
0.0
  9
$USERR5
 40
0.0
  9
$WORLDVIEW
 70
     1
  9
$SHADEDGE
 70
     3
  9
$SHADEDIF
 70
    70
  9
$TILEMODE
 70
     1
  9
$MAXACTVP
 70
    64
  9
$PINSBASE
 10
0.0
 20
0.0
 30
0.0
  9
$PLIMCHECK
 70
     0
  9
$PEXTMIN
 10
1.0000000000E+20
 20
1.0000000000E+20
 30
1.0000000000E+20
  9
$PEXTMAX
 10
-1.0000000000E+20
 20
-1.0000000000E+20
 30
-1.0000000000E+20
  9
$PLIMMIN
 10
0.0
 20
0.0
  9
$PLIMMAX
 10
420.0
 20
297.0
  9
$UNITMODE
 70
     0
  9
$VISRETAIN
 70
     1
  9
$PLINEGEN
 70
     0
  9
$PSLTSCALE
 70
     1
  9
$TREEDEPTH
 70
  3020
  9
$CMLSTYLE
  2
Standard
  9
$CMLJUST
 70
     0
  9
$CMLSCALE
 40
20.0
  9
$PROXYGRAPHICS
 70
     1
  9
$MEASUREMENT
 70
     1
  9
$CELWEIGHT
370
    -1
  9
$ENDCAPS
280
     0
  9
$JOINSTYLE
280
     0
  9
$LWDISPLAY
290
     1
  9
$INSUNITS
 70
     4
  9
$HYPERLINKBASE
  1

  9
$STYLESHEET
  1

  9
$XEDIT
290
     1
  9
$CEPSNTYPE
380
     0
  9
$PSTYLEMODE
290
     1
  9
$FINGERPRINTGUID
  2
{22654BD2-8794-4B8D-AB14-F4CE89BBE266}
  9
$VERSIONGUID
  2
{FAEB1C32-E019-11D5-929B-00C0DF256EC4}
  9
$EXTNAMES
290
     1
  9
$PSVPSCALE
 40
0.0
  9
$OLESTARTUP
290
     0
  0
ENDSEC
  0
SECTION
  2
CLASSES
  0
CLASS
  1
ACDBDICTIONARYWDFLT
  2
AcDbDictionaryWithDefault
  3
ObjectDBX Classes
 90
        0
280
     0
281
     0
  0
CLASS
  1
VISUALSTYLE
  2
AcDbVisualStyle
  3
ObjectDBX Classes
 90
     4095
280
     0
281
     0
  0
CLASS
  1
MATERIAL
  2
AcDbMaterial
  3
ObjectDBX Classes
 90
     1153
280
     0
281
     0
  0
CLASS
  1
SCALE
  2
AcDbScale
  3
ObjectDBX Classes
 90
     1153
280
     0
281
     0
  0
CLASS
  1
SUN
  2
AcDbSun
  3
SCENEOE
 90
     1153
280
     0
281
     0
  0
CLASS
  1
ACDBPLACEHOLDER
  2
AcDbPlaceHolder
  3
ObjectDBX Classes
 90
        0
280
     0
281
     0
  0
CLASS
  1
LAYOUT
  2
AcDbLayout
  3
ObjectDBX Classes
 90
        0
280
     0
281
     0
  0
ENDSEC
  0
SECTION
  2
TABLES
  0
TABLE
  2
VPORT
  5
8
330
0
100
AcDbSymbolTable
 70
     1
  0
VPORT
  5
29
330
8
100
AcDbSymbolTableRecord
100
AcDbViewportTableRecord
  2
*Active
 70
     0
 10
0.0
 20
0.0
 11
1.0
 21
1.0
 12
139.7
 22
107.95
 13
0.0
 23
0.0
 14
10.0
 24
10.0
 15
10.0
 25
10.0
 16
0.0
 26
0.0
 36
1.0
 17
0.0
 27
0.0
 37
0.0
 40
215.9
 41
1.2941176471
 42
50.0
 43
0.0
 44
0.0
 50
0.0
 51
0.0
 71
     0
 72
  2000
 73
     1
 74
     3
 75
     0
 76
     0
 77
     0
 78
     0
281
     0
 65
     1
110
0.0
120
0.0
130
0.0
111
1.0
121
0.0
131
0.0
112
0.0
122
1.0
132
0.0
 79
     0
146
0.0
  0
ENDTAB
  0
TABLE
  2
LTYPE
  5
5
330
0
100
AcDbSymbolTable
 70
     6
  0
LTYPE
  5
14
330
5
100
AcDbSymbolTableRecord
100
AcDbLinetypeTableRecord
  2
ByBlock
 70
     0
  3

 72
    65
 73
     0
 40
0.0
  0
LTYPE
  5
15
330
5
100
AcDbSymbolTableRecord
100
AcDbLinetypeTableRecord
  2
ByLayer
 70
     0
  3

 72
    65
 73
     0
 40
0.0
  0
LTYPE
  5
16
330
5
100
AcDbSymbolTableRecord
100
AcDbLinetypeTableRecord
  2
Continuous
 70
     0
  3
Solid line
 72
    65
 73
     0
 40
0.0
  0
LTYPE
  5
6A
330
5
100
AcDbSymbolTableRecord
100
AcDbLinetypeTableRecord
  2
HIDDEN
 70
     0
  3
Hidden __ __ __ __ __ __ __ __ __ __ __ __ __ __
 72
    65
 73
     2
 40
1.905
 49
1.27
 74
     0
 49
-0.635
 74
     0
  0
LTYPE
  5
6B
330
5
100
AcDbSymbolTableRecord
100
AcDbLinetypeTableRecord
  2
PHANTOM
 70
     0
  3
Phantom ______  __  __  ______  __  __  ______
 72
    65
 73
     6
 40
12.7
 49
6.35
 74
     0
 49
-1.27
 74
     0
 49
1.27
 74
     0
 49
-1.27
 74
     0
 49
1.27
 74
     0
 49
-1.27
 74
     0
  0
LTYPE
  5
6C
330
5
100
AcDbSymbolTableRecord
100
AcDbLinetypeTableRecord
  2
CENTER
 70
     0
  3
Center ____ _ ____ _ ____ _ ____ _ ____ _ ____
 72
    65
 73
     4
 40
10.16
 49
6.35
 74
     0
 49
-1.27
 74
     0
 49
1.27
 74
     0
 49
-1.27
 74
     0
  0
LTYPE
  5
6D
330
5
100
AcDbSymbolTableRecord
100
AcDbLinetypeTableRecord
  2
CENTERX2
 70
     0
  3
Center (2x) ________  __  ________  __  _____
 72
    65
 73
     4
 40
20.32
 49
12.7
 74
     0
 49
-2.54
 74
     0
 49
2.54
 74
     0
 49
-2.54
 74
     0
  0
LTYPE
  5
6E
330
5
100
AcDbSymbolTableRecord
100
AcDbLinetypeTableRecord
  2
DOT2
 70
     0
  3
Dot (.5x) ........................................
 72
    65
 73
     2
 40
0.635
 49
0.0
 74
     0
 49
-0.635
 74
     0
  0
ENDTAB
  0
TABLE
  2
LAYER
  5
2
330
0
100
AcDbSymbolTable
 70
     2
  0
LAYER
  5
10
330
2
100
AcDbSymbolTableRecord
100
AcDbLayerTableRecord
  2
0
 70
     0
 62
     7
  6
Continuous
370
    -3
390
F
  0
LAYER
  5
6F
330
2
100
AcDbSymbolTableRecord
100
AcDbLayerTableRecord
  2
FORMAT
 70
     0
 62
     7
  6
Continuous
370
    -3
390
F
  0
ENDTAB
  0
TABLE
  2
STYLE
  5
3
330
0
100
AcDbSymbolTable
 70
     1
  0
STYLE
  5
11
330
3
100
AcDbSymbolTableRecord
100
AcDbTextStyleTableRecord
  2
Standard
 70
     0
 40
0.0
 41
1.0
 50
0.0
 71
     0
 42
3.5
  3
txt
  4

  0
ENDTAB
  0
TABLE
  2
VIEW
  5
6
330
0
100
AcDbSymbolTable
 70
     0
  0
ENDTAB
  0
TABLE
  2
UCS
  5
7
330
0
100
AcDbSymbolTable
 70
     0
  0
ENDTAB
  0
TABLE
  2
APPID
  5
9
330
0
100
AcDbSymbolTable
 70
     1
  0
APPID
  5
12
330
9
100
AcDbSymbolTableRecord
100
AcDbRegAppTableRecord
  2
ACAD
 70
     0
  0
ENDTAB
  0
TABLE
  2
DIMSTYLE
  5
A
330
0
100
AcDbSymbolTable
 70
     1
100
AcDbDimStyleTable
  0
DIMSTYLE
105
27
330
A
100
AcDbSymbolTableRecord
100
AcDbDimStyleTableRecord
  2
ISO-25
 70
     0
 41
2.5
 42
0.625
 43
3.75
 44
1.25
 73
     0
 74
     0
 77
     1
 78
     8
140
2.5
141
2.5
143
0.0393700787
147
0.625
171
     3
172
     1
178
     0
271
     2
272
     2
274
     3
278
    44
283
     0
284
     8
340
11
  0
ENDTAB
  0
TABLE
  2
BLOCK_RECORD
  5
1
330
0
100
AcDbSymbolTable
 70
     3
  0
BLOCK_RECORD
  5
1F
330
1
100
AcDbSymbolTableRecord
100
AcDbBlockTableRecord
  2
*Model_Space
340
22
  0
BLOCK_RECORD
  5
1B
330
1
100
AcDbSymbolTableRecord
100
AcDbBlockTableRecord
  2
*Paper_Space
340
1E
  0
BLOCK_RECORD
  5
23
330
1
100
AcDbSymbolTableRecord
100
AcDbBlockTableRecord
  2
*Paper_Space0
340
26
  0
BLOCK_RECORD
  5
A3
330
1
100
AcDbSymbolTableRecord
100
AcDbBlockTableRecord
  2
SW_CENTERMARKSYMBOL_0
340
0
102
{BLKREFS
331
AE
102
}
  0
BLOCK_RECORD
  5
BC
330
1
100
AcDbSymbolTableRecord
100
AcDbBlockTableRecord
  2
SW_CENTERMARKSYMBOL_1
340
0
102
{BLKREFS
331
C7
102
}
  0
ENDTAB
  0
ENDSEC
  0
SECTION
  2
BLOCKS
  0
BLOCK
  5
20
330
1F
100
AcDbEntity
  8
0
100
AcDbBlockBegin
  2
*Model_Space
 70
     0
 10
0.0
 20
0.0
 30
0.0
  3
*Model_Space
  1
*Model_Space
  0
ENDBLK
  5
21
330
1F
100
AcDbEntity
  8
0
100
AcDbBlockEnd
  0
BLOCK
  5
1C
330
1B
100
AcDbEntity
 67
     1
  8
0
100
AcDbBlockBegin
  2
*Paper_Space
 70
     0
 10
0.0
 20
0.0
 30
0.0
  3
*Paper_Space
  1
*Paper_Space
  0
ENDBLK
  5
1D
330
1B
100
AcDbEntity
 67
     1
  8
0
100
AcDbBlockEnd
  0
BLOCK
  5
24
330
23
100
AcDbEntity
  8
0
100
AcDbBlockBegin
  2
*Paper_Space0
 70
     0
 10
0.0
 20
0.0
 30
0.0
  3
*Paper_Space0
  1
*Paper_Space0
  0
ENDBLK
  5
25
330
23
100
AcDbEntity
  8
0
100
AcDbBlockEnd
  0
BLOCK
  5
A4
330
A3
100
AcDbEntity
  8
0
100
AcDbBlockBegin
  2
SW_CENTERMARKSYMBOL_0
 70
     0
 10
0.0
 20
0.0
 30
0.0
  3
SW_CENTERMARKSYMBOL_0
  1
SW_CENTERMARKSYMBOL_0
  0
LINE
  5
A6
330
A3
100
AcDbEntity
  8
0
  6
Continuous
 62
     0
370
     0
100
AcDbLine
 10
0.0
 20
0.0
 30
0.0
 11
0.0
 21
2.5
 31
0.0
  0
LINE
  5
A7
330
A3
100
AcDbEntity
  8
0
  6
Continuous
 62
     0
370
     0
100
AcDbLine
 10
0.0
 20
0.0
 30
0.0
 11
-2.5
 21
0.0
 31
0.0
  0
LINE
  5
A8
330
A3
100
AcDbEntity
  8
0
  6
Continuous
 62
     0
370
     0
100
AcDbLine
 10
0.0
 20
0.0
 30
0.0
 11
0.0
 21
-2.5
 31
0.0
  0
LINE
  5
A9
330
A3
100
AcDbEntity
  8
0
  6
Continuous
 62
     0
370
     0
100
AcDbLine
 10
0.0
 20
0.0
 30
0.0
 11
2.5
 21
0.0
 31
0.0
  0
LINE
  5
AA
330
A3
100
AcDbEntity
  8
0
  6
Continuous
 62
     0
370
     0
100
AcDbLine
 10
0.0
 20
5.0
 30
0.0
 11
0.0
 21
5.6
 31
0.0
  0
LINE
  5
AB
330
A3
100
AcDbEntity
  8
0
  6
Continuous
 62
     0
370
     0
100
AcDbLine
 10
-5.0
 20
0.0
 30
0.0
 11
-5.6
 21
0.0
 31
0.0
  0
LINE
  5
AC
330
A3
100
AcDbEntity
  8
0
  6
Continuous
 62
     0
370
     0
100
AcDbLine
 10
0.0
 20
-5.0
 30
0.0
 11
0.0
 21
-5.6
 31
0.0
  0
LINE
  5
AD
330
A3
100
AcDbEntity
  8
0
  6
Continuous
 62
     0
370
     0
100
AcDbLine
 10
5.0
 20
0.0
 30
0.0
 11
5.6
 21
0.0
 31
0.0
  0
ENDBLK
  5
A5
330
A3
100
AcDbEntity
  8
0
100
AcDbBlockEnd
  0
BLOCK
  5
BD
330
BC
100
AcDbEntity
  8
0
100
AcDbBlockBegin
  2
SW_CENTERMARKSYMBOL_1
 70
     0
 10
0.0
 20
0.0
 30
0.0
  3
SW_CENTERMARKSYMBOL_1
  1
SW_CENTERMARKSYMBOL_1
  0
LINE
  5
BF
330
BC
100
AcDbEntity
  8
0
  6
Continuous
 62
     0
370
     0
100
AcDbLine
 10
0.0
 20
0.0
 30
0.0
 11
0.0
 21
2.5
 31
0.0
  0
LINE
  5
C0
330
BC
100
AcDbEntity
  8
0
  6
Continuous
 62
     0
370
     0
100
AcDbLine
 10
0.0
 20
0.0
 30
0.0
 11
-2.5
 21
0.0
 31
0.0
  0
LINE
  5
C1
330
BC
100
AcDbEntity
  8
0
  6
Continuous
 62
     0
370
     0
100
AcDbLine
 10
0.0
 20
0.0
 30
0.0
 11
0.0
 21
-2.5
 31
0.0
  0
LINE
  5
C2
330
BC
100
AcDbEntity
  8
0
  6
Continuous
 62
     0
370
     0
100
AcDbLine
 10
0.0
 20
0.0
 30
0.0
 11
2.5
 21
0.0
 31
0.0
  0
LINE
  5
C3
330
BC
100
AcDbEntity
  8
0
  6
Continuous
 62
     0
370
     0
100
AcDbLine
 10
0.0
 20
5.0
 30
0.0
 11
0.0
 21
5.6
 31
0.0
  0
LINE
  5
C4
330
BC
100
AcDbEntity
  8
0
  6
Continuous
 62
     0
370
     0
100
AcDbLine
 10
-5.0
 20
0.0
 30
0.0
 11
-5.6
 21
0.0
 31
0.0
  0
LINE
  5
C5
330
BC
100
AcDbEntity
  8
0
  6
Continuous
 62
     0
370
     0
100
AcDbLine
 10
0.0
 20
-5.0
 30
0.0
 11
0.0
 21
-5.6
 31
0.0
  0
LINE
  5
C6
330
BC
100
AcDbEntity
  8
0
  6
Continuous
 62
     0
370
     0
100
AcDbLine
 10
5.0
 20
0.0
 30
0.0
 11
5.6
 21
0.0
 31
0.0
  0
ENDBLK
  5
BE
330
BC
100
AcDbEntity
  8
0
100
AcDbBlockEnd
  0
ENDSEC
  0
SECTION
  2
ENTITIES
  0
LINE
  5
70
330
1F
100
AcDbEntity
  8
0
  6
Continuous
 62
     7
370
    15
100
AcDbLine
 10
123.9958628842
 20
113.8149049328
 30
0.0
 11
132.4458628841
 21
108.9362951582
 31
0.0
  0
LINE
  5
71
330
1F
100
AcDbEntity
  8
0
  6
Continuous
 62
     7
370
    15
100
AcDbLine
 10
135.5458628841
 20
114.3056526616
 30
0.0
 11
127.0958628842
 21
119.1842624363
 31
0.0
  0
LINE
  5
72
330
1F
100
AcDbEntity
  8
0
  6
Continuous
 62
     7
370
    15
100
AcDbLine
 10
143.995862884
 20
119.1842624363
 30
0.0
 11
135.5458628841
 21
114.3056526616
 31
0.0
  0
LINE
  5
73
330
1F
100
AcDbEntity
  8
0
  6
Continuous
 62
     7
370
    15
100
AcDbLine
 10
138.6458628841
 20
108.9362951582
 30
0.0
 11
147.0958628841
 21
113.8149049328
 31
0.0
  0
LINE
  5
74
330
1F
100
AcDbEntity
  8
0
  6
Continuous
 62
     7
370
    15
100
AcDbLine
 10
122.8611841324
 20
126.4965890683
 30
0.0
 11
127.0766240453
 21
119.1952329628
 31
0.0
  0
LINE
  5
75
330
1F
100
AcDbEntity
  8
0
  6
Continuous
 62
     7
370
    15
100
AcDbLine
 10
135.5458628841
 20
116.9260809926
 30
0.0
 11
128.2305416358
 21
129.5965890683
 31
0.0
  0
LINE
  5
76
330
1F
100
AcDbEntity
  8
0
  6
Continuous
 62
     7
370
    15
100
AcDbLine
 10
142.8611841324
 20
129.5965890683
 30
0.0
 11
135.5458628841
 21
116.9260809926
 31
0.0
  0
LINE
  5
77
330
1F
100
AcDbEntity
  8
0
  6
Continuous
 62
     7
370
    15
100
AcDbLine
 10
144.0151017229
 20
119.1952329628
 30
0.0
 11
148.2305416358
 21
126.4965890683
 31
0.0
  0
LINE
  5
78
330
1F
100
AcDbEntity
  8
0
  6
Continuous
 62
     7
370
    15
100
AcDbLine
 10
115.5458628841
 20
107.6260809926
 30
0.0
 11
155.5458628841
 21
107.6260809926
 31
0.0
  0
LINE
  5
79
330
1F
100
AcDbEntity
  8
0
  6
Continuous
 62
     7
370
    15
100
AcDbLine
 10
123.97674271
 20
113.8260809926
 30
0.0
 11
115.5458628841
 21
113.8260809926
 31
0.0
  0
LINE
  5
7A
330
1F
100
AcDbEntity
  8
0
  6
Continuous
 62
     7
370
    15
100
AcDbLine
 10
155.5458628841
 20
113.8260809926
 30
0.0
 11
147.1149830582
 21
113.8260809926
 31
0.0
  0
LWPOLYLINE
  5
7B
330
1F
100
AcDbEntity
  8
0
  6
Continuous
 62
     7
370
    15
100
AcDbPolyline
 90
       60
 70
   128
 43
0.0
 10
128.1895517669
 20
116.4995836845
 10
128.124899269
 20
116.1841020645
 10
128.0310252582
 20
115.8721949772
 10
127.9089933648
 20
115.5673964547
 10
127.7601862587
 20
115.273159986
 10
127.586289984
 20
114.9928193878
 10
127.389274855
 20
114.7295510313
 10
127.1713731317
 20
114.4863378519
 10
126.9350537278
 20
114.2659355523
 10
126.6829942366
 20
114.0708413785
 10
126.4180505928
 20
113.9032658255
 10
126.1432247137
 20
113.7651075913
 10
125.8616304864
 20
113.6579320639
 10
125.5764584859
 20
113.5829535849
 10
125.2909398251
 20
113.5410216902
 10
125.0083095444
 20
113.5326114852
 10
124.7317699579
 20
113.5578182607
 10
124.4644543695
 20
113.6163564139
 10
124.2093915716
 20
113.7075626842
 10
123.9694715278
 20
113.8304036681
 10
123.7474126279
 20
113.9834875281
 10
123.5457308881
 20
114.1650797629
 10
123.366711443
 20
114.37312286
 10
123.2123826544
 20
114.6052596079
 10
123.0844931293
 20
114.8588598045
 10
122.984491907
 20
115.1310500583
 10
122.9135120414
 20
115.4187463449
 10
122.8723577626
 20
115.7186889505
 10
122.8614953651
 20
116.0274794054
 10
122.8810479243
 20
116.3416189904
 10
122.9307939017
 20
116.6575483786
 10
123.0101696556
 20
116.9716879636
 10
123.1182758271
 20
117.2804784186
 10
123.2538875299
 20
117.5804210241
 10
123.4154682293
 20
117.8681173107
 10
123.6011871514
 20
118.1403075645
 10
123.8089400266
 20
118.3939077612
 10
124.0363729318
 20
118.6260445091
 10
124.2809089613
 20
118.8340876062
 10
124.5397774243
 20
119.015679841
 10
124.8100452375
 20
119.168763701
 10
125.0886501586
 20
119.2916046848
 10
125.3724354826
 20
119.3828109551
 10
125.6581858084
 20
119.4413491083
 10
125.9426634706
 20
119.4665558839
 10
126.2226452236
 20
119.4581456788
 10
126.4949587622
 20
119.4162137842
 10
126.7565186653
 20
119.3412353051
 10
127.0043613547
 20
119.2340597777
 10
127.2356786736
 20
119.0959015435
 10
127.4478497043
 20
118.9283259905
 10
127.6384704644
 20
118.7332318168
 10
127.8053811445
 20
118.5128295171
 10
127.9466905798
 20
118.2696163378
 10
128.060797678
 20
118.0063479812
 10
128.1464095601
 20
117.726007383
 10
128.2025562092
 20
117.4317709143
 10
128.2286014613
 20
117.1269723918
 10
128.2242502135
 20
116.8150653046
 10
128.1895517669
 20
116.4995836845
  0
LINE
  5
7C
330
1F
100
AcDbEntity
  8
0
  6
Continuous
 62
     7
370
    15
100
AcDbLine
 10
135.5458628842
 20
107.8033729637
 30
0.0
 11
135.5458628842
 21
114.3056526616
 31
0.0
  0
ELLIPSE
  5
7D
330
1F
100
AcDbEntity
  8
0
  6
Continuous
 62
     7
370
    15
100
AcDbEllipse
 10
135.5458628841
 20
110.7260809926
 30
0.0
 11
5.318443401718299
 21
-1.425072614481053
 31
0.0
210
0.0
220
0.0
230
1.0
 40
0.5176380902
 41
4.234730671303055
 42
4.85021037998489
  0
ELLIPSE
  5
7E
330
1F
100
AcDbEntity
  8
0
  6
Continuous
 62
     7
370
    15
100
AcDbEllipse
 10
135.5458628841
 20
110.7260809926
 30
0.0
 11
5.318443401718297
 21
1.425072614481039
 31
0.0
210
0.0
220
0.0
230
1.0
 40
0.5176380902
 41
4.574567580776566
 42
5.190047289466346
  0
LWPOLYLINE
  5
7F
330
1F
100
AcDbEntity
  8
0
  6
Continuous
 62
     7
370
    15
100
AcDbPolyline
 90
       60
 70
   128
 43
0.0
 10
142.9021740013
 20
116.4995836845
 10
142.9668264993
 20
116.1841020645
 10
143.06070051
 20
115.8721949772
 10
143.1827324034
 20
115.5673964547
 10
143.3315395095
 20
115.273159986
 10
143.5054357842
 20
114.9928193878
 10
143.7024509132
 20
114.7295510313
 10
143.9203526365
 20
114.4863378519
 10
144.1566720404
 20
114.2659355523
 10
144.4087315316
 20
114.0708413785
 10
144.6736751754
 20
113.9032658255
 10
144.9485010545
 20
113.7651075913
 10
145.2300952818
 20
113.6579320639
 10
145.5152672823
 20
113.5829535849
 10
145.8007859431
 20
113.5410216902
 10
146.0834162238
 20
113.5326114852
 10
146.3599558103
 20
113.5578182607
 10
146.6272713987
 20
113.6163564139
 10
146.8823341966
 20
113.7075626842
 10
147.1222542404
 20
113.8304036681
 10
147.3443131403
 20
113.9834875281
 10
147.5459948801
 20
114.1650797629
 10
147.7250143252
 20
114.37312286
 10
147.8793431138
 20
114.6052596079
 10
148.0072326389
 20
114.8588598045
 10
148.1072338612
 20
115.1310500583
 10
148.1782137269
 20
115.4187463449
 10
148.2193680056
 20
115.7186889505
 10
148.2302304031
 20
116.0274794054
 10
148.210677844
 20
116.3416189904
 10
148.1609318665
 20
116.6575483786
 10
148.0815561126
 20
116.9716879636
 10
147.9734499411
 20
117.2804784186
 10
147.8378382383
 20
117.5804210241
 10
147.6762575389
 20
117.8681173107
 10
147.4905386168
 20
118.1403075645
 10
147.2827857416
 20
118.3939077612
 10
147.0553528364
 20
118.6260445091
 10
146.8108168069
 20
118.8340876062
 10
146.551948344
 20
119.015679841
 10
146.2816805307
 20
119.168763701
 10
146.0030756096
 20
119.2916046848
 10
145.7192902856
 20
119.3828109551
 10
145.4335399598
 20
119.4413491083
 10
145.1490622976
 20
119.4665558839
 10
144.8690805446
 20
119.4581456788
 10
144.596767006
 20
119.4162137842
 10
144.3352071029
 20
119.3412353051
 10
144.0873644135
 20
119.2340597777
 10
143.8560470947
 20
119.0959015435
 10
143.6438760639
 20
118.9283259905
 10
143.4532553038
 20
118.7332318168
 10
143.2863446237
 20
118.5128295171
 10
143.1450351884
 20
118.2696163378
 10
143.0309280902
 20
118.0063479812
 10
142.9453162081
 20
117.726007383
 10
142.889169559
 20
117.4317709143
 10
142.8631243069
 20
117.1269723918
 10
142.8674755547
 20
116.8150653046
 10
142.9021740013
 20
116.4995836845
  0
LWPOLYLINE
  5
80
330
1F
100
AcDbEntity
  8
0
  6
Continuous
 62
     7
370
    15
100
AcDbPolyline
 90
       43
 70
   128
 43
0.0
 10
124.1813782995
 20
116.4995836845
 10
124.1606681176
 20
116.2712683152
 10
124.1709008979
 20
116.0480531339
 10
124.211848057
 20
115.834924399
 10
124.2825949028
 20
115.6366430543
 10
124.3815610679
 20
115.4576383772
 10
124.5065358116
 20
115.3019090365
 10
124.6547274047
 20
115.1729337684
 10
124.8228254918
 20
115.0735936672
 10
125.0070750395
 20
115.0061078266
 10
125.2033602173
 20
114.9719837687
 10
125.4072963387
 20
114.9719837687
 10
125.6143278078
 20
115.0061078266
 10
125.8198298836
 20
115.0735936672
 10
126.0192119893
 20
115.1729337684
 10
126.2080202583
 20
115.3019090365
 10
126.3820370257
 20
115.4576383772
 10
126.5373750444
 20
115.6366430543
 10
126.67056432
 20
115.834924399
 10
126.778629624
 20
116.0480531339
 10
126.8591569561
 20
116.2712683152
 10
126.9103474688
 20
116.4995836845
 10
126.9310576506
 20
116.7278990539
 10
126.9208248703
 20
116.9511142352
 10
126.8798777113
 20
117.1642429701
 10
126.8091308655
 20
117.3625243148
 10
126.7101647004
 20
117.5415289919
 10
126.5851899567
 20
117.6972583326
 10
126.4369983636
 20
117.8262336007
 10
126.2689002765
 20
117.9255737019
 10
126.0846507288
 20
117.9930595425
 10
125.888365551
 20
118.0271836004
 10
125.6844294296
 20
118.0271836004
 10
125.4773979605
 20
117.9930595425
 10
125.2718958847
 20
117.9255737019
 10
125.0725137789
 20
117.8262336007
 10
124.88370551
 20
117.6972583326
 10
124.7096887426
 20
117.5415289919
 10
124.5543507238
 20
117.3625243148
 10
124.4211614483
 20
117.1642429701
 10
124.3130961443
 20
116.9511142352
 10
124.2325688122
 20
116.7278990539
 10
124.1813782995
 20
116.4995836845
  0
LWPOLYLINE
  5
81
330
1F
100
AcDbEntity
  8
0
  6
Continuous
 62
     7
370
    15
100
AcDbPolyline
 90
       43
 70
   128
 43
0.0
 10
144.1813782994
 20
116.4995836845
 10
144.1606681176
 20
116.7278990539
 10
144.1709008979
 20
116.9511142352
 10
144.2118480569
 20
117.1642429701
 10
144.2825949027
 20
117.3625243148
 10
144.3815610678
 20
117.5415289919
 10
144.5065358115
 20
117.6972583326
 10
144.6547274046
 20
117.8262336007
 10
144.8228254917
 20
117.9255737019
 10
145.0070750394
 20
117.9930595425
 10
145.2033602172
 20
118.0271836004
 10
145.4072963386
 20
118.0271836004
 10
145.6143278077
 20
117.9930595425
 10
145.8198298835
 20
117.9255737019
 10
146.0192119893
 20
117.8262336007
 10
146.2080202582
 20
117.6972583326
 10
146.3820370256
 20
117.5415289919
 10
146.5373750444
 20
117.3625243148
 10
146.6705643199
 20
117.1642429701
 10
146.7786296239
 20
116.9511142352
 10
146.859156956
 20
116.7278990539
 10
146.9103474687
 20
116.4995836845
 10
146.9310576506
 20
116.2712683152
 10
146.9208248703
 20
116.0480531339
 10
146.8798777112
 20
115.834924399
 10
146.8091308654
 20
115.6366430543
 10
146.7101647003
 20
115.4576383772
 10
146.5851899566
 20
115.3019090365
 10
146.4369983635
 20
115.1729337684
 10
146.2689002764
 20
115.0735936672
 10
146.0846507288
 20
115.0061078266
 10
145.8883655509
 20
114.9719837687
 10
145.6844294295
 20
114.9719837687
 10
145.4773979604
 20
115.0061078266
 10
145.2718958846
 20
115.0735936672
 10
145.0725137789
 20
115.1729337684
 10
144.8837055099
 20
115.3019090365
 10
144.7096887426
 20
115.4576383772
 10
144.5543507238
 20
115.6366430543
 10
144.4211614482
 20
115.834924399
 10
144.3130961442
 20
116.0480531339
 10
144.2325688121
 20
116.2712683152
 10
144.1813782994
 20
116.4995836845
  0
LINE
  5
82
330
1F
100
AcDbEntity
  8
0
  6
Continuous
 62
     7
370
    15
100
AcDbLine
 10
135.5458628841
 20
116.9260809926
 30
0.0
 11
135.5458628841
 21
114.3056526616
 31
0.0
  0
LINE
  5
83
330
1F
100
AcDbEntity
  8
0
  6
Continuous
 62
     7
370
    15
100
AcDbLine
 10
128.2305416358
 20
129.5965890683
 30
0.0
 11
122.8611841324
 21
126.4965890683
 31
0.0
  0
LINE
  5
84
330
1F
100
AcDbEntity
  8
0
  6
Continuous
 62
     7
370
    15
100
AcDbLine
 10
142.8611841324
 20
129.5965890683
 30
0.0
 11
148.2305416358
 21
126.4965890683
 31
0.0
  0
LINE
  5
85
330
1F
100
AcDbEntity
  8
0
  6
Continuous
 62
     7
370
    15
100
AcDbLine
 10
115.5458628841
 20
113.8260809926
 30
0.0
 11
115.5458628841
 21
107.6260809926
 31
0.0
  0
LINE
  5
86
330
1F
100
AcDbEntity
  8
0
  6
Continuous
 62
     7
370
    15
100
AcDbLine
 10
155.5458628841
 20
113.8260809926
 30
0.0
 11
155.5458628841
 21
107.6260809926
 31
0.0
  0
LINE
  5
87
330
1F
100
AcDbEntity
  8
0
  6
Continuous
 62
     7
370
    15
100
AcDbLine
 10
135.5458628841
 20
66.1441837312
 30
0.0
 11
155.5458628841
 21
66.1441837312
 31
0.0
  0
LINE
  5
88
330
1F
100
AcDbEntity
  8
0
  6
Continuous
 62
     7
370
    15
100
AcDbLine
 10
115.5458628841
 20
66.1441837312
 30
0.0
 11
135.5458628841
 21
66.1441837312
 31
0.0
  0
LINE
  5
89
330
1F
100
AcDbEntity
  8
0
  6
Continuous
 62
     7
370
    15
100
AcDbLine
 10
130.4835840824
 20
72.3441837312
 30
0.0
 11
115.5458628841
 21
72.3441837312
 31
0.0
  0
LINE
  5
8A
330
1F
100
AcDbEntity
  8
0
  6
Continuous
 62
     7
370
    15
100
AcDbLine
 10
155.5458628841
 20
72.3441837312
 30
0.0
 11
140.6081416858
 21
72.3441837312
 31
0.0
  0
LINE
  5
8B
330
1F
100
AcDbEntity
  8
0
  6
Continuous
 62
     7
370
    15
100
AcDbLine
 10
122.9021740013
 20
83.9551931494
 30
0.0
 11
130.0124361196
 21
72.3441837312
 31
0.0
  0
LINE
  5
8C
330
1F
100
AcDbEntity
  8
0
  6
Continuous
 62
     7
370
    15
100
AcDbLine
 10
135.5458628842
 20
75.1802317993
 30
0.0
 11
128.189551767
 21
87.1930375502
 31
0.0
  0
LINE
  5
8D
330
1F
100
AcDbEntity
  8
0
  6
Continuous
 62
     7
370
    15
100
AcDbLine
 10
142.9021740012
 20
87.1930375502
 30
0.0
 11
135.5458628842
 21
75.1802317995
 31
0.0
  0
LINE
  5
8E
330
1F
100
AcDbEntity
  8
0
  6
Continuous
 62
     7
370
    15
100
AcDbLine
 10
141.0792896486
 20
72.3441837312
 30
0.0
 11
148.1895517669
 21
83.9551931494
 31
0.0
  0
ELLIPSE
  5
8F
330
1F
100
AcDbEntity
  8
0
  6
Continuous
 62
     7
370
    15
100
AcDbEllipse
 10
135.5458628841
 20
69.2441837312
 30
0.0
 11
5.351124491799965
 21
2.997868523523948
 31
0.0
210
0.0
220
0.0
230
1.0
 40
0.1474768248
 41
0.2574029775623782
 42
1.48836239490068
  0
ELLIPSE
  5
90
330
1F
100
AcDbEntity
  8
0
  6
Continuous
 62
     7
370
    15
100
AcDbEllipse
 10
135.5458628841
 20
69.2441837312
 30
0.0
 11
5.351124491799965
 21
-2.997868523523948
 31
0.0
210
0.0
220
0.0
230
1.0
 40
0.1474768248
 41
1.653230258697054
 42
2.884189676027403
  0
LINE
  5
91
330
1F
100
AcDbEntity
  8
0
  6
Continuous
 62
     7
370
    15
100
AcDbLine
 10
115.5458628841
 20
72.3441837312
 30
0.0
 11
115.5458628841
 21
66.1441837312
 31
0.0
  0
LINE
  5
92
330
1F
100
AcDbEntity
  8
0
  6
Continuous
 62
     7
370
    15
100
AcDbLine
 10
155.5458628841
 20
72.3441837312
 30
0.0
 11
155.5458628841
 21
66.1441837312
 31
0.0
  0
LWPOLYLINE
  5
93
330
1F
100
AcDbEntity
  8
0
  6
Continuous
 62
     7
370
    15
100
AcDbPolyline
 90
       31
 70
   128
 43
0.0
 10
128.1895517669
 20
87.1930375501
 10
128.124899269
 20
87.2649857389
 10
128.0310252582
 20
87.3177756906
 10
127.9089933648
 20
87.3508092738
 10
127.7601862587
 20
87.363712205
 10
127.586289984
 20
87.3563382887
 10
127.389274855
 20
87.3287710744
 10
127.1713731317
 20
87.2813229096
 10
126.9350537278
 20
87.2145314009
 10
126.6829942366
 20
87.129153323
 10
126.4180505928
 20
87.0261560434
 10
126.1432247137
 20
86.9067065626
 10
125.8616304864
 20
86.7721582908
 10
125.5764584859
 20
86.6240357138
 10
125.2909398251
 20
86.4640171196
 10
125.0083095444
 20
86.2939155827
 10
124.7317699579
 20
86.1156584216
 10
124.4644543695
 20
85.931265361
 10
124.2093915716
 20
85.7428256482
 10
123.9694715278
 20
85.5524743802
 10
123.7474126279
 20
85.3623683131
 10
123.5457308881
 20
85.1746614245
 10
123.366711443
 20
84.9914805085
 10
123.2123826544
 20
84.814901078
 10
123.0844931293
 20
84.6469238487
 10
122.984491907
 20
84.4894520695
 10
122.9135120414
 20
84.3442699587
 10
122.8723577626
 20
84.2130224876
 10
122.8614953651
 20
84.0971967424
 10
122.8810479243
 20
83.9981050753
 10
122.9021740013
 20
83.9551931494
  0
LINE
  5
94
330
1F
100
AcDbEntity
  8
0
  6
Continuous
 62
     7
370
    15
100
AcDbLine
 10
135.5458628842
 20
70.2775170645
 30
0.0
 11
135.5458628842
 21
75.1802317993
 31
0.0
  0
LWPOLYLINE
  5
95
330
1F
100
AcDbEntity
  8
0
  6
Continuous
 62
     7
370
    15
100
AcDbPolyline
 90
       31
 70
   128
 43
0.0
 10
142.9021740013
 20
87.1930375501
 10
142.9668264993
 20
87.2649857389
 10
143.06070051
 20
87.3177756906
 10
143.1827324034
 20
87.3508092738
 10
143.3315395095
 20
87.363712205
 10
143.5054357842
 20
87.3563382887
 10
143.7024509132
 20
87.3287710744
 10
143.9203526365
 20
87.2813229096
 10
144.1566720404
 20
87.2145314009
 10
144.4087315316
 20
87.129153323
 10
144.6736751754
 20
87.0261560434
 10
144.9485010545
 20
86.9067065626
 10
145.2300952818
 20
86.7721582908
 10
145.5152672823
 20
86.6240357138
 10
145.8007859431
 20
86.4640171196
 10
146.0834162238
 20
86.2939155827
 10
146.3599558103
 20
86.1156584216
 10
146.6272713987
 20
85.931265361
 10
146.8823341966
 20
85.7428256482
 10
147.1222542404
 20
85.5524743802
 10
147.3443131403
 20
85.3623683131
 10
147.5459948801
 20
85.1746614245
 10
147.7250143252
 20
84.9914805085
 10
147.8793431138
 20
84.814901078
 10
148.0072326389
 20
84.6469238487
 10
148.1072338612
 20
84.4894520695
 10
148.1782137269
 20
84.3442699587
 10
148.2193680056
 20
84.2130224876
 10
148.2302304031
 20
84.0971967424
 10
148.210677844
 20
83.9981050753
 10
148.1895517669
 20
83.9551931494
  0
CIRCLE
  5
96
330
1F
100
AcDbEntity
  8
0
  6
Continuous
 62
     7
100
AcDbCircle
 10
79.0513698825
 20
110.7260809926
 30
0.0
 40
1.59999999999998
  0
CIRCLE
  5
97
330
1F
100
AcDbEntity
  8
0
  6
Continuous
 62
     7
100
AcDbCircle
 10
79.0513698825
 20
110.7260809926
 30
0.0
 40
3.099999999999993
  0
LINE
  5
98
330
1F
100
AcDbEntity
  8
0
  6
Continuous
 62
     7
370
    15
100
AcDbLine
 10
75.9513698825
 20
128.0465890683
 30
0.0
 11
75.9513698825
 21
110.7260809926
 31
0.0
  0
LINE
  5
99
330
1F
100
AcDbEntity
  8
0
  6
Continuous
 62
     7
370
    15
100
AcDbLine
 10
82.1513698825
 20
115.1101430359
 30
0.0
 11
82.1513698825
 21
128.0465890683
 31
0.0
  0
LINE
  5
9A
330
1F
100
AcDbEntity
  8
0
  6
Continuous
 62
     7
370
    15
100
AcDbLine
 10
94.3479681678
 20
119.4222917134
 30
0.0
 11
82.1513698825
 21
115.110143036
 31
0.0
  0
LINE
  5
9B
330
1F
100
AcDbEntity
  8
0
  6
Continuous
 62
     7
370
    15
100
AcDbLine
 10
80.084703216
 20
107.8033729638
 30
0.0
 11
96.4146348344
 21
113.5768756556
 31
0.0
  0
CIRCLE
  5
9C
330
1F
100
AcDbEntity
  8
0
  6
Continuous
 62
     7
370
    15
100
AcDbCircle
 10
79.0513698825
 20
110.7260809926
 30
0.0
 40
3.09999999999998
  0
CIRCLE
  5
9D
330
1F
100
AcDbEntity
  8
0
  6
Continuous
 62
     7
370
    15
100
AcDbCircle
 10
79.0513698825
 20
110.7260809926
 30
0.0
 40
1.59999999999998
  0
LINE
  5
9E
330
1F
100
AcDbEntity
  8
0
  6
Continuous
 62
     7
370
    15
100
AcDbLine
 10
80.8411557171
 20
113.2572203935
 30
0.0
 11
82.1513698825
 21
115.1101430359
 31
0.0
  0
LWPOLYLINE
  5
9F
330
1F
100
AcDbEntity
  8
0
  6
Continuous
 62
     7
370
    15
100
AcDbPolyline
 90
       60
 70
   128
 43
0.0
 10
79.0513698825
 20
129.5965890683
 10
79.380879688
 20
129.5878080086
 10
79.7066560158
 20
129.5615643225
 10
80.0250076898
 20
129.5181553614
 10
80.3323276584
 20
129.4580729662
 10
80.6251338636
 20
129.3819978945
 10
80.900108694
 20
129.2907921071
 10
81.154136575
 20
129.1854890021
 10
81.3843392691
 20
129.0672817059
 10
81.5881084879
 20
128.9375095541
 10
81.7631354446
 20
128.7976429173
 10
81.9074370139
 20
128.6492665403
 10
82.0193782015
 20
128.4940615867
 10
82.0976906688
 20
128.3337865906
 10
82.1414871043
 20
128.1702575319
 10
82.150271277
 20
128.0053272601
 10
82.1239436587
 20
127.840864501
 10
82.0628025517
 20
127.6787326835
 10
81.9675407092
 20
127.5207688258
 10
81.8392374861
 20
127.3687627216
 10
81.679346609
 20
127.2244366607
 10
81.4896797055
 20
127.0894259151
 10
81.2723857775
 20
126.9652602106
 10
81.0299268518
 20
126.853346394
 10
80.7650500852
 20
126.7549524937
 10
80.480756637
 20
126.671193352
 10
80.1802676658
 20
126.6030179933
 10
79.8669878316
 20
126.5511988716
 10
79.5444667202
 20
126.5163231185
 10
79.2163586246
 20
126.49878589
 10
78.8863811405
 20
126.49878589
 10
78.5582730449
 20
126.5163231185
 10
78.2357519334
 20
126.5511988716
 10
77.9224720993
 20
126.6030179933
 10
77.621983128
 20
126.671193352
 10
77.3376896799
 20
126.7549524937
 10
77.0728129132
 20
126.853346394
 10
76.8303539876
 20
126.9652602106
 10
76.6130600596
 20
127.0894259151
 10
76.4233931561
 20
127.2244366607
 10
76.263502279
 20
127.3687627216
 10
76.1351990559
 20
127.5207688258
 10
76.0399372134
 20
127.6787326835
 10
75.9787961064
 20
127.840864501
 10
75.9524684881
 20
128.0053272601
 10
75.9612526607
 20
128.1702575319
 10
76.0050490963
 20
128.3337865906
 10
76.0833615636
 20
128.4940615867
 10
76.1953027511
 20
128.6492665403
 10
76.3396043205
 20
128.7976429173
 10
76.5146312772
 20
128.9375095541
 10
76.718400496
 20
129.0672817059
 10
76.9486031901
 20
129.1854890021
 10
77.2026310711
 20
129.2907921071
 10
77.4776059015
 20
129.3819978945
 10
77.7704121067
 20
129.4580729662
 10
78.0777320753
 20
129.5181553614
 10
78.3960837493
 20
129.5615643225
 10
78.721860077
 20
129.5878080086
 10
79.0513698825
 20
129.5965890683
  0
LWPOLYLINE
  5
A0
330
1F
100
AcDbEntity
  8
0
  6
Continuous
 62
     7
370
    15
100
AcDbPolyline
 90
       43
 70
   128
 43
0.0
 10
79.0513698825
 20
128.8465890683
 10
79.2898375084
 20
128.8376537293
 10
79.5229781616
 20
128.8110473129
 10
79.7455838651
 20
128.7673641626
 10
79.9526819754
 20
128.7075800878
 10
80.139646263
 20
128.6330305658
 10
80.3023002545
 20
128.5453809098
 10
80.4370105286
 20
128.4465890683
 10
80.5407678804
 20
128.3388618878
 10
80.611254542
 20
128.2246058155
 10
80.646895958
 20
128.1063731432
 10
80.646895958
 20
127.9868049934
 10
80.611254542
 20
127.8685723211
 10
80.5407678804
 20
127.7543162488
 10
80.4370105286
 20
127.6465890683
 10
80.3023002545
 20
127.5477972268
 10
80.139646263
 20
127.4601475708
 10
79.9526819754
 20
127.3855980489
 10
79.7455838651
 20
127.325813974
 10
79.5229781616
 20
127.2821308237
 10
79.2898375084
 20
127.2555244073
 10
79.0513698825
 20
127.2465890683
 10
78.8129022567
 20
127.2555244073
 10
78.5797616035
 20
127.2821308237
 10
78.3571559
 20
127.325813974
 10
78.1500577896
 20
127.3855980489
 10
77.9630935021
 20
127.4601475708
 10
77.8004395106
 20
127.5477972268
 10
77.6657292365
 20
127.6465890683
 10
77.5619718847
 20
127.7543162488
 10
77.4914852231
 20
127.8685723211
 10
77.4558438071
 20
127.9868049934
 10
77.4558438071
 20
128.1063731432
 10
77.4914852231
 20
128.2246058155
 10
77.5619718847
 20
128.3388618878
 10
77.6657292365
 20
128.4465890683
 10
77.8004395106
 20
128.5453809098
 10
77.9630935021
 20
128.6330305658
 10
78.1500577896
 20
128.7075800878
 10
78.3571559
 20
128.7673641626
 10
78.5797616035
 20
128.8110473129
 10
78.8129022567
 20
128.8376537293
 10
79.0513698825
 20
128.8465890683
  0
LWPOLYLINE
  5
A1
330
1F
100
AcDbEntity
  8
0
  6
Continuous
 62
     7
370
    15
100
AcDbPolyline
 90
       60
 70
   128
 43
0.0
 10
97.0002237015
 20
116.4995836845
 10
97.0721718903
 20
116.1841020645
 10
97.1249618419
 20
115.8721949772
 10
97.1579954252
 20
115.5673964547
 10
97.1708983563
 20
115.273159986
 10
97.1635244401
 20
114.9928193878
 10
97.1359572257
 20
114.7295510313
 10
97.0885090609
 20
114.4863378519
 10
97.0217175523
 20
114.2659355523
 10
96.9363394743
 20
114.0708413785
 10
96.8333421947
 20
113.9032658255
 10
96.7138927139
 20
113.7651075913
 10
96.5793444421
 20
113.6579320639
 10
96.4312218652
 20
113.5829535849
 10
96.2712032709
 20
113.5410216902
 10
96.101101734
 20
113.5326114852
 10
95.9228445729
 20
113.5578182607
 10
95.7384515124
 20
113.6163564139
 10
95.5500117995
 20
113.7075626842
 10
95.3596605316
 20
113.8304036681
 10
95.1695544644
 20
113.9834875281
 10
94.9818475758
 20
114.1650797629
 10
94.7986666598
 20
114.37312286
 10
94.6220872294
 20
114.6052596079
 10
94.45411
 20
114.8588598045
 10
94.2966382208
 20
115.1310500583
 10
94.15145611
 20
115.4187463449
 10
94.0202086389
 20
115.7186889505
 10
93.9043828938
 20
116.0274794054
 10
93.8052912266
 20
116.3416189904
 10
93.7240563856
 20
116.6575483786
 10
93.661598794
 20
116.9716879636
 10
93.6186261212
 20
117.2804784186
 10
93.5956252648
 20
117.5804210241
 10
93.5928568336
 20
117.8681173107
 10
93.6103521952
 20
118.1403075645
 10
93.64791312
 20
118.3939077612
 10
93.7051140279
 20
118.6260445091
 10
93.7813068095
 20
118.8340876062
 10
93.8756281704
 20
119.015679841
 10
93.9870094117
 20
119.168763701
 10
94.1141885395
 20
119.2916046848
 10
94.2557245635
 20
119.3828109551
 10
94.4100138239
 20
119.4413491083
 10
94.5753081619
 20
119.4665558839
 10
94.7497347264
 20
119.4581456788
 10
94.9313171948
 20
119.4162137842
 10
95.1179981653
 20
119.3412353051
 10
95.3076624677
 20
119.2340597777
 10
95.4981611299
 20
119.0959015435
 10
95.6873357257
 20
118.9283259905
 10
95.8730428315
 20
118.7332318168
 10
96.0531783115
 20
118.5128295171
 10
96.2257011588
 20
118.2696163378
 10
96.3886566205
 20
118.0063479812
 10
96.5401983463
 20
117.726007383
 10
96.6786093077
 20
117.4317709143
 10
96.8023212533
 20
117.1269723918
 10
96.9099324773
 20
116.8150653046
 10
97.0002237015
 20
116.4995836845
  0
LWPOLYLINE
  5
A2
330
1F
100
AcDbEntity
  8
0
  6
Continuous
 62
     7
370
    15
100
AcDbPolyline
 90
       43
 70
   128
 43
0.0
 10
94.5457287525
 20
116.4995836845
 10
94.613768081
 20
116.2712683152
 10
94.6989528377
 20
116.0480531339
 10
94.7993801361
 20
115.834924399
 10
94.9128065961
 20
115.6366430543
 10
95.0366984582
 20
115.4576383772
 10
95.1682881828
 20
115.3019090365
 10
95.304636273
 20
115.1729337684
 10
95.4426969376
 20
115.0735936672
 10
95.5793861297
 20
115.0061078266
 10
95.7116504384
 20
114.9719837687
 10
95.8365352978
 20
114.9719837687
 10
95.9512509865
 20
115.0061078266
 10
96.0532349454
 20
115.0735936672
 10
96.1402090215
 20
115.1729337684
 10
96.2102303577
 20
115.3019090365
 10
96.261734793
 20
115.4576383772
 10
96.2935718034
 20
115.6366430543
 10
96.3050302028
 20
115.834924399
 10
96.2958540293
 20
116.0480531339
 10
96.2662482637
 20
116.2712683152
 10
96.2168742497
 20
116.4995836845
 10
96.1488349212
 20
116.7278990539
 10
96.0636501644
 20
116.9511142352
 10
95.9632228661
 20
117.1642429701
 10
95.849796406
 20
117.3625243148
 10
95.725904544
 20
117.5415289919
 10
95.5943148194
 20
117.6972583326
 10
95.4579667292
 20
117.8262336007
 10
95.3199060646
 20
117.9255737019
 10
95.1832168725
 20
117.9930595425
 10
95.0509525637
 20
118.0271836004
 10
94.9260677043
 20
118.0271836004
 10
94.8113520157
 20
117.9930595425
 10
94.7093680568
 20
117.9255737019
 10
94.6223939806
 20
117.8262336007
 10
94.5523726444
 20
117.6972583326
 10
94.5008682092
 20
117.5415289919
 10
94.4690311987
 20
117.3625243148
 10
94.4575727994
 20
117.1642429701
 10
94.4667489728
 20
116.9511142352
 10
94.4963547385
 20
116.7278990539
 10
94.5457287525
 20
116.4995836845
  0
INSERT
  5
AE
330
1F
100
AcDbEntity
  8
0
  6
Continuous
 62
     7
370
     0
100
AcDbBlockReference
  2
SW_CENTERMARKSYMBOL_0
 10
79.0513698825
 20
110.7260809926
 30
0.0
  0
CIRCLE
  5
AF
330
1F
100
AcDbEntity
  8
0
  6
Continuous
 62
     7
100
AcDbCircle
 10
192.3537206174
 20
110.7260809926
 30
0.0
 40
1.59999999999998
  0
CIRCLE
  5
B0
330
1F
100
AcDbEntity
  8
0
  6
Continuous
 62
     7
100
AcDbCircle
 10
192.3537206174
 20
110.7260809926
 30
0.0
 40
3.099999999999989
  0
LINE
  5
B1
330
1F
100
AcDbEntity
  8
0
  6
Continuous
 62
     7
370
    15
100
AcDbLine
 10
189.2537206174
 20
128.0465890683
 30
0.0
 11
189.2537206174
 21
115.1101430359
 31
0.0
  0
LINE
  5
B2
330
1F
100
AcDbEntity
  8
0
  6
Continuous
 62
     7
370
    15
100
AcDbLine
 10
195.4537206174
 20
110.7260809926
 30
0.0
 11
195.4537206174
 21
128.0465890683
 31
0.0
  0
LINE
  5
B3
330
1F
100
AcDbEntity
  8
0
  6
Continuous
 62
     7
370
    15
100
AcDbLine
 10
174.9904556655
 20
113.5768756556
 30
0.0
 11
191.320387284
 21
107.8033729638
 31
0.0
  0
LINE
  5
B4
330
1F
100
AcDbEntity
  8
0
  6
Continuous
 62
     7
370
    15
100
AcDbLine
 10
189.2537206175
 20
115.110143036
 30
0.0
 11
177.0571223322
 21
119.4222917134
 31
0.0
  0
CIRCLE
  5
B5
330
1F
100
AcDbEntity
  8
0
  6
Continuous
 62
     7
370
    15
100
AcDbCircle
 10
192.3537206174
 20
110.7260809926
 30
0.0
 40
1.59999999999998
  0
CIRCLE
  5
B6
330
1F
100
AcDbEntity
  8
0
  6
Continuous
 62
     7
370
    15
100
AcDbCircle
 10
192.3537206174
 20
110.7260809926
 30
0.0
 40
3.09999999999998
  0
LWPOLYLINE
  5
B7
330
1F
100
AcDbEntity
  8
0
  6
Continuous
 62
     7
370
    15
100
AcDbPolyline
 90
       60
 70
   128
 43
0.0
 10
192.3537206174
 20
129.5965890683
 10
192.0242108119
 20
129.5878080086
 10
191.6984344842
 20
129.5615643225
 10
191.3800828102
 20
129.5181553614
 10
191.0727628415
 20
129.4580729662
 10
190.7799566364
 20
129.3819978945
 10
190.504981806
 20
129.2907921071
 10
190.250953925
 20
129.1854890021
 10
190.0207512309
 20
129.0672817059
 10
189.8169820121
 20
128.9375095541
 10
189.6419550554
 20
128.7976429173
 10
189.497653486
 20
128.6492665403
 10
189.3857122985
 20
128.4940615867
 10
189.3073998312
 20
128.3337865906
 10
189.2636033956
 20
128.1702575319
 10
189.2548192229
 20
128.0053272601
 10
189.2811468413
 20
127.840864501
 10
189.3422879483
 20
127.6787326835
 10
189.4375497907
 20
127.5207688258
 10
189.5658530139
 20
127.3687627216
 10
189.725743891
 20
127.2244366607
 10
189.9154107944
 20
127.0894259151
 10
190.1327047225
 20
126.9652602106
 10
190.3751636481
 20
126.853346394
 10
190.6400404148
 20
126.7549524937
 10
190.9243338629
 20
126.671193352
 10
191.2248228341
 20
126.6030179933
 10
191.5381026683
 20
126.5511988716
 10
191.8606237798
 20
126.5163231185
 10
192.1887318754
 20
126.49878589
 10
192.5187093594
 20
126.49878589
 10
192.8468174551
 20
126.5163231185
 10
193.1693385665
 20
126.5511988716
 10
193.4826184007
 20
126.6030179933
 10
193.7831073719
 20
126.671193352
 10
194.06740082
 20
126.7549524937
 10
194.3322775867
 20
126.853346394
 10
194.5747365124
 20
126.9652602106
 10
194.7920304404
 20
127.0894259151
 10
194.9816973439
 20
127.2244366607
 10
195.141588221
 20
127.3687627216
 10
195.2698914441
 20
127.5207688258
 10
195.3651532865
 20
127.6787326835
 10
195.4262943935
 20
127.840864501
 10
195.4526220119
 20
128.0053272601
 10
195.4438378392
 20
128.1702575319
 10
195.4000414037
 20
128.3337865906
 10
195.3217289363
 20
128.4940615867
 10
195.2097877488
 20
128.6492665403
 10
195.0654861795
 20
128.7976429173
 10
194.8904592227
 20
128.9375095541
 10
194.686690004
 20
129.0672817059
 10
194.4564873099
 20
129.1854890021
 10
194.2024594289
 20
129.2907921071
 10
193.9274845985
 20
129.3819978945
 10
193.6346783933
 20
129.4580729662
 10
193.3273584247
 20
129.5181553614
 10
193.0090067507
 20
129.5615643225
 10
192.6832304229
 20
129.5878080086
 10
192.3537206174
 20
129.5965890683
  0
LINE
  5
B8
330
1F
100
AcDbEntity
  8
0
  6
Continuous
 62
     7
370
    15
100
AcDbLine
 10
189.2537206174
 20
115.1101430359
 30
0.0
 11
190.5639347829
 21
113.2572203935
 31
0.0
  0
LWPOLYLINE
  5
B9
330
1F
100
AcDbEntity
  8
0
  6
Continuous
 62
     7
370
    15
100
AcDbPolyline
 90
       43
 70
   128
 43
0.0
 10
192.3537206174
 20
128.8465890683
 10
192.1152529915
 20
128.8376537293
 10
191.8821123384
 20
128.8110473129
 10
191.6595066348
 20
128.7673641626
 10
191.4524085245
 20
128.7075800878
 10
191.265444237
 20
128.6330305658
 10
191.1027902455
 20
128.5453809098
 10
190.9680799714
 20
128.4465890683
 10
190.8643226196
 20
128.3388618878
 10
190.7938359579
 20
128.2246058155
 10
190.7581945419
 20
128.1063731432
 10
190.7581945419
 20
127.9868049934
 10
190.7938359579
 20
127.8685723211
 10
190.8643226196
 20
127.7543162488
 10
190.9680799714
 20
127.6465890683
 10
191.1027902455
 20
127.5477972268
 10
191.265444237
 20
127.4601475708
 10
191.4524085245
 20
127.3855980489
 10
191.6595066348
 20
127.325813974
 10
191.8821123384
 20
127.2821308237
 10
192.1152529915
 20
127.2555244073
 10
192.3537206174
 20
127.2465890683
 10
192.5921882433
 20
127.2555244073
 10
192.8253288965
 20
127.2821308237
 10
193.0479346
 20
127.325813974
 10
193.2550327103
 20
127.3855980489
 10
193.4419969979
 20
127.4601475708
 10
193.6046509894
 20
127.5477972268
 10
193.7393612635
 20
127.6465890683
 10
193.8431186153
 20
127.7543162488
 10
193.9136052769
 20
127.8685723211
 10
193.9492466929
 20
127.9868049934
 10
193.9492466929
 20
128.1063731432
 10
193.9136052769
 20
128.2246058155
 10
193.8431186153
 20
128.3388618878
 10
193.7393612635
 20
128.4465890683
 10
193.6046509894
 20
128.5453809098
 10
193.4419969979
 20
128.6330305658
 10
193.2550327103
 20
128.7075800878
 10
193.0479346
 20
128.7673641626
 10
192.8253288965
 20
128.8110473129
 10
192.5921882433
 20
128.8376537293
 10
192.3537206174
 20
128.8465890683
  0
LWPOLYLINE
  5
BA
330
1F
100
AcDbEntity
  8
0
  6
Continuous
 62
     7
370
    15
100
AcDbPolyline
 90
       60
 70
   128
 43
0.0
 10
174.4048667985
 20
116.4995836845
 10
174.3329186097
 20
116.1841020645
 10
174.280128658
 20
115.8721949772
 10
174.2470950748
 20
115.5673964547
 10
174.2341921436
 20
115.273159986
 10
174.2415660599
 20
114.9928193878
 10
174.2691332742
 20
114.7295510313
 10
174.3165814391
 20
114.4863378519
 10
174.3833729477
 20
114.2659355523
 10
174.4687510257
 20
114.0708413785
 10
174.5717483052
 20
113.9032658255
 10
174.6911977861
 20
113.7651075913
 10
174.8257460578
 20
113.6579320639
 10
174.9738686348
 20
113.5829535849
 10
175.133887229
 20
113.5410216902
 10
175.3039887659
 20
113.5326114852
 10
175.4822459271
 20
113.5578182607
 10
175.6666389876
 20
113.6163564139
 10
175.8550787005
 20
113.7075626842
 10
176.0454299684
 20
113.8304036681
 10
176.2355360355
 20
113.9834875281
 10
176.4232429241
 20
114.1650797629
 10
176.6064238401
 20
114.37312286
 10
176.7830032706
 20
114.6052596079
 10
176.9509805
 20
114.8588598045
 10
177.1084522791
 20
115.1310500583
 10
177.25363439
 20
115.4187463449
 10
177.3848818611
 20
115.7186889505
 10
177.5007076062
 20
116.0274794054
 10
177.5997992733
 20
116.3416189904
 10
177.6810341143
 20
116.6575483786
 10
177.743491706
 20
116.9716879636
 10
177.7864643788
 20
117.2804784186
 10
177.8094652352
 20
117.5804210241
 10
177.8122336663
 20
117.8681173107
 10
177.7947383048
 20
118.1403075645
 10
177.7571773799
 20
118.3939077612
 10
177.6999764721
 20
118.6260445091
 10
177.6237836905
 20
118.8340876062
 10
177.5294623296
 20
119.015679841
 10
177.4180810883
 20
119.168763701
 10
177.2909019605
 20
119.2916046848
 10
177.1493659365
 20
119.3828109551
 10
176.995076676
 20
119.4413491083
 10
176.8297823381
 20
119.4665558839
 10
176.6553557736
 20
119.4581456788
 10
176.4737733051
 20
119.4162137842
 10
176.2870923347
 20
119.3412353051
 10
176.0974280322
 20
119.2340597777
 10
175.9069293701
 20
119.0959015435
 10
175.7177547743
 20
118.9283259905
 10
175.5320476685
 20
118.7332318168
 10
175.3519121885
 20
118.5128295171
 10
175.1793893412
 20
118.2696163378
 10
175.0164338794
 20
118.0063479812
 10
174.8648921537
 20
117.726007383
 10
174.7264811923
 20
117.4317709143
 10
174.6027692467
 20
117.1269723918
 10
174.4951580227
 20
116.8150653046
 10
174.4048667985
 20
116.4995836845
  0
LWPOLYLINE
  5
BB
330
1F
100
AcDbEntity
  8
0
  6
Continuous
 62
     7
370
    15
100
AcDbPolyline
 90
       43
 70
   128
 43
0.0
 10
175.1882162503
 20
116.4995836845
 10
175.2562555788
 20
116.7278990539
 10
175.3414403355
 20
116.9511142352
 10
175.4418676339
 20
117.1642429701
 10
175.5552940939
 20
117.3625243148
 10
175.679185956
 20
117.5415289919
 10
175.8107756806
 20
117.6972583326
 10
175.9471237708
 20
117.8262336007
 10
176.0851844354
 20
117.9255737019
 10
176.2218736275
 20
117.9930595425
 10
176.3541379362
 20
118.0271836004
 10
176.4790227956
 20
118.0271836004
 10
176.5937384843
 20
117.9930595425
 10
176.6957224432
 20
117.9255737019
 10
176.7826965193
 20
117.8262336007
 10
176.8527178555
 20
117.6972583326
 10
176.9042222908
 20
117.5415289919
 10
176.9360593012
 20
117.3625243148
 10
176.9475177006
 20
117.1642429701
 10
176.9383415271
 20
116.9511142352
 10
176.9087357615
 20
116.7278990539
 10
176.8593617475
 20
116.4995836845
 10
176.791322419
 20
116.2712683152
 10
176.7061376622
 20
116.0480531339
 10
176.6057103639
 20
115.834924399
 10
176.4922839038
 20
115.6366430543
 10
176.3683920418
 20
115.4576383772
 10
176.2368023172
 20
115.3019090365
 10
176.100454227
 20
115.1729337684
 10
175.9623935624
 20
115.0735936672
 10
175.8257043703
 20
115.0061078266
 10
175.6934400615
 20
114.9719837687
 10
175.5685552021
 20
114.9719837687
 10
175.4538395135
 20
115.0061078266
 10
175.3518555546
 20
115.0735936672
 10
175.2648814784
 20
115.1729337684
 10
175.1948601422
 20
115.3019090365
 10
175.143355707
 20
115.4576383772
 10
175.1115186965
 20
115.6366430543
 10
175.1000602972
 20
115.834924399
 10
175.1092364706
 20
116.0480531339
 10
175.1388422363
 20
116.2712683152
 10
175.1882162503
 20
116.4995836845
  0
INSERT
  5
C7
330
1F
100
AcDbEntity
  8
0
  6
Continuous
 62
     7
370
     0
100
AcDbBlockReference
  2
SW_CENTERMARKSYMBOL_1
 10
192.3537206174
 20
110.7260809926
 30
0.0
  0
LWPOLYLINE
  5
C8
330
1F
100
AcDbEntity
  8
0
  6
Continuous
 62
     7
100
AcDbPolyline
 90
       17
 70
   128
 43
0.0
 10
87.8209963733
 20
154.350389107
 10
88.2539532534
 20
154.0009996709
 10
88.6209963733
 20
153.5059041106
 10
88.8662467452
 20
152.9404762371
 10
88.9523672232
 20
152.3907973185
 10
88.8662467452
 20
151.9405509873
 10
88.6209963733
 20
151.658283166
 10
88.2539532534
 20
151.5869665715
 10
87.8209963733
 20
151.7374585089
 10
87.3880394931
 20
152.086847945
 10
87.0209963733
 20
152.5819435053
 10
86.7757460014
 20
153.1473713788
 10
86.6896255234
 20
153.6970502974
 10
86.7757460014
 20
154.1472966286
 10
87.0209963733
 20
154.42956445
 10
87.3880394931
 20
154.5008810444
 10
87.8209963733
 20
154.350389107
  0
LWPOLYLINE
  5
C9
330
1F
100
AcDbEntity
  8
0
  6
Continuous
 62
     7
100
AcDbPolyline
 90
       17
 70
   128
 43
0.0
 10
88.4618842199
 20
155.094618901
 10
89.2152995643
 20
154.1922048966
 10
89.7564448873
 20
153.1149755056
 10
90.0029357189
 20
152.0269291378
 10
89.9172460645
 20
151.0937109894
 10
89.5124213971
 20
150.4573950639
 10
88.8500926027
 20
150.2148546928
 10
88.0310932361
 20
150.4030144488
 10
87.1801085266
 20
150.9932287149
 10
86.4266931822
 20
151.8956427193
 10
85.8855478592
 20
152.9728721103
 10
85.6390570276
 20
154.0609184782
 10
85.724746682
 20
154.9941366265
 10
86.1295713494
 20
155.630452552
 10
86.7919001438
 20
155.8729929232
 10
87.6108995104
 20
155.6848331671
 10
88.4618842199
 20
155.094618901
  0
LINE
  5
CA
330
1F
100
AcDbEntity
  8
0
  6
Continuous
 62
     7
370
    15
100
AcDbLine
 10
91.6046889978
 20
147.0202692229
 30
0.0
 11
88.2541993213
 21
151.5368194748
 31
0.0
  0
LINE
  5
CB
330
1F
100
AcDbEntity
  8
0
  6
Continuous
 62
     7
370
    15
100
AcDbLine
 10
83.2747281856
 20
147.8429235357
 30
0.0
 11
86.625217862
 21
143.3263732838
 31
0.0
  0
LINE
  5
CC
330
1F
100
AcDbEntity
  8
0
  6
Continuous
 62
     7
370
    15
100
AcDbLine
 10
75.031704813
 20
159.4853207179
 30
0.0
 11
80.3201300556
 21
151.9608401761
 31
0.0
  0
LINE
  5
CD
330
1F
100
AcDbEntity
  8
0
  6
Continuous
 62
     7
370
    15
100
AcDbLine
 10
85.3926165218
 20
155.5259321877
 30
0.0
 11
80.1041912791
 21
163.0504127294
 31
0.0
  0
LINE
  5
CE
330
1F
100
AcDbEntity
  8
0
  6
Continuous
 62
     7
370
    15
100
AcDbLine
 10
102.904667284
 20
156.4173047882
 30
0.0
 11
89.2798724703
 21
154.8582702322
 31
0.0
  0
LINE
  5
CF
330
1F
100
AcDbEntity
  8
0
  6
Continuous
 62
     7
370
    15
100
AcDbLine
 10
90.330416653
 20
148.7380226367
 30
0.0
 11
103.609510823
 21
150.2574999548
 31
0.0
  0
LINE
  5
D0
330
1F
100
AcDbEntity
  8
0
  6
Continuous
 62
     7
370
    15
100
AcDbLine
 10
99.1135495753
 20
155.9835013002
 30
0.0
 11
100.3310255172
 21
156.6863352012
 31
0.0
  0
LINE
  5
D1
330
1F
100
AcDbEntity
  8
0
  6
Continuous
 62
     7
370
    15
100
AcDbLine
 10
72.0467542698
 20
140.3581729648
 30
0.0
 11
83.7956711968
 21
147.140678337
 31
0.0
  0
LINE
  5
D2
330
1F
100
AcDbEntity
  8
0
  6
Continuous
 62
     7
370
    15
100
AcDbLine
 10
80.1539388654
 20
152.1973004303
 30
0.0
 11
68.9470061986
 21
145.7276759115
 31
0.0
  0
LINE
  5
D3
330
1F
100
AcDbEntity
  8
0
  6
Continuous
 62
     7
370
    15
100
AcDbLine
 10
97.2312774461
 20
162.055838148
 30
0.0
 11
90.713542166
 21
158.2932296602
 31
0.0
  0
LINE
  5
D4
330
1F
100
AcDbEntity
  8
0
  6
Continuous
 62
     7
370
    15
100
AcDbLine
 10
88.8199910313
 20
170.5532705166
 30
0.0
 11
83.8442912001
 21
157.7289213991
 31
0.0
  0
LINE
  5
D5
330
1F
100
AcDbEntity
  8
0
  6
Continuous
 62
     7
370
    15
100
AcDbLine
 10
89.3855072177
 20
154.8703576231
 30
0.0
 11
94.6001763083
 21
168.3106251672
 31
0.0
  0
LWPOLYLINE
  5
D6
330
1F
100
AcDbEntity
  8
0
  6
Continuous
 62
     7
370
    15
100
AcDbPolyline
 90
       60
 70
   128
 43
0.0
 10
92.1290746323
 20
145.5916351694
 10
92.1342334648
 20
145.2782705968
 10
92.105182648
 20
144.9637169063
 10
92.0422513394
 20
144.6515381167
 10
91.9461525757
 20
144.3452713386
 10
91.8179751944
 20
144.0483866969
 10
91.6591714965
 20
143.7642480132
 10
91.4715407913
 20
143.4960746924
 10
91.2572090096
 20
143.2469052453
 10
91.0186046162
 20
143.0195628613
 10
90.7584310941
 20
142.8166234205
 10
90.4796363135
 20
142.6403863078
 10
90.1853791305
 20
142.4928483602
 10
89.8789935965
 20
142.3756812415
 10
89.5639511822
 20
142.290212502
 10
89.2438214439
 20
142.2374105367
 10
88.9222315796
 20
142.217873613
 10
88.6028253308
 20
142.2318230919
 10
88.289221698
 20
142.2791009204
 10
87.9849739357
 20
142.3591714218
 10
87.6935292926
 20
142.4711273652
 10
87.4181899529
 20
142.6137002451
 10
87.1620756214
 20
142.7852746537
 10
86.9280881758
 20
142.9839065846
 10
86.7188787873
 20
143.2073454585
 10
86.536817882
 20
143.4530596238
 10
86.3839682826
 20
143.7182650407
 10
86.2620618362
 20
143.9999568258
 10
86.1724797915
 20
144.2949432988
 10
86.1162371488
 20
144.599882145
 10
86.0939711599
 20
144.9113182855
 10
86.1059341072
 20
145.2257230242
 10
86.1519904457
 20
145.53953403
 10
86.2316183389
 20
145.8491956986
 10
86.3439155707
 20
146.1511994398
 10
86.4876097687
 20
146.4421234303
 10
86.6610728202
 20
146.7186713852
 10
86.8623393196
 20
146.9777099056
 10
87.0891288369
 20
147.2163039815
 10
87.3388717563
 20
147.4317502468
 10
87.6087383908
 20
147.6216076092
 10
87.8956710435
 20
147.7837249089
 10
88.1964186529
 20
147.9162652921
 10
88.5075736283
 20
148.0177270234
 10
88.8256104596
 20
148.0869605007
 10
89.1469256623
 20
148.1231812811
 10
89.4678786069
 20
148.1259789686
 10
89.7848327682
 20
148.0953218645
 10
90.0941969289
 20
148.0315573258
 10
90.3924658695
 20
147.9354078303
 10
90.6762600836
 20
147.8079627903
 10
90.9423640696
 20
147.6506662089
 10
91.1877627627
 20
147.4653003192
 10
91.4096756979
 20
147.2539653909
 10
91.6055885129
 20
147.0190559331
 10
91.7732814371
 20
146.7632335639
 10
91.9108544429
 20
146.4893968529
 10
92.0167487729
 20
146.2006484795
 10
92.0897646023
 20
145.9002600781
 10
92.1290746323
 20
145.5916351694
  0
ELLIPSE
  5
D7
330
1F
100
AcDbEntity
  8
0
  6
Continuous
 62
     7
370
    15
100
AcDbEllipse
 10
84.639015858
 20
151.2070055564
 30
0.0
 11
4.078149035754848
 21
-1.769139211217265
 31
0.0
210
0.0
220
0.0
230
1.0
 40
0.561570129
 41
0.7719587372415001
 42
1.369245357493763
  0
ELLIPSE
  5
D8
330
1F
100
AcDbEntity
  8
0
  6
Continuous
 62
     7
370
    15
100
AcDbEllipse
 10
84.6390158579
 20
151.2070055564
 30
0.0
 11
0.7820395337627417
 21
3.770734302639909
 31
0.0
210
0.0
220
0.0
230
1.0
 40
0.4528135456
 41
1.784439777538377
 42
2.757949484085876
  0
ELLIPSE
  5
D9
330
1F
100
AcDbEntity
  8
0
  6
Continuous
 62
     7
370
    15
100
AcDbEllipse
 10
84.6390158579
 20
151.2070055564
 30
0.0
 11
2.51338627419176
 21
1.815033588700004
 31
0.0
210
0.0
220
0.0
230
1.0
 40
0.2762237899
 41
0.600826086068143
 42
2.171622412891557
  0
LWPOLYLINE
  5
DA
330
1F
100
AcDbEntity
  8
0
  6
Continuous
 62
     7
370
    15
100
AcDbPolyline
 90
       43
 70
   128
 43
0.0
 10
87.5592779705
 20
144.9574172966
 10
87.5927447311
 20
144.7347605695
 10
87.6602151186
 20
144.5219005634
 10
87.7601819561
 20
144.323592219
 10
87.8904121496
 20
144.1442654171
 10
88.0479965718
 20
143.9879260222
 10
88.2294150472
 20
143.8580663979
 10
88.4306149867
 20
143.7575873937
 10
88.6471019162
 20
143.6887335444
 10
88.8740398754
 20
143.6530429314
 10
89.1063594453
 20
143.6513128239
 10
89.3388709906
 20
143.6835818697
 10
89.5663805877
 20
143.7491292316
 10
89.783806048
 20
143.8464906899
 10
89.986290446
 20
143.9734913504
 10
90.169310615
 20
144.1272942283
 10
90.3287781867
 20
144.3044636214
 10
90.4611309191
 20
144.5010418583
 10
90.5634122709
 20
144.7126377059
 10
90.6333374457
 20
144.9345244627
 10
90.6693444307
 20
145.1617455453
 10
90.6706288892
 20
145.38922521
 10
90.6371621287
 20
145.6118819371
 10
90.5696917412
 20
145.8247419433
 10
90.4697249037
 20
146.0230502876
 10
90.3394947101
 20
146.2023770895
 10
90.1819102879
 20
146.3587164844
 10
90.0004918126
 20
146.4885761087
 10
89.799291873
 20
146.589055113
 10
89.5828049436
 20
146.6579089622
 10
89.3558669843
 20
146.6935995752
 10
89.1235474144
 20
146.6953296827
 10
88.8910358691
 20
146.6630606369
 10
88.663526272
 20
146.597513275
 10
88.4461008118
 20
146.5001518168
 10
88.2436164137
 20
146.3731511562
 10
88.0605962447
 20
146.2193482784
 10
87.901128673
 20
146.0421788852
 10
87.7687759406
 20
145.8456006484
 10
87.6664945888
 20
145.6340048007
 10
87.596569414
 20
145.4121180439
 10
87.5605624291
 20
145.1848969613
 10
87.5592779705
 20
144.9574172966
  0
ELLIPSE
  5
DB
330
1F
100
AcDbEntity
  8
0
  6
Continuous
 62
     7
370
    15
100
AcDbEllipse
 10
84.6390158579
 20
151.2070055564
 30
0.0
 11
4.379715121154291
 21
-0.9670312105727988
 31
0.0
210
0.0
220
0.0
230
1.0
 40
0.2018348266
 41
3.358775570154802
 42
4.32520634503576
  0
ELLIPSE
  5
DC
330
1F
100
AcDbEntity
  8
0
  6
Continuous
 62
     7
370
    15
100
AcDbEllipse
 10
84.6390158579
 20
151.2070055564
 30
0.0
 11
-0.6351109351406449
 21
5.212044233376162
 31
0.0
210
0.0
220
0.0
230
1.0
 40
0.4025305772
 41
5.033917391472084
 42
5.638282943399699
  0
LWPOLYLINE
  5
DD
330
1F
100
AcDbEntity
  8
0
  6
Continuous
 62
     7
370
    15
100
AcDbPolyline
 90
       60
 70
   128
 43
0.0
 10
79.4663025967
 20
163.6294017373
 10
79.6885466568
 20
163.4815159306
 10
79.8867634874
 20
163.3085485938
 10
80.0587072124
 20
163.1124595161
 10
80.2024296408
 20
162.8954704649
 10
80.3163023401
 20
162.6600400129
 10
80.399035087
 20
162.4088356814
 10
80.4496904865
 20
162.1447037156
 10
80.4676945927
 20
161.8706368363
 10
80.4528434118
 20
161.5897403308
 10
80.4053052137
 20
161.3051968687
 10
80.3256186251
 20
161.0202304412
 10
80.2146865269
 20
160.7380698317
 10
80.0737658242
 20
160.4619120327
 10
79.9044532048
 20
160.1948860223
 10
79.7086670483
 20
159.9400173121
 10
79.4886256901
 20
159.7001936663
 10
79.2468222868
 20
159.4781323826
 10
78.9859965674
 20
159.2763495041
 10
78.7091037917
 20
159.0971313115
 10
78.4192812654
 20
158.9425084185
 10
78.1198127936
 20
158.8142327643
 10
77.8140914736
 20
158.7137577633
 10
77.5055812503
 20
158.6422218373
 10
77.1977776677
 20
158.6004355171
 10
76.8941682634
 20
158.5888722583
 10
76.5981930532
 20
158.6076630772
 10
76.3132055546
 20
158.6565950665
 10
76.0424347898
 20
158.735113807
 10
75.7889486998
 20
158.8423296501
 10
75.5556193832
 20
158.9770277974
 10
75.3450905545
 20
159.1376820651
 10
75.1597475893
 20
159.3224721763
 10
75.0016904976
 20
159.5293043849
 10
74.8727101293
 20
159.7558351996
 10
74.7742678836
 20
159.9994979356
 10
74.7074791504
 20
160.2575317968
 10
74.6731006728
 20
160.5270131564
 10
74.6715219727
 20
160.8048886829
 10
74.7027609373
 20
161.0880099357
 10
74.7664636167
 20
161.3731690377
 10
74.8619082342
 20
161.6571350225
 10
74.9880133639
 20
161.9366904419
 10
75.1433501846
 20
162.2086678213
 10
75.3261586678
 20
162.4699855483
 10
75.5343675204
 20
162.7176827887
 10
75.765617653
 20
162.9489530338
 10
76.0172889091
 20
163.1611758992
 10
76.2865297528
 20
163.3519468152
 10
76.5702895779
 20
163.519104271
 10
76.865353272
 20
163.6607543058
 10
77.1683776456
 20
163.7752919681
 10
77.4759293116
 20
163.8614195006
 10
77.7845235866
 20
163.9181610437
 10
78.0906639741
 20
163.9448736932
 10
78.3908817813
 20
163.941254784
 10
78.6817754205
 20
163.9073453199
 10
78.9600489505
 20
163.8435295086
 10
79.222549421
 20
163.7505304088
 10
79.4663025967
 20
163.6294017373
  0
LWPOLYLINE
  5
DE
330
1F
100
AcDbEntity
  8
0
  6
Continuous
 62
     7
370
    15
100
AcDbPolyline
 90
       43
 70
   128
 43
0.0
 10
78.5477439432
 20
162.4867235049
 10
78.7054225079
 20
162.3757664296
 10
78.8376917727
 20
162.2400607057
 10
78.9415970609
 20
162.0826377746
 10
79.0148173
 20
161.9070142047
 10
79.0557168709
 20
161.7171131362
 10
79.0633821446
 20
161.5171766452
 10
79.0376418917
 20
161.3116709825
 10
78.9790711069
 20
161.1051868051
 10
78.8889781648
 20
160.9023366282
 10
78.7693755927
 20
160.7076517897
 10
78.6229351145
 20
160.525481227
 10
78.4529279685
 20
160.3598943296
 10
78.2631518335
 20
160.214590035
 10
78.0578459946
 20
160.0928142013
 10
77.8415966451
 20
159.9972870991
 10
77.6192344381
 20
159.9301426462
 10
77.3957265778
 20
159.8928807387
 10
77.1760658605
 20
159.8863337459
 10
76.9651591437
 20
159.910647917
 10
76.7677177349
 20
159.9652801135
 10
76.5881521489
 20
160.0490099424
 10
76.4304735842
 20
160.1599670177
 10
76.2982043194
 20
160.2956727416
 10
76.1942990312
 20
160.4530956727
 10
76.1210787921
 20
160.6287192426
 10
76.0801792213
 20
160.8186203111
 10
76.0725139475
 20
161.0185568021
 10
76.0982542004
 20
161.2240624648
 10
76.1568249852
 20
161.4305466422
 10
76.2469179273
 20
161.6333968191
 10
76.3665204994
 20
161.8280816576
 10
76.5129609776
 20
162.0102522203
 10
76.6829681236
 20
162.1758391177
 10
76.8727442586
 20
162.3211434123
 10
77.0780500975
 20
162.442919246
 10
77.294299447
 20
162.5384463482
 10
77.516661654
 20
162.6055908011
 10
77.7401695143
 20
162.6428527086
 10
77.9598302316
 20
162.6493997014
 10
78.1707369484
 20
162.6250855303
 10
78.3681783572
 20
162.5704533338
 10
78.5477439432
 20
162.4867235049
  0
ELLIPSE
  5
DF
330
1F
100
AcDbEntity
  8
0
  6
Continuous
 62
     7
370
    15
100
AcDbEllipse
 10
84.639015858
 20
151.2070055564
 30
0.0
 11
4.710330120980117
 21
3.635442746191898
 31
0.0
210
0.0
220
0.0
230
1.0
 40
0.0749898084
 41
0.1235169076500517
 42
1.123905466488848
  0
LWPOLYLINE
  5
E0
330
1F
100
AcDbEntity
  8
0
  6
Continuous
 62
     7
370
    15
100
AcDbPolyline
 90
       60
 70
   128
 43
0.0
 10
102.5324695833
 20
151.5973872386
 10
102.6290608552
 20
151.3368054898
 10
102.7327679376
 20
151.0988913031
 10
102.8424157877
 20
150.8863403412
 10
102.9567620516
 20
150.7015608916
 10
103.0745111404
 20
150.5466465792
 10
103.19432891
 20
150.423352645
 10
103.314857777
 20
150.3330760586
 10
103.4347321014
 20
150.2768396898
 10
103.552593659
 20
150.2552807191
 10
103.6671070313
 20
150.2686434183
 10
103.7769747362
 20
150.3167763827
 10
103.8809519285
 20
150.3991342465
 10
103.9778605052
 20
150.5147838622
 10
104.0666024533
 20
150.6624148735
 10
104.1461722911
 20
150.840354562
 10
104.2156684606
 20
151.0465868
 10
104.2743035424
 20
151.2787748937
 10
104.3214131775
 20
151.5342880594
 10
104.3564635951
 20
151.8102312307
 10
104.3790576598
 20
152.1034778612
 10
104.3889393719
 20
152.4107053495
 10
104.3859967676
 20
152.7284326854
 10
104.3702631878
 20
153.0530598911
 10
104.3419169003
 20
153.3809088108
 10
104.3012790798
 20
153.7082647851
 10
104.2488101691
 20
154.0314187401
 10
104.1851046619
 20
154.3467092123
 10
104.110884367
 20
154.6505638347
 10
104.02699023
 20
154.939539813
 10
103.9343728051
 20
155.2103629339
 10
103.8340814846
 20
155.4599646633
 10
103.7272526094
 20
155.6855169137
 10
103.6150965932
 20
155.8844640881
 10
103.4988842085
 20
156.0545520356
 10
103.3799321881
 20
156.1938535916
 10
103.2595883059
 20
156.3007904139
 10
103.1392161061
 20
156.3741508656
 10
103.020179454
 20
156.4131037434
 10
102.9038270823
 20
156.4172076957
 10
102.7914773098
 20
156.386416223
 10
102.6844031045
 20
156.3210782051
 10
102.5838176599
 20
156.2219339477
 10
102.4908606491
 20
156.090106795
 10
102.4065853123
 20
155.9270904013
 10
102.3319465228
 20
155.7347318074
 10
102.2677899678
 20
155.5152105131
 10
102.2148425667
 20
155.2710137823
 10
102.1737042348
 20
155.0049084616
 10
102.1448410858
 20
154.7199096306
 10
102.1285801507
 20
154.4192464399
 10
102.1251056725
 20
154.1063255236
 10
102.1344570182
 20
153.7846924008
 10
102.1565282335
 20
153.4579913032
 10
102.1910692426
 20
153.1299238849
 10
102.2376886821
 20
152.8042072807
 10
102.2958583352
 20
152.4845319899
 10
102.3649191164
 20
152.1745200614
 10
102.4440885395
 20
151.8776840541
 10
102.5324695833
 20
151.5973872386
  0
LWPOLYLINE
  5
E1
330
1F
100
AcDbEntity
  8
0
  6
Continuous
 62
     7
370
    15
100
AcDbPolyline
 90
       60
 70
   128
 43
0.0
 10
70.4968802342
 20
145.574200955
 10
70.7298788521
 20
145.4253535287
 10
70.9602375026
 20
145.2495122289
 10
71.1853461301
 20
145.0486694077
 10
71.4026541639
 20
144.8251006945
 10
71.6096994172
 20
144.5813392123
 10
71.8041359844
 20
144.3201468759
 10
71.9837608217
 20
144.0444830989
 10
72.1465387077
 20
143.7574712621
 10
72.2906253041
 20
143.4623633243
 10
72.4143880521
 20
143.1625029763
 10
72.5164246703
 20
142.8612877557
 10
72.5955790431
 20
142.5621305513
 10
72.6509543198
 20
142.2684209337
 10
72.6819230764
 20
141.9834867503
 10
72.6881344245
 20
141.7105564193
 10
72.669517987
 20
141.4527223502
 10
72.6262846956
 20
141.2129059063
 10
72.5589244008
 20
140.9938243036
 10
72.4682003217
 20
140.7979598241
 10
72.3551403983
 20
140.6275316908
 10
72.2210256447
 20
140.4844709224
 10
72.0673756346
 20
140.3703984547
 10
71.8959312841
 20
140.2866067743
 10
71.7086351262
 20
140.2340452744
 10
71.5076093012
 20
140.2133094977
 10
71.295131512
 20
140.224634389
 10
71.0736092169
 20
140.2678916327
 10
70.8455523519
 20
140.3425911069
 10
70.6135448925
 20
140.4478864368
 10
70.3802155759
 20
140.5825845841
 10
70.1482081165
 20
140.7451593651
 10
69.9201512515
 20
140.9337687425
 10
69.6986289564
 20
141.1462756967
 10
69.4861511671
 20
141.380272439
 10
69.2851253421
 20
141.6331076928
 10
69.0978291842
 20
141.9019167337
 10
68.9263848338
 20
142.1836538478
 10
68.7727348237
 20
142.4751268411
 10
68.6386200701
 20
142.773033208
 10
68.5255601467
 20
143.0739975503
 10
68.4348360675
 20
143.3746098219
 10
68.3674757728
 20
143.6714639656
 10
68.3242424814
 20
143.9611965052
 10
68.3056260439
 20
144.2405246555
 10
68.311837392
 20
144.5062835167
 10
68.3428061486
 20
144.7554619348
 10
68.3981814253
 20
144.9852366188
 10
68.4773357981
 20
145.1930041297
 10
68.5793724163
 20
145.3764103785
 10
68.7031351643
 20
145.5333772993
 10
68.8472217607
 20
145.662126394
 10
69.0099996467
 20
145.7611988839
 10
69.189624484
 20
145.8294722382
 10
69.3840610512
 20
145.8661728925
 10
69.5911063044
 20
145.8708850137
 10
69.8084143382
 20
145.8435552115
 10
70.0335229657
 20
145.7844931436
 10
70.2638816162
 20
145.6943680069
 10
70.4968802342
 20
145.574200955
  0
LWPOLYLINE
  5
E2
330
1F
100
AcDbEntity
  8
0
  6
Continuous
 62
     7
370
    15
100
AcDbPolyline
 90
       24
 70
   128
 43
0.0
 10
98.7811514816
 20
161.9023631914
 10
99.0141500996
 20
161.7535157652
 10
99.2445087501
 20
161.5776744653
 10
99.4696173776
 20
161.3768316441
 10
99.6869254114
 20
161.153262931
 10
99.8939706646
 20
160.9095014487
 10
100.0884072319
 20
160.6483091123
 10
100.2680320691
 20
160.3726453354
 10
100.4308099552
 20
160.0856334986
 10
100.5748965516
 20
159.7905255608
 10
100.6986592996
 20
159.4906652128
 10
100.8006959178
 20
159.1894499922
 10
100.8798502906
 20
158.8902927877
 10
100.9352255673
 20
158.5965831702
 10
100.9661943238
 20
158.3116489868
 10
100.9724056719
 20
158.0387186557
 10
100.9537892344
 20
157.7808845867
 10
100.9105559431
 20
157.5410681427
 10
100.8431956483
 20
157.32198654
 10
100.7524715692
 20
157.1261220606
 10
100.6394116457
 20
156.9556939272
 10
100.5052968921
 20
156.8126331589
 10
100.3516468821
 20
156.6985606912
 10
100.3310255172
 20
156.6863352012
  0
ARC
  5
E3
330
1F
100
AcDbEntity
  8
0
  6
Continuous
 62
     7
370
    15
100
AcDbCircle
 10
97.875552574
 20
160.6596054561
 30
0.0
 40
1.537711341677866
100
AcDbArc
 50
53.919136004
 51
114.7704055669
  0
LWPOLYLINE
  5
E4
330
1F
100
AcDbEntity
  8
0
  6
Continuous
 62
     7
370
    15
100
AcDbPolyline
 90
       43
 70
   128
 43
0.0
 10
70.4968802342
 20
144.3493897372
 10
70.6655023095
 20
144.2374541471
 10
70.8303576464
 20
144.0988347373
 10
70.9877636489
 20
143.9366280362
 10
71.134204127
 20
143.7544574735
 10
71.2664078426
 20
143.5563924386
 10
71.381421583
 20
143.3468573771
 10
71.4766761313
 20
143.1305329559
 10
71.5500436583
 20
142.9122515052
 10
71.5998852548
 20
142.6968890719
 10
71.6250875417
 20
142.4892564969
 10
71.6250875417
 20
142.2939919487
 10
71.5998852548
 20
142.1154573149
 10
71.5500436583
 20
141.9576407639
 10
71.4766761313
 20
141.8240676569
 10
71.381421583
 20
141.7177217962
 10
71.2664078426
 20
141.6409787728
 10
71.134204127
 20
141.5955528988
 10
70.9877636489
 20
141.5824589134
 10
70.8303576464
 20
141.6019893144
 10
70.6655023095
 20
141.653707825
 10
70.4968802342
 20
141.7364591391
 10
70.3282581588
 20
141.8483947292
 10
70.163402822
 20
141.987014139
 10
70.0059968195
 20
142.1492208401
 10
69.8595563413
 20
142.3313914028
 10
69.7273526258
 20
142.5294564377
 10
69.6123388854
 20
142.7389914992
 10
69.5170843371
 20
142.9553159204
 10
69.44371681
 20
143.1735973711
 10
69.3938752136
 20
143.3889598044
 10
69.3686729266
 20
143.5965923794
 10
69.3686729266
 20
143.7918569275
 10
69.3938752136
 20
143.9703915614
 10
69.44371681
 20
144.1282081124
 10
69.5170843371
 20
144.2617812194
 10
69.6123388854
 20
144.3681270801
 10
69.7273526258
 20
144.4448701035
 10
69.8595563413
 20
144.4902959774
 10
70.0059968195
 20
144.5033899629
 10
70.163402822
 20
144.4838595619
 10
70.3282581588
 20
144.4321410513
 10
70.4968802342
 20
144.3493897372
  0
LWPOLYLINE
  5
E5
330
1F
100
AcDbEntity
  8
0
  6
Continuous
 62
     7
370
    15
100
AcDbPolyline
 90
       43
 70
   128
 43
0.0
 10
102.8830919076
 20
152.4393300448
 10
102.820336527
 20
152.6450788115
 10
102.7673374762
 20
152.8662929425
 10
102.7252786663
 20
153.0980308796
 10
102.6950996217
 20
153.3351159803
 10
102.6774744924
 20
153.5722521552
 10
102.6727969945
 20
153.8041421741
 10
102.6811716157
 20
154.025605997
 10
102.7024112808
 20
154.2316964881
 10
102.7360415308
 20
154.4178099264
 10
102.7813111215
 20
154.5797888453
 10
102.8372088049
 20
154.7140149034
 10
102.9024859192
 20
154.8174897122
 10
102.9756842817
 20
154.8879018157
 10
103.0551687617
 20
154.9236783236
 10
103.1391638073
 20
154.9240200481
 10
103.2257931081
 20
154.8889193555
 10
103.3131215087
 20
154.8191603372
 10
103.3991982367
 20
154.7163012945
 10
103.4821004804
 20
154.5826399285
 10
103.5599763407
 20
154.4211620131
 10
103.6310861995
 20
154.2354746982
 10
103.69384158
 20
154.0297259315
 10
103.7468406309
 20
153.8085118005
 10
103.7888994407
 20
153.5767738634
 10
103.8190784854
 20
153.3396887627
 10
103.8367036147
 20
153.1025525878
 10
103.8413811126
 20
152.870662569
 10
103.8330064914
 20
152.6491987461
 10
103.8117668262
 20
152.4431082549
 10
103.7781365763
 20
152.2569948166
 10
103.7328669856
 20
152.0950158977
 10
103.6769693022
 20
151.9607898397
 10
103.6116921878
 20
151.8573150308
 10
103.5384938254
 20
151.7869029274
 10
103.4590093454
 20
151.7511264194
 10
103.3750142997
 20
151.7507846949
 10
103.2883849989
 20
151.7858853876
 10
103.2010565984
 20
151.8556444058
 10
103.1149798704
 20
151.9585034485
 10
103.0320776266
 20
152.0921648145
 10
102.9542017664
 20
152.2536427299
 10
102.8830919076
 20
152.4393300448
  0
LWPOLYLINE
  5
E6
330
1F
100
AcDbEntity
  8
0
  6
Continuous
 62
     7
370
    15
100
AcDbPolyline
 90
       60
 70
   128
 43
0.0
 10
89.8117291191
 20
169.601689345
 10
90.0554822949
 20
169.4662204864
 10
90.3179827653
 20
169.3303633051
 10
90.5962562953
 20
169.1956571171
 10
90.8871499345
 20
169.0636281975
 10
91.1873677417
 20
168.9357724866
 10
91.4935081293
 20
168.8135386407
 10
91.8021024043
 20
168.6983116182
 10
92.1096540702
 20
168.5913969873
 10
92.4126784439
 20
168.4940061334
 10
92.707742138
 20
168.4072425338
 10
92.991501963
 20
168.3320892549
 10
93.2607428067
 20
168.2693978132
 10
93.5124140628
 20
168.2198785279
 10
93.7436641954
 20
168.1840924722
 10
93.9518730481
 20
168.1624451165
 10
94.1346815313
 20
168.1551817339
 10
94.2900183519
 20
168.1623846215
 10
94.4161234817
 20
168.1839721676
 10
94.5115680991
 20
168.2196997769
 10
94.5752707786
 20
168.2691626411
 10
94.6065097432
 20
168.3318003262
 10
94.604931043
 20
168.4069031223
 10
94.5705525654
 20
168.4936200846
 10
94.5037638323
 20
168.5909686754
 10
94.4053215865
 20
168.6978458962
 10
94.2763412183
 20
168.8130407853
 10
94.1182841265
 20
168.9352481387
 10
93.9329411614
 20
169.0630832982
 10
93.7224123326
 20
169.1950978404
 10
93.489083016
 20
169.3297959878
 10
93.235596926
 20
169.4656515564
 10
92.9648261612
 20
169.6011252485
 10
92.6798386626
 20
169.734682093
 10
92.3838634525
 20
169.8648088375
 10
92.0802540481
 20
169.9900310939
 10
91.7724504655
 20
170.1089300441
 10
91.4639402422
 20
170.2201585154
 10
91.1582189222
 20
170.3224562448
 10
90.8587504504
 20
170.4146641582
 10
90.5689279241
 20
170.4957375031
 10
90.2920351484
 20
170.564757686
 10
90.0312094291
 20
170.6209426807
 10
89.7894060257
 20
170.6636558889
 10
89.5693646675
 20
170.6924133526
 10
89.373578511
 20
170.7068892385
 10
89.2042658916
 20
170.706919529
 10
89.0633451889
 20
170.6925038807
 10
88.9524130907
 20
170.6638056289
 10
88.8727265021
 20
170.6211499361
 10
88.825188304
 20
170.5650201084
 10
88.8103371231
 20
170.4960521191
 10
88.8283412293
 20
170.4150274032
 10
88.8789966288
 20
170.3228640031
 10
88.9617293757
 20
170.2206061668
 10
89.075602075
 20
170.1094125166
 10
89.2193245034
 20
169.9905429209
 10
89.3912682285
 20
169.8653442198
 10
89.589485059
 20
169.7352349646
 10
89.8117291191
 20
169.601689345
  0
LWPOLYLINE
  5
E7
330
1F
100
AcDbEntity
  8
0
  6
Continuous
 62
     7
370
    15
100
AcDbPolyline
 90
       43
 70
   128
 43
0.0
 10
90.7302877727
 20
169.5195563596
 10
90.9098533587
 20
169.4212343928
 10
91.1072947675
 20
169.3231517467
 10
91.3182014843
 20
169.2274994256
 10
91.5378622015
 20
169.1364141442
 10
91.7613700618
 20
169.0519305974
 10
91.9837322688
 20
168.9759360078
 10
92.1999816183
 20
168.910127969
 10
92.4052874572
 20
168.8559765239
 10
92.5950635923
 20
168.8146913263
 10
92.7650707382
 20
168.7871946193
 10
92.9115112164
 20
168.7741006338
 10
93.0311137885
 20
168.7757018679
 10
93.1212067307
 20
168.7919625527
 10
93.1797775155
 20
168.8225194512
 10
93.2055177683
 20
168.866689973
 10
93.1978524946
 20
168.9234874215
 10
93.1569529237
 20
168.9916430356
 10
93.0837326847
 20
169.0696343315
 10
92.9798273965
 20
169.1557191124
 10
92.8475581316
 20
169.2479743868
 10
92.6898795669
 20
169.3443393241
 10
92.5103139809
 20
169.442661291
 10
92.3128725721
 20
169.5407439371
 10
92.1019658553
 20
169.6363962582
 10
91.882305138
 20
169.7274815395
 10
91.6587972778
 20
169.8119650864
 10
91.4364350707
 20
169.887959676
 10
91.2201857212
 20
169.9537677148
 10
91.0148798824
 20
170.0079191598
 10
90.8251037473
 20
170.0492043574
 10
90.6550966013
 20
170.0767010645
 10
90.5086561232
 20
170.0897950499
 10
90.3890535511
 20
170.0881938158
 10
90.2989606089
 20
170.0719331311
 10
90.2403898241
 20
170.0413762325
 10
90.2146495712
 20
169.9972057107
 10
90.222314845
 20
169.9404082622
 10
90.2632144158
 20
169.8722526482
 10
90.3364346549
 20
169.7942613523
 10
90.4403399431
 20
169.7081765713
 10
90.572609208
 20
169.615921297
 10
90.7302877727
 20
169.5195563596
  0
LWPOLYLINE
  5
E8
330
1F
100
AcDbEntity
  8
0
  6
Continuous
 62
     7
100
AcDbPolyline
 90
       17
 70
   128
 43
0.0
 10
191.2809978902
 20
150.8632253336
 10
190.8480410101
 20
150.5138358975
 10
190.4809978902
 20
150.0187403372
 10
190.2357475183
 20
149.4533124637
 10
190.1496270403
 20
148.9036335451
 10
190.2357475183
 20
148.4533872139
 10
190.4809978902
 20
148.1711193926
 10
190.8480410101
 20
148.0998027981
 10
191.2809978902
 20
148.2502947355
 10
191.7139547703
 20
148.5996841716
 10
192.0809978902
 20
149.0947797319
 10
192.3262482621
 20
149.6602076054
 10
192.4123687401
 20
150.209886524
 10
192.3262482621
 20
150.6601328552
 10
192.0809978902
 20
150.9424006766
 10
191.7139547703
 20
151.013717271
 10
191.2809978902
 20
150.8632253336
  0
LWPOLYLINE
  5
E9
330
1F
100
AcDbEntity
  8
0
  6
Continuous
 62
     7
100
AcDbPolyline
 90
       17
 70
   128
 43
0.0
 10
190.6401100436
 20
151.6074551276
 10
189.8866946991
 20
150.7050411232
 10
189.3455493761
 20
149.6278117322
 10
189.0990585445
 20
148.5397653644
 10
189.184748199
 20
147.606547216
 10
189.5895728663
 20
146.9702312905
 10
190.2519016608
 20
146.7276909194
 10
191.0709010274
 20
146.9158506754
 10
191.9218857368
 20
147.5060649415
 10
192.6753010813
 20
148.4084789459
 10
193.2164464043
 20
149.4857083369
 10
193.4629372359
 20
150.5737547047
 10
193.3772475815
 20
151.5069728531
 10
192.9724229141
 20
152.1432887786
 10
192.3100941196
 20
152.3858291498
 10
191.491094753
 20
152.1976693937
 10
190.6401100436
 20
151.6074551276
  0
LINE
  5
EA
330
1F
100
AcDbEntity
  8
0
  6
Continuous
 62
     7
370
    15
100
AcDbLine
 10
186.1128153708
 20
143.5130460136
 30
0.0
 11
189.4633050471
 21
148.0295962655
 31
0.0
  0
LINE
  5
EB
330
1F
100
AcDbEntity
  8
0
  6
Continuous
 62
     7
370
    15
100
AcDbLine
 10
184.4838339114
 20
151.7234922045
 30
0.0
 11
181.133344235
 21
147.2069419527
 31
0.0
  0
LINE
  5
EC
330
1F
100
AcDbEntity
  8
0
  6
Continuous
 62
     7
370
    15
100
AcDbLine
 10
192.6338419537
 20
163.2370854592
 30
0.0
 11
187.345416711
 21
155.7126049175
 31
0.0
  0
LINE
  5
ED
330
1F
100
AcDbEntity
  8
0
  6
Continuous
 62
     7
370
    15
100
AcDbLine
 10
192.4179031772
 20
152.1475129059
 30
0.0
 11
197.7063284198
 21
159.6719934477
 31
0.0
  0
LINE
  5
EE
330
1F
100
AcDbEntity
  8
0
  6
Continuous
 62
     7
370
    15
100
AcDbLine
 10
169.1285224098
 20
150.4441726846
 30
0.0
 11
182.4076165798
 21
148.9246953665
 31
0.0
  0
LINE
  5
EF
330
1F
100
AcDbEntity
  8
0
  6
Continuous
 62
     7
370
    15
100
AcDbLine
 10
183.4581607625
 20
155.044942962
 30
0.0
 11
169.8333659488
 21
156.603977518
 31
0.0
  0
LINE
  5
F0
330
1F
100
AcDbEntity
  8
0
  6
Continuous
 62
     7
370
    15
100
AcDbLine
 10
188.942362036
 20
147.3273510668
 30
0.0
 11
200.691278963
 21
140.5448456946
 31
0.0
  0
LINE
  5
F1
330
1F
100
AcDbEntity
  8
0
  6
Continuous
 62
     7
370
    15
100
AcDbLine
 10
172.4070077155
 20
156.873007931
 30
0.0
 11
173.6244836575
 21
156.17017403
 31
0.0
  0
LINE
  5
F2
330
1F
100
AcDbEntity
  8
0
  6
Continuous
 62
     7
370
    15
100
AcDbLine
 10
182.0244910668
 20
158.47990239
 30
0.0
 11
175.5067557867
 21
162.2425108778
 31
0.0
  0
LINE
  5
F3
330
1F
100
AcDbEntity
  8
0
  6
Continuous
 62
     7
370
    15
100
AcDbLine
 10
203.7910270342
 20
145.9143486413
 30
0.0
 11
192.5840943674
 21
152.38397316
 31
0.0
  0
LINE
  5
F4
330
1F
100
AcDbEntity
  8
0
  6
Continuous
 62
     7
370
    15
100
AcDbLine
 10
178.1378569245
 20
168.497297897
 30
0.0
 11
183.352526015
 21
155.0570303529
 31
0.0
  0
LINE
  5
F5
330
1F
100
AcDbEntity
  8
0
  6
Continuous
 62
     7
370
    15
100
AcDbLine
 10
188.8937420327
 20
157.9155941289
 30
0.0
 11
183.9180422015
 21
170.7399432464
 31
0.0
  0
LWPOLYLINE
  5
F6
330
1F
100
AcDbEntity
  8
0
  6
Continuous
 62
     7
370
    15
100
AcDbPolyline
 90
       43
 70
   128
 43
0.0
 10
182.0674043436
 20
145.5758979398
 10
182.1008711041
 20
145.7985546669
 10
182.1683414916
 20
146.0114146731
 10
182.2683083291
 20
146.2097230174
 10
182.3985385226
 20
146.3890498193
 10
182.5561229449
 20
146.5453892142
 10
182.7375414202
 20
146.6752488385
 10
182.9387413597
 20
146.7757278428
 10
183.1552282892
 20
146.844581692
 10
183.3821662484
 20
146.880272305
 10
183.6144858184
 20
146.8820024125
 10
183.8469973637
 20
146.8497333667
 10
184.0745069607
 20
146.7841860048
 10
184.291932421
 20
146.6868245466
 10
184.4944168191
 20
146.559823886
 10
184.677436988
 20
146.4060210082
 10
184.8369045597
 20
146.228851615
 10
184.9692572922
 20
146.0322733782
 10
185.071538644
 20
145.8206775305
 10
185.1414638188
 20
145.5987907737
 10
185.1774708037
 20
145.3715696911
 10
185.1787552623
 20
145.1440900264
 10
185.1452885017
 20
144.9214332993
 10
185.0778181142
 20
144.7085732932
 10
184.9778512767
 20
144.5102649488
 10
184.8476210832
 20
144.3309381469
 10
184.690036661
 20
144.174598752
 10
184.5086181856
 20
144.0447391277
 10
184.3074182461
 20
143.9442601235
 10
184.0909313166
 20
143.8754062742
 10
183.8639933574
 20
143.8397156612
 10
183.6316737875
 20
143.8379855537
 10
183.3991622421
 20
143.8702545995
 10
183.1716526451
 20
143.9358019614
 10
182.9542271848
 20
144.0331634197
 10
182.7517427868
 20
144.1601640802
 10
182.5687226178
 20
144.3139669581
 10
182.4092550461
 20
144.4911363512
 10
182.2769023137
 20
144.6877145881
 10
182.1746209619
 20
144.8993104357
 10
182.1046957871
 20
145.1211971925
 10
182.0686888021
 20
145.3484182751
 10
182.0674043436
 20
145.5758979398
  0
LWPOLYLINE
  5
F7
330
1F
100
AcDbEntity
  8
0
  6
Continuous
 62
     7
370
    15
100
AcDbPolyline
 90
       60
 70
   128
 43
0.0
 10
180.6089586004
 20
145.7783078992
 10
180.603799768
 20
145.4649433266
 10
180.6328505848
 20
145.1503896361
 10
180.6957818934
 20
144.8382108465
 10
180.7918806571
 20
144.5319440684
 10
180.9200580383
 20
144.2350594267
 10
181.0788617363
 20
143.950920743
 10
181.2664924415
 20
143.6827474222
 10
181.4808242232
 20
143.4335779751
 10
181.7194286166
 20
143.2062355911
 10
181.9796021386
 20
143.0032961503
 10
182.2583969193
 20
142.8270590376
 10
182.5526541023
 20
142.67952109
 10
182.8590396363
 20
142.5623539713
 10
183.1740820506
 20
142.4768852318
 10
183.4942117888
 20
142.4240832665
 10
183.8158016532
 20
142.4045463428
 10
184.135207902
 20
142.4184958217
 10
184.4488115348
 20
142.4657736502
 10
184.7530592971
 20
142.5458441516
 10
185.0445039402
 20
142.657800095
 10
185.3198432799
 20
142.8003729749
 10
185.5759576114
 20
142.9719473835
 10
185.809945057
 20
143.1705793144
 10
186.0191544454
 20
143.3940181883
 10
186.2012153508
 20
143.6397323536
 10
186.3540649502
 20
143.9049377705
 10
186.4759713966
 20
144.1866295556
 10
186.5655534413
 20
144.4816160286
 10
186.6217960839
 20
144.7865548748
 10
186.6440620729
 20
145.0979910153
 10
186.6320991256
 20
145.412395754
 10
186.586042787
 20
145.7262067598
 10
186.5064148939
 20
146.0358684284
 10
186.3941176621
 20
146.3378721696
 10
186.2504234641
 20
146.6287961601
 10
186.0769604126
 20
146.905344115
 10
185.8756939132
 20
147.1643826353
 10
185.6489043959
 20
147.4029767113
 10
185.3991614765
 20
147.6184229766
 10
185.129294842
 20
147.808280339
 10
184.8423621893
 20
147.9703976387
 10
184.5416145799
 20
148.1029380219
 10
184.2304596045
 20
148.2043997532
 10
183.9124227732
 20
148.2736332305
 10
183.5911075705
 20
148.3098540109
 10
183.2701546259
 20
148.3126516984
 10
182.9532004646
 20
148.2819945943
 10
182.6438363039
 20
148.2182300556
 10
182.3455673633
 20
148.1220805601
 10
182.0617731491
 20
147.9946355201
 10
181.7956691632
 20
147.8373389387
 10
181.55027047
 20
147.651973049
 10
181.3283575349
 20
147.4406381207
 10
181.1324447199
 20
147.2057286629
 10
180.9647517956
 20
146.9499062937
 10
180.8271787899
 20
146.6760695827
 10
180.7212844598
 20
146.3873212093
 10
180.6482686305
 20
146.0869328079
 10
180.6089586004
 20
145.7783078992
  0
ELLIPSE
  5
F8
330
1F
100
AcDbEntity
  8
0
  6
Continuous
 62
     7
370
    15
100
AcDbEllipse
 10
188.0990173748
 20
151.3936782862
 30
0.0
 11
-0.7820395337627417
 21
3.770734302639909
 31
0.0
210
0.0
220
0.0
230
1.0
 40
0.4528135456
 41
3.525235823093748
 42
4.498745529640222
  0
ELLIPSE
  5
F9
330
1F
100
AcDbEntity
  8
0
  6
Continuous
 62
     7
370
    15
100
AcDbEllipse
 10
188.0990173749
 20
151.3936782861
 30
0.0
 11
4.078149035754876
 21
1.769139211217293
 31
0.0
210
0.0
220
0.0
230
1.0
 40
0.561570129
 41
1.77234729609603
 42
2.369633916360621
  0
ELLIPSE
  5
FA
330
1F
100
AcDbEntity
  8
0
  6
Continuous
 62
     7
370
    15
100
AcDbEllipse
 10
188.0990173748
 20
151.3936782862
 30
0.0
 11
2.51338627419176
 21
-1.815033588700004
 31
0.0
210
0.0
220
0.0
230
1.0
 40
0.2762237899
 41
0.9699702406958103
 42
2.540766567521084
  0
LWPOLYLINE
  5
FB
330
1F
100
AcDbEntity
  8
0
  6
Continuous
 62
     7
370
    15
100
AcDbPolyline
 90
       60
 70
   128
 43
0.0
 10
193.2717306361
 20
163.8160744671
 10
193.0494865759
 20
163.6681886604
 10
192.8512697454
 20
163.4952213236
 10
192.6793260204
 20
163.2991322459
 10
192.535603592
 20
163.0821431947
 10
192.4217308927
 20
162.8467127427
 10
192.3389981458
 20
162.5955084112
 10
192.2883427463
 20
162.3313764454
 10
192.2703386401
 20
162.0573095661
 10
192.285189821
 20
161.7764130606
 10
192.3327280191
 20
161.4918695985
 10
192.4124146077
 20
161.206903171
 10
192.5233467058
 20
160.9247425615
 10
192.6642674086
 20
160.6485847625
 10
192.833580028
 20
160.3815587521
 10
193.0293661845
 20
160.1266900419
 10
193.2494075427
 20
159.8868663961
 10
193.491210946
 20
159.6648051124
 10
193.7520366653
 20
159.4630222339
 10
194.0289294411
 20
159.2838040413
 10
194.3187519673
 20
159.1291811483
 10
194.6182204392
 20
159.0009054941
 10
194.9239417591
 20
158.9004304931
 10
195.2324519825
 20
158.8288945671
 10
195.5402555651
 20
158.7871082469
 10
195.8438649694
 20
158.7755449881
 10
196.1398401796
 20
158.794335807
 10
196.4248276782
 20
158.8432677963
 10
196.6955984429
 20
158.9217865368
 10
196.949084533
 20
159.0290023799
 10
197.1824138496
 20
159.1637005272
 10
197.3929426783
 20
159.3243547949
 10
197.5782856435
 20
159.509144906
 10
197.7363427352
 20
159.7159771147
 10
197.8653231035
 20
159.9425079294
 10
197.9637653492
 20
160.1861706654
 10
198.0305540824
 20
160.4442045266
 10
198.06493256
 20
160.7136858862
 10
198.0665112601
 20
160.9915614127
 10
198.0352722955
 20
161.2746826655
 10
197.9715696161
 20
161.5598417675
 10
197.8761249986
 20
161.8438077523
 10
197.7500198688
 20
162.1233631717
 10
197.5946830482
 20
162.3953405511
 10
197.411874565
 20
162.6566582781
 10
197.2036657124
 20
162.9043555185
 10
196.9724155798
 20
163.1356257636
 10
196.7207443237
 20
163.347848629
 10
196.45150348
 20
163.538619545
 10
196.1677436549
 20
163.7057770008
 10
195.8726799608
 20
163.8474270356
 10
195.5696555872
 20
163.9619646979
 10
195.2621039212
 20
164.0480922304
 10
194.9535096462
 20
164.1048337735
 10
194.6473692587
 20
164.131546423
 10
194.3471514514
 20
164.1279275138
 10
194.0562578123
 20
164.0940180497
 10
193.7779842823
 20
164.0302022384
 10
193.5154838118
 20
163.9372031386
 10
193.2717306361
 20
163.8160744671
  0
ELLIPSE
  5
FC
330
1F
100
AcDbEntity
  8
0
  6
Continuous
 62
     7
370
    15
100
AcDbEllipse
 10
188.0990173749
 20
151.3936782862
 30
0.0
 11
0.6351109351406592
 21
5.212044233376162
 31
0.0
210
0.0
220
0.0
230
1.0
 40
0.4025305772
 41
0.6449023637799264
 42
1.249267915707514
  0
ELLIPSE
  5
FD
330
1F
100
AcDbEntity
  8
0
  6
Continuous
 62
     7
370
    15
100
AcDbEllipse
 10
188.0990173749
 20
151.3936782862
 30
0.0
 11
4.379715121154277
 21
0.9670312105727419
 31
0.0
210
0.0
220
0.0
230
1.0
 40
0.2018348266
 41
5.099571615732019
 42
6.066002390614753
  0
LWPOLYLINE
  5
FE
330
1F
100
AcDbEntity
  8
0
  6
Continuous
 62
     7
370
    15
100
AcDbPolyline
 90
       43
 70
   128
 43
0.0
 10
194.1902892896
 20
162.6733962347
 10
194.0326107249
 20
162.5624391594
 10
193.90034146
 20
162.4267334355
 10
193.7964361719
 20
162.2693105044
 10
193.7232159328
 20
162.0936869345
 10
193.6823163619
 20
161.903785866
 10
193.6746510882
 20
161.703849375
 10
193.7003913411
 20
161.4983437123
 10
193.7589621259
 20
161.2918595349
 10
193.849055068
 20
161.089009358
 10
193.9686576401
 20
160.8943245195
 10
194.1150981183
 20
160.7121539568
 10
194.2851052642
 20
160.5465670594
 10
194.4748813993
 20
160.4012627648
 10
194.6801872382
 20
160.2794869311
 10
194.8964365877
 20
160.1839598289
 10
195.1187987947
 20
160.116815376
 10
195.342306655
 20
160.0795534685
 10
195.5619673722
 20
160.0730064757
 10
195.772874089
 20
160.0973206468
 10
195.9703154979
 20
160.1519528433
 10
196.1498810838
 20
160.2356826722
 10
196.3075596486
 20
160.3466397475
 10
196.4398289134
 20
160.4823454714
 10
196.5437342016
 20
160.6397684025
 10
196.6169544407
 20
160.8153919724
 10
196.6578540115
 20
161.0052930409
 10
196.6655192853
 20
161.2052295319
 10
196.6397790324
 20
161.4107351946
 10
196.5812082476
 20
161.617219372
 10
196.4911153054
 20
161.8200695489
 10
196.3715127334
 20
162.0147543874
 10
196.2250722552
 20
162.1969249501
 10
196.0550651092
 20
162.3625118475
 10
195.8652889742
 20
162.5078161421
 10
195.6599831353
 20
162.6295919758
 10
195.4437337858
 20
162.725119078
 10
195.2213715788
 20
162.7922635309
 10
194.9978637185
 20
162.8295254384
 10
194.7782030012
 20
162.8360724312
 10
194.5672962844
 20
162.8117582601
 10
194.3698548756
 20
162.7571260636
 10
194.1902892896
 20
162.6733962347
  0
LWPOLYLINE
  5
FF
330
1F
100
AcDbEntity
  8
0
  6
Continuous
 62
     7
370
    15
100
AcDbPolyline
 90
       60
 70
   128
 43
0.0
 10
170.2055636495
 20
151.7840599684
 10
170.1089723776
 20
151.5234782196
 10
170.0052652952
 20
151.2855640329
 10
169.8956174451
 20
151.073013071
 10
169.7812711812
 20
150.8882336214
 10
169.6635220924
 20
150.733319309
 10
169.5437043228
 20
150.6100253748
 10
169.4231754558
 20
150.5197487884
 10
169.3033011314
 20
150.4635124196
 10
169.1854395738
 20
150.4419534489
 10
169.0709262014
 20
150.4553161481
 10
168.9610584966
 20
150.5034491125
 10
168.8570813043
 20
150.5858069763
 10
168.7601727276
 20
150.701456592
 10
168.6714307795
 20
150.8490876033
 10
168.5918609417
 20
151.0270272918
 10
168.5223647722
 20
151.2332595297
 10
168.4637296904
 20
151.4654476235
 10
168.4166200552
 20
151.7209607892
 10
168.3815696377
 20
151.9969039605
 10
168.358975573
 20
152.290150591
 10
168.3490938609
 20
152.5973780793
 10
168.3520364652
 20
152.9151054152
 10
168.3677700449
 20
153.2397326209
 10
168.3961163325
 20
153.5675815406
 10
168.436754153
 20
153.8949375149
 10
168.4892230637
 20
154.2180914699
 10
168.5529285709
 20
154.5333819421
 10
168.6271488658
 20
154.8372365645
 10
168.7110430028
 20
155.1262125428
 10
168.8036604277
 20
155.3970356637
 10
168.9039517482
 20
155.6466373931
 10
169.0107806234
 20
155.8721896435
 10
169.1229366396
 20
156.0711368179
 10
169.2391490243
 20
156.2412247654
 10
169.3581010447
 20
156.3805263214
 10
169.4784449269
 20
156.4874631437
 10
169.5988171267
 20
156.5608235954
 10
169.7178537788
 20
156.5997764732
 10
169.8342061505
 20
156.6038804255
 10
169.9465559229
 20
156.5730889528
 10
170.0536301283
 20
156.5077509349
 10
170.1542155729
 20
156.4086066775
 10
170.2471725837
 20
156.2767795248
 10
170.3314479205
 20
156.1137631311
 10
170.40608671
 20
155.9214045372
 10
170.470243265
 20
155.7018832429
 10
170.523190666
 20
155.4576865121
 10
170.5643289979
 20
155.1915811914
 10
170.5931921469
 20
154.9065823604
 10
170.609453082
 20
154.6059191697
 10
170.6129275603
 20
154.2929982534
 10
170.6035762146
 20
153.9713651306
 10
170.5815049993
 20
153.644664033
 10
170.5469639902
 20
153.3165966147
 10
170.5003445507
 20
152.9908800105
 10
170.4421748976
 20
152.6712047197
 10
170.3731141164
 20
152.3611927912
 10
170.2939446933
 20
152.0643567839
 10
170.2055636495
 20
151.7840599684
  0
ELLIPSE
  5
100
330
1F
100
AcDbEntity
  8
0
  6
Continuous
 62
     7
370
    15
100
AcDbEllipse
 10
188.0990173748
 20
151.3936782862
 30
0.0
 11
4.710330120980132
 21
-3.635442746191899
 31
0.0
210
0.0
220
0.0
230
1.0
 40
0.0749898084
 41
2.017687187100684
 42
3.01807574593978
  0
LWPOLYLINE
  5
101
330
1F
100
AcDbEntity
  8
0
  6
Continuous
 62
     7
370
    15
100
AcDbPolyline
 90
       24
 70
   128
 43
0.0
 10
173.9568817511
 20
162.0890359212
 10
173.7238831332
 20
161.940188495
 10
173.4935244827
 20
161.7643471951
 10
173.2684158552
 20
161.5635043739
 10
173.0511078214
 20
161.3399356608
 10
172.8440625681
 20
161.0961741785
 10
172.6496260009
 20
160.8349818421
 10
172.4700011637
 20
160.5593180652
 10
172.3072232776
 20
160.2723062284
 10
172.1631366812
 20
159.9771982906
 10
172.0393739332
 20
159.6773379426
 10
171.937337315
 20
159.376122722
 10
171.8581829422
 20
159.0769655175
 10
171.8028076655
 20
158.7832559
 10
171.7718389089
 20
158.4983217166
 10
171.7656275609
 20
158.2253913855
 10
171.7842439983
 20
157.9675573165
 10
171.8274772897
 20
157.7277408725
 10
171.8948375845
 20
157.5086592698
 10
171.9855616636
 20
157.3127947904
 10
172.0986215871
 20
157.142366657
 10
172.2327363407
 20
156.9993058887
 10
172.3863863507
 20
156.885233421
 10
172.4070077155
 20
156.873007931
  0
ARC
  5
102
330
1F
100
AcDbEntity
  8
0
  6
Continuous
 62
     7
370
    15
100
AcDbCircle
 10
174.8624806588
 20
160.8462781859
 30
0.0
 40
1.53771134167796
100
AcDbArc
 50
65.2295944331
 51
126.080863996
  0
LWPOLYLINE
  5
103
330
1F
100
AcDbEntity
  8
0
  6
Continuous
 62
     7
370
    15
100
AcDbPolyline
 90
       60
 70
   128
 43
0.0
 10
202.2411529986
 20
145.7608736848
 10
202.0081543807
 20
145.6120262585
 10
201.7777957302
 20
145.4361849587
 10
201.5526871027
 20
145.2353421375
 10
201.3353790689
 20
145.0117734243
 10
201.1283338156
 20
144.7680119421
 10
200.9338972484
 20
144.5068196057
 10
200.7542724111
 20
144.2311558287
 10
200.5914945251
 20
143.9441439919
 10
200.4474079287
 20
143.6490360541
 10
200.3236451807
 20
143.3491757061
 10
200.2216085625
 20
143.0479604855
 10
200.1424541897
 20
142.7488032811
 10
200.087078913
 20
142.4550936635
 10
200.0561101564
 20
142.1701594801
 10
200.0498988083
 20
141.8972291491
 10
200.0685152458
 20
141.63939508
 10
200.1117485372
 20
141.3995786361
 10
200.179108832
 20
141.1804970334
 10
200.2698329111
 20
140.9846325539
 10
200.3828928345
 20
140.8142044206
 10
200.5170075881
 20
140.6711436522
 10
200.6706575982
 20
140.5570711845
 10
200.8421019486
 20
140.4732795041
 10
201.0293981065
 20
140.4207180042
 10
201.2304239316
 20
140.3999822275
 10
201.4429017208
 20
140.4113071188
 10
201.6644240159
 20
140.4545643625
 10
201.8924808809
 20
140.5292638367
 10
202.1244883403
 20
140.6345591666
 10
202.3578176569
 20
140.7692573139
 10
202.5898251163
 20
140.9318320949
 10
202.8178819813
 20
141.1204414723
 10
203.0394042764
 20
141.3329484265
 10
203.2518820656
 20
141.5669451688
 10
203.4529078907
 20
141.8197804226
 10
203.6402040486
 20
142.0885894635
 10
203.811648399
 20
142.3703265776
 10
203.9652984091
 20
142.6617995709
 10
204.0994131627
 20
142.9597059378
 10
204.2124730861
 20
143.2606702801
 10
204.3031971652
 20
143.5612825517
 10
204.37055746
 20
143.8581366954
 10
204.4137907514
 20
144.147869235
 10
204.4324071889
 20
144.4271973853
 10
204.4261958408
 20
144.6929562465
 10
204.3952270842
 20
144.9421346646
 10
204.3398518075
 20
145.1719093486
 10
204.2606974347
 20
145.3796768595
 10
204.1586608165
 20
145.5630831083
 10
204.0348980685
 20
145.7200500291
 10
203.8908114721
 20
145.8487991237
 10
203.7280335861
 20
145.9478716137
 10
203.5484087488
 20
146.016144968
 10
203.3539721816
 20
146.0528456223
 10
203.1469269283
 20
146.0575577435
 10
202.9296188945
 20
146.0302279413
 10
202.704510267
 20
145.9711658734
 10
202.4741516165
 20
145.8810407367
 10
202.2411529986
 20
145.7608736848
  0
LWPOLYLINE
  5
104
330
1F
100
AcDbEntity
  8
0
  6
Continuous
 62
     7
370
    15
100
AcDbPolyline
 90
       43
 70
   128
 43
0.0
 10
202.2411529986
 20
144.536062467
 10
202.0725309232
 20
144.4241268769
 10
201.9076755864
 20
144.2855074671
 10
201.7502695839
 20
144.123300766
 10
201.6038291057
 20
143.9411302033
 10
201.4716253902
 20
143.7430651684
 10
201.3566116498
 20
143.5335301069
 10
201.2613571015
 20
143.3172056857
 10
201.1879895744
 20
143.098924235
 10
201.138147978
 20
142.8835618017
 10
201.1129456911
 20
142.6759292267
 10
201.1129456911
 20
142.4806646785
 10
201.138147978
 20
142.3021300447
 10
201.1879895744
 20
142.1443134937
 10
201.2613571015
 20
142.0107403867
 10
201.3566116498
 20
141.904394526
 10
201.4716253902
 20
141.8276515026
 10
201.6038291057
 20
141.7822256286
 10
201.7502695839
 20
141.7691316432
 10
201.9076755864
 20
141.7886620442
 10
202.0725309232
 20
141.8403805548
 10
202.2411529986
 20
141.9231318689
 10
202.409775074
 20
142.035067459
 10
202.5746304108
 20
142.1736868688
 10
202.7320364133
 20
142.3358935699
 10
202.8784768915
 20
142.5180641326
 10
203.010680607
 20
142.7161291675
 10
203.1256943474
 20
142.925664229
 10
203.2209488957
 20
143.1419886502
 10
203.2943164227
 20
143.3602701009
 10
203.3441580192
 20
143.5756325342
 10
203.3693603061
 20
143.7832651092
 10
203.3693603061
 20
143.9785296573
 10
203.3441580192
 20
144.1570642912
 10
203.2943164227
 20
144.3148808422
 10
203.2209488957
 20
144.4484539492
 10
203.1256943474
 20
144.5547998098
 10
203.010680607
 20
144.6315428333
 10
202.8784768915
 20
144.6769687072
 10
202.7320364133
 20
144.6900626927
 10
202.5746304108
 20
144.6705322917
 10
202.409775074
 20
144.6188137811
 10
202.2411529986
 20
144.536062467
  0
LWPOLYLINE
  5
105
330
1F
100
AcDbEntity
  8
0
  6
Continuous
 62
     7
370
    15
100
AcDbPolyline
 90
       43
 70
   128
 43
0.0
 10
169.1069470333
 20
154.422147428
 10
169.0441916527
 20
154.2163986613
 10
168.9911926019
 20
153.9951845303
 10
168.949133792
 20
153.7634465932
 10
168.9189547474
 20
153.5263614925
 10
168.9013296181
 20
153.2892253176
 10
168.8966521202
 20
153.0573352988
 10
168.9050267414
 20
152.8358714759
 10
168.9262664065
 20
152.6297809847
 10
168.9598966565
 20
152.4436675464
 10
169.0051662472
 20
152.2816886275
 10
169.0610639306
 20
152.1474625695
 10
169.126341045
 20
152.0439877606
 10
169.1995394074
 20
151.9735756572
 10
169.2790238874
 20
151.9377991492
 10
169.363018933
 20
151.9374574247
 10
169.4496482338
 20
151.9725581174
 10
169.5369766344
 20
152.0423171356
 10
169.6230533624
 20
152.1451761783
 10
169.7059556061
 20
152.2788375443
 10
169.7838314664
 20
152.4403154597
 10
169.8549413252
 20
152.6260027746
 10
169.9176967057
 20
152.8317515413
 10
169.9706957566
 20
153.0529656723
 10
170.0127545664
 20
153.2847036094
 10
170.0429336111
 20
153.5217887101
 10
170.0605587404
 20
153.758924885
 10
170.0652362383
 20
153.9908149039
 10
170.0568616171
 20
154.2122787268
 10
170.0356219519
 20
154.4183692179
 10
170.001991702
 20
154.6044826562
 10
169.9567221113
 20
154.7664615751
 10
169.9008244279
 20
154.9006876332
 10
169.8355473135
 20
155.004162442
 10
169.7623489511
 20
155.0745745455
 10
169.6828644711
 20
155.1103510534
 10
169.5988694254
 20
155.1106927779
 10
169.5122401246
 20
155.0755920853
 10
169.4249117241
 20
155.005833067
 10
169.3388349961
 20
154.9029740243
 10
169.2559327523
 20
154.7693126583
 10
169.1780568921
 20
154.6078347429
 10
169.1069470333
 20
154.422147428
  0
LWPOLYLINE
  5
106
330
1F
100
AcDbEntity
  8
0
  6
Continuous
 62
     7
370
    15
100
AcDbPolyline
 90
       60
 70
   128
 43
0.0
 10
182.9263041137
 20
169.7883620748
 10
182.6825509379
 20
169.6528932162
 10
182.4200504674
 20
169.5170360349
 10
182.1417769375
 20
169.3823298469
 10
181.8508832983
 20
169.2503009273
 10
181.5506654911
 20
169.1224452164
 10
181.2445251035
 20
169.0002113705
 10
180.9359308285
 20
168.884984348
 10
180.6283791626
 20
168.7780697171
 10
180.3253547889
 20
168.6806788632
 10
180.0302910948
 20
168.5939152636
 10
179.7465312698
 20
168.5187619847
 10
179.477290426
 20
168.456070543
 10
179.2256191699
 20
168.4065512577
 10
178.9943690374
 20
168.370765202
 10
178.7861601847
 20
168.3491178463
 10
178.6033517015
 20
168.3418544637
 10
178.4480148809
 20
168.3490573513
 10
178.3219097511
 20
168.3706448974
 10
178.2264651337
 20
168.4063725067
 10
178.1627624542
 20
168.4558353708
 10
178.1315234896
 20
168.518473056
 10
178.1331021897
 20
168.5935758521
 10
178.1674806674
 20
168.6802928144
 10
178.2342694005
 20
168.7776414052
 10
178.3327116462
 20
168.884518626
 10
178.4616920145
 20
168.9997135151
 10
178.6197491062
 20
169.1219208685
 10
178.8050920714
 20
169.249756028
 10
179.0156209002
 20
169.3817705702
 10
179.2489502167
 20
169.5164687176
 10
179.5024363068
 20
169.6523242862
 10
179.7732070716
 20
169.7877979783
 10
180.0581945702
 20
169.9213548228
 10
180.3541697803
 20
170.0514815673
 10
180.6577791846
 20
170.1767038237
 10
180.9655827673
 20
170.2956027739
 10
181.2740929906
 20
170.4068312452
 10
181.5798143105
 20
170.5091289746
 10
181.8792827824
 20
170.601336888
 10
182.1691053087
 20
170.6824102329
 10
182.4459980844
 20
170.7514304158
 10
182.7068238037
 20
170.8076154105
 10
182.9486272071
 20
170.8503286187
 10
183.1686685653
 20
170.8790860824
 10
183.3644547217
 20
170.8935619683
 10
183.5337673412
 20
170.8935922588
 10
183.6746880439
 20
170.8791766105
 10
183.7856201421
 20
170.8504783587
 10
183.8653067306
 20
170.8078226659
 10
183.9128449288
 20
170.7516928382
 10
183.9276961096
 20
170.6827248489
 10
183.9096920035
 20
170.601700133
 10
183.859036604
 20
170.5095367329
 10
183.776303857
 20
170.4072788966
 10
183.6624311578
 20
170.2960852464
 10
183.5187087294
 20
170.1772156507
 10
183.3467650043
 20
170.0520169496
 10
183.1485481738
 20
169.9219076944
 10
182.9263041137
 20
169.7883620748
  0
LWPOLYLINE
  5
107
330
1F
100
AcDbEntity
  8
0
  6
Continuous
 62
     7
370
    15
100
AcDbPolyline
 90
       43
 70
   128
 43
0.0
 10
182.0077454601
 20
169.7062290894
 10
181.8281798741
 20
169.6079071226
 10
181.6307384653
 20
169.5098244765
 10
181.4198317485
 20
169.4141721554
 10
181.2001710313
 20
169.323086874
 10
180.976663171
 20
169.2386033272
 10
180.754300964
 20
169.1626087376
 10
180.5380516144
 20
169.0968006988
 10
180.3327457756
 20
169.0426492537
 10
180.1429696405
 20
169.0013640561
 10
179.9729624945
 20
168.9738673491
 10
179.8265220164
 20
168.9607733636
 10
179.7069194443
 20
168.9623745977
 10
179.6168265021
 20
168.9786352825
 10
179.5582557173
 20
169.009192181
 10
179.5325154644
 20
169.0533627028
 10
179.5401807382
 20
169.1101601513
 10
179.581080309
 20
169.1783157654
 10
179.6543005481
 20
169.2563070613
 10
179.7582058363
 20
169.3423918422
 10
179.8904751012
 20
169.4346471166
 10
180.0481536659
 20
169.5310120539
 10
180.2277192519
 20
169.6293340208
 10
180.4251606607
 20
169.7274166669
 10
180.6360673775
 20
169.823068988
 10
180.8557280947
 20
169.9141542693
 10
181.079235955
 20
169.9986378162
 10
181.301598162
 20
170.0746324058
 10
181.5178475116
 20
170.1404404446
 10
181.7231533504
 20
170.1945918896
 10
181.9129294855
 20
170.2358770872
 10
182.0829366315
 20
170.2633737943
 10
182.2293771096
 20
170.2764677797
 10
182.3489796817
 20
170.2748665456
 10
182.4390726239
 20
170.2586058609
 10
182.4976434087
 20
170.2280489623
 10
182.5233836616
 20
170.1838784405
 10
182.5157183878
 20
170.127080992
 10
182.474818817
 20
170.058925378
 10
182.4015985779
 20
169.9809340821
 10
182.2976932897
 20
169.8948493011
 10
182.1654240248
 20
169.8025940268
 10
182.0077454601
 20
169.7062290894
  0
LWPOLYLINE
  5
108
330
1F
100
AcDbEntity
  8
0
  6
Continuous
 62
     7
100
AcDbPolyline
 90
       17
 70
   128
 43
0.0
 10
192.579990674
 20
77.8996715633
 10
192.1470337939
 20
78.0501635008
 10
191.779990674
 20
77.9788469063
 10
191.5347403021
 20
77.696579085
 10
191.4486198241
 20
77.2463327538
 10
191.5347403021
 20
76.6966538352
 10
191.779990674
 20
76.1312259617
 10
192.1470337939
 20
75.6361304014
 10
192.579990674
 20
75.2867409653
 10
193.0129475542
 20
75.1362490279
 10
193.379990674
 20
75.2075656223
 10
193.6252410459
 20
75.4898334437
 10
193.7113615239
 20
75.9400797749
 10
193.6252410459
 20
76.4897586935
 10
193.379990674
 20
77.055186567
 10
193.0129475542
 20
77.5502821273
 10
192.579990674
 20
77.8996715633
  0
LWPOLYLINE
  5
109
330
1F
100
AcDbEntity
  8
0
  6
Continuous
 62
     7
100
AcDbPolyline
 90
       17
 70
   128
 43
0.0
 10
191.9391028274
 20
79.3838547147
 10
191.185687483
 20
79.3513155512
 10
190.64454216
 20
78.8988792511
 10
190.3980513284
 20
78.0954251397
 10
190.4837409828
 20
77.0632718222
 10
190.8885656502
 20
75.9595552847
 10
191.5508944446
 20
74.9523063647
 10
192.3698938112
 20
74.1948695797
 10
193.2208785207
 20
73.8025578139
 10
193.9742938651
 20
73.8350969774
 10
194.5154391881
 20
74.2875332776
 10
194.7619300197
 20
75.090987389
 10
194.6762403653
 20
76.1231407065
 10
194.2714156979
 20
77.226857244
 10
193.6090869035
 20
78.2341061639
 10
192.7900875369
 20
78.991542949
 10
191.9391028274
 20
79.3838547147
  0
LINE
  5
10A
330
1F
100
AcDbEntity
  8
0
  6
Continuous
 62
     7
370
    15
100
AcDbLine
 10
181.9443240273
 20
89.3565911488
 30
0.0
 11
185.3203219278
 21
77.6940863905
 31
0.0
  0
LINE
  5
10B
330
1F
100
AcDbEntity
  8
0
  6
Continuous
 62
     7
370
    15
100
AcDbLine
 10
191.2758190468
 20
79.4180510263
 30
0.0
 11
187.8998211462
 21
91.0805557847
 31
0.0
  0
LINE
  5
10C
330
1F
100
AcDbEntity
  8
0
  6
Continuous
 62
     7
370
    15
100
AcDbLine
 10
176.8057485706
 20
63.9074554211
 30
0.0
 11
205.090019818
 21
80.2356176576
 31
0.0
  0
LINE
  5
10D
330
1F
100
AcDbEntity
  8
0
  6
Continuous
 62
     7
370
    15
100
AcDbLine
 10
182.2699182448
 20
74.2208028496
 30
0.0
 11
173.7060004994
 21
69.2769583679
 31
0.0
  0
LINE
  5
10E
330
1F
100
AcDbEntity
  8
0
  6
Continuous
 62
     7
370
    15
100
AcDbLine
 10
201.9902717468
 20
85.6051206043
 30
0.0
 11
191.2753855723
 21
79.4195484794
 31
0.0
  0
LINE
  5
10F
330
1F
100
AcDbEntity
  8
0
  6
Continuous
 62
     7
370
    15
100
AcDbLine
 10
169.6485688204
 20
79.1683173495
 30
0.0
 11
184.58371452
 21
73.3138046963
 31
0.0
  0
LINE
  5
110
330
1F
100
AcDbEntity
  8
0
  6
Continuous
 62
     7
370
    15
100
AcDbLine
 10
184.6704351262
 20
79.939143449
 30
0.0
 11
171.9113051058
 21
84.9406673477
 31
0.0
  0
LINE
  5
111
330
1F
100
AcDbEntity
  8
0
  6
Continuous
 62
     7
370
    15
100
AcDbLine
 10
193.578985332
 20
94.1025529729
 30
0.0
 11
189.8254826002
 21
84.428289838
 31
0.0
  0
LINE
  5
112
330
1F
100
AcDbEntity
  8
0
  6
Continuous
 62
     7
370
    15
100
AcDbLine
 10
195.4725364668
 20
81.8425121165
 30
0.0
 11
199.3591706091
 21
91.8599076235
 31
0.0
  0
LINE
  5
113
330
1F
100
AcDbEntity
  8
0
  6
Continuous
 62
     7
370
    15
100
AcDbLine
 10
179.7906991138
 20
83.0346031742
 30
0.0
 11
180.9379591532
 21
81.4022579207
 31
0.0
  0
ELLIPSE
  5
114
330
1F
100
AcDbEntity
  8
0
  6
Continuous
 62
     7
370
    15
100
AcDbEllipse
 10
189.3980101587
 20
74.7562880127
 30
0.0
 11
1.877146240661318
 21
4.662691218102296
 31
0.0
210
0.0
220
0.0
230
1.0
 40
0.0122410669
 41
4.282371661155148
 42
6.267560108554131
  0
ELLIPSE
  5
115
330
1F
100
AcDbEntity
  8
0
  6
Continuous
 62
     7
370
    15
100
AcDbEllipse
 10
189.3980101587
 20
74.7562880128
 30
0.0
 11
-3.958551841408479
 21
4.339772883534252
 31
0.0
210
0.0
220
0.0
230
1.0
 40
0.3216250305
 41
0.5784109704394923
 42
1.734815176799369
  0
LWPOLYLINE
  5
116
330
1F
100
AcDbEntity
  8
0
  6
Continuous
 62
     7
370
    15
100
AcDbPolyline
 90
       60
 70
   128
 43
0.0
 10
181.9079513843
 20
89.8002595506
 10
181.9027925518
 20
89.5984168868
 10
181.9318433686
 20
89.4036008449
 10
181.9947746772
 20
89.2180187684
 10
182.0908734409
 20
89.0437733764
 10
182.2190508222
 20
88.8828389389
 10
182.3778545201
 20
88.7370389073
 10
182.5654852254
 20
88.6080252542
 10
182.7798170071
 20
88.497259756
 10
183.0184214005
 20
88.4059974299
 10
183.2785949225
 20
88.3352723146
 10
183.5573897031
 20
88.2858857538
 10
183.8516468862
 20
88.2583973171
 10
184.1580324201
 20
88.2531184594
 10
184.4730748344
 20
88.2701089923
 10
184.7932045727
 20
88.3091764063
 10
185.114794437
 20
88.3698780519
 10
185.4342006858
 20
88.4515261553
 10
185.7478043186
 20
88.5531956108
 10
186.0520520809
 20
88.6737344628
 10
186.3434967241
 20
88.8117769581
 10
186.6188360637
 20
88.9657590199
 10
186.8749503952
 20
89.13393597
 10
187.1089378408
 20
89.3144022964
 10
187.3181472293
 20
89.5051132433
 10
187.5002081346
 20
89.7039079797
 10
187.653057734
 20
89.9085340818
 10
187.7749641804
 20
90.1166730539
 10
187.8645462251
 20
90.3259665984
 10
187.9207888678
 20
90.5340433359
 10
187.9430548567
 20
90.7385456736
 10
187.9310919094
 20
90.9371565185
 10
187.8850355709
 20
91.1276255303
 10
187.8054076778
 20
91.307794619
 10
187.6931104459
 20
91.4756223968
 10
187.5494162479
 20
91.6292073079
 10
187.3759531964
 20
91.7668091739
 10
187.1746866971
 20
91.8868689107
 10
186.9478971797
 20
91.9880261936
 10
186.6981542603
 20
92.0691348699
 10
186.4282876258
 20
92.1292759462
 10
186.1413549731
 20
92.1677679999
 10
185.8406073637
 20
92.1841749006
 10
185.5294523883
 20
92.1783107517
 10
185.211415557
 20
92.1502419963
 10
184.8901003543
 20
92.1002866646
 10
184.5691474097
 20
92.0290107705
 10
184.2521932485
 20
91.9372218983
 10
183.9428290877
 20
91.8259600526
 10
183.6445601472
 20
91.6964858747
 10
183.360765933
 20
91.5502663586
 10
183.0946619471
 20
91.3889582299
 10
182.8492632539
 20
91.2143891742
 10
182.6273503187
 20
91.0285371287
 10
182.4314375037
 20
90.8335078711
 10
182.2637445795
 20
90.6315111611
 10
182.1261715737
 20
90.424835702
 10
182.0202772437
 20
90.2158232094
 10
181.9472614144
 20
90.0068418783
 10
181.9079513843
 20
89.8002595506
  0
LWPOLYLINE
  5
117
330
1F
100
AcDbEntity
  8
0
  6
Continuous
 62
     7
370
    15
100
AcDbPolyline
 90
       43
 70
   128
 43
0.0
 10
183.3663971274
 20
90.00266951
 10
183.399863888
 20
90.152870417
 10
183.4673342755
 20
90.3045390216
 10
183.5673011129
 20
90.4542872977
 10
183.6975313065
 20
90.5987701163
 10
183.8551157287
 20
90.73475997
 10
184.0365342041
 20
90.8592190703
 10
184.2377341436
 20
90.9693672063
 10
184.4542210731
 20
91.0627438509
 10
184.6811590323
 20
91.1372631241
 10
184.9134786022
 20
91.1912603884
 10
185.1459901475
 20
91.2235294341
 10
185.3734997446
 20
91.2333494243
 10
185.5909252049
 20
91.2205009963
 10
185.7934096029
 20
91.1852711631
 10
185.9764297719
 20
91.1284469006
 10
186.1358973436
 20
91.0512975692
 10
186.268250076
 20
90.9555465574
 10
186.3705314278
 20
90.8433327846
 10
186.4404566026
 20
90.717162921
 10
186.4764635876
 20
90.5798553928
 10
186.4777480461
 20
90.4344774235
 10
186.4442812856
 20
90.2842765165
 10
186.3768108981
 20
90.1326079119
 10
186.2768440606
 20
89.9828596358
 10
186.146613867
 20
89.8383768172
 10
185.9890294448
 20
89.7023869635
 10
185.8076109695
 20
89.5779278632
 10
185.6064110299
 20
89.4677797272
 10
185.3899241004
 20
89.3744030826
 10
185.1629861412
 20
89.2998838094
 10
184.9306665713
 20
89.2458865451
 10
184.698155026
 20
89.2136174994
 10
184.4706454289
 20
89.2037975092
 10
184.2532199686
 20
89.2166459372
 10
184.0507355706
 20
89.2518757705
 10
183.8677154016
 20
89.3087000329
 10
183.7082478299
 20
89.3858493643
 10
183.5758950975
 20
89.4816003761
 10
183.4736137457
 20
89.5938141489
 10
183.4036885709
 20
89.7199840125
 10
183.3676815859
 20
89.8572915407
 10
183.3663971274
 20
90.00266951
  0
ELLIPSE
  5
118
330
1F
100
AcDbEntity
  8
0
  6
Continuous
 62
     7
370
    15
100
AcDbEllipse
 10
189.3980101587
 20
74.7562880127
 30
0.0
 11
5.906966724486864
 21
0.4437503160935137
 31
0.0
210
0.0
220
0.0
230
1.0
 40
0.3250728369
 41
3.735628822786972
 42
4.56399532915254
  0
LWPOLYLINE
  5
119
330
1F
100
AcDbEntity
  8
0
  6
Continuous
 62
     7
370
    15
100
AcDbPolyline
 90
       31
 70
   128
 43
0.0
 10
173.7060004994
 20
69.2769583679
 10
173.6062160614
 20
69.2114088503
 10
173.4621294651
 20
69.0826597556
 10
173.3383667171
 20
68.9256928349
 10
173.2363300988
 20
68.742286586
 10
173.157175726
 20
68.5345190752
 10
173.1018004494
 20
68.3047443912
 10
173.0708316928
 20
68.055565973
 10
173.0646203447
 20
67.7898071118
 10
173.0832367822
 20
67.5104789616
 10
173.1264700735
 20
67.2207464219
 10
173.1938303683
 20
66.9238922783
 10
173.2845544475
 20
66.6232800067
 10
173.3976143709
 20
66.3223156643
 10
173.5317291245
 20
66.0244092974
 10
173.6853791345
 20
65.7329363042
 10
173.856823485
 20
65.4511991901
 10
174.0441196429
 20
65.1823901492
 10
174.2451454679
 20
64.9295548954
 10
174.4576232571
 20
64.6955581531
 10
174.6791455523
 20
64.4830511989
 10
174.9072024173
 20
64.2944418215
 10
175.1392098767
 20
64.1318670405
 10
175.3725391933
 20
63.9971688931
 10
175.6045466527
 20
63.8918735633
 10
175.8326035176
 20
63.8171740891
 10
176.0541258128
 20
63.7739168454
 10
176.266603602
 20
63.7625919541
 10
176.467629427
 20
63.7833277307
 10
176.6549255849
 20
63.8358892306
 10
176.8057485706
 20
63.9074554211
  0
LWPOLYLINE
  5
11A
330
1F
100
AcDbEntity
  8
0
  6
Continuous
 62
     7
370
    15
100
AcDbPolyline
 90
       60
 70
   128
 43
0.0
 10
203.5401457824
 20
85.4516456478
 10
203.3071471645
 20
85.5718126997
 10
203.076788514
 20
85.6619378365
 10
202.8516798865
 20
85.7209999043
 10
202.6343718527
 20
85.7483297065
 10
202.4273265994
 20
85.7436175853
 10
202.2328900322
 20
85.706916931
 10
202.053265195
 20
85.6386435767
 10
201.8904873089
 20
85.5395710868
 10
201.7464007125
 20
85.4108219921
 10
201.6226379645
 20
85.2538550713
 10
201.5206013463
 20
85.0704488225
 10
201.4414469735
 20
84.8626813116
 10
201.3860716968
 20
84.6329066276
 10
201.3551029402
 20
84.3837282095
 10
201.3488915922
 20
84.1179693483
 10
201.3675080296
 20
83.838641198
 10
201.410741321
 20
83.5489086584
 10
201.4781016158
 20
83.2520545147
 10
201.5688256949
 20
82.9514422431
 10
201.6818856184
 20
82.6504779008
 10
201.816000372
 20
82.3525715339
 10
201.969650382
 20
82.0610985406
 10
202.1410947325
 20
81.7793614265
 10
202.3283908904
 20
81.5105523857
 10
202.5294167154
 20
81.2577171318
 10
202.7418945046
 20
81.0237203895
 10
202.9634167998
 20
80.8112134353
 10
203.1914736647
 20
80.6226040579
 10
203.4234811241
 20
80.4600292769
 10
203.6568104407
 20
80.3253311296
 10
203.8888179001
 20
80.2200357997
 10
204.1168747651
 20
80.1453363255
 10
204.3383970603
 20
80.1020790818
 10
204.5508748495
 20
80.0907541905
 10
204.7519006745
 20
80.1114899672
 10
204.9391968324
 20
80.1640514671
 10
205.1106411829
 20
80.2478431475
 10
205.2642911929
 20
80.3619156152
 10
205.3984059465
 20
80.5049763836
 10
205.5114658699
 20
80.6754045169
 10
205.6021899491
 20
80.8712689964
 10
205.6695502439
 20
81.0903505991
 10
205.7127835352
 20
81.3301670431
 10
205.7313999727
 20
81.5880011121
 10
205.7251886246
 20
81.8609314431
 10
205.6942198681
 20
82.1458656265
 10
205.6388445914
 20
82.4395752441
 10
205.5596902186
 20
82.7387324485
 10
205.4576536003
 20
83.0399476691
 10
205.3338908523
 20
83.3398080171
 10
205.189804256
 20
83.6349159549
 10
205.0270263699
 20
83.9219277917
 10
204.8474015327
 20
84.1975915687
 10
204.6529649654
 20
84.4587839051
 10
204.4459197122
 20
84.7025453873
 10
204.2286116784
 20
84.9261141005
 10
204.0035030509
 20
85.1269569217
 10
203.7731444004
 20
85.3027982215
 10
203.5401457824
 20
85.4516456478
  0
LWPOLYLINE
  5
11B
330
1F
100
AcDbEntity
  8
0
  6
Continuous
 62
     7
370
    15
100
AcDbPolyline
 90
       43
 70
   128
 43
0.0
 10
203.5401457824
 20
84.22683443
 10
203.3715237071
 20
84.3095857441
 10
203.2066683702
 20
84.3613042547
 10
203.0492623677
 20
84.3808346557
 10
202.9028218896
 20
84.3677406703
 10
202.770618174
 20
84.3223147963
 10
202.6556044336
 20
84.2455717729
 10
202.5603498853
 20
84.1392259122
 10
202.4869823583
 20
84.0056528052
 10
202.4371407618
 20
83.8478362542
 10
202.4119384749
 20
83.6693016203
 10
202.4119384749
 20
83.4740370722
 10
202.4371407618
 20
83.2664044972
 10
202.4869823583
 20
83.0510420639
 10
202.5603498853
 20
82.8327606132
 10
202.6556044336
 20
82.616436192
 10
202.770618174
 20
82.4069011305
 10
202.9028218896
 20
82.2088360956
 10
203.0492623677
 20
82.0266655329
 10
203.2066683702
 20
81.8644588318
 10
203.3715237071
 20
81.725839422
 10
203.5401457824
 20
81.6139038319
 10
203.7087678578
 20
81.5311525178
 10
203.8736231946
 20
81.4794340072
 10
204.0310291971
 20
81.4599036062
 10
204.1774696753
 20
81.4729975916
 10
204.3096733908
 20
81.5184234656
 10
204.4246871312
 20
81.595166489
 10
204.5199416795
 20
81.7015123497
 10
204.5933092066
 20
81.8350854567
 10
204.643150803
 20
81.9929020077
 10
204.66835309
 20
82.1714366416
 10
204.66835309
 20
82.3667011897
 10
204.643150803
 20
82.5743337647
 10
204.5933092066
 20
82.789696198
 10
204.5199416795
 20
83.0079776487
 10
204.4246871312
 20
83.2243020699
 10
204.3096733908
 20
83.4338371314
 10
204.1774696753
 20
83.6319021663
 10
204.0310291971
 20
83.814072729
 10
203.8736231946
 20
83.9762794301
 10
203.7087678578
 20
84.1148988399
 10
203.5401457824
 20
84.22683443
  0
LWPOLYLINE
  5
11C
330
1F
100
AcDbEntity
  8
0
  6
Continuous
 62
     7
370
    15
100
AcDbPolyline
 90
       60
 70
   128
 43
0.0
 10
171.5045564333
 20
83.7945074815
 10
171.4079651614
 20
83.5398819939
 10
171.304258079
 20
83.2684264481
 10
171.1946102289
 20
82.9832165438
 10
171.080263965
 20
82.6874838234
 10
170.9625148762
 20
82.3845790566
 10
170.8426971066
 20
82.0779342755
 10
170.7221682396
 20
81.771023888
 10
170.6022939153
 20
81.4673253115
 10
170.4844323576
 20
81.1702795721
 10
170.3699189853
 20
80.8832523167
 10
170.2600512804
 20
80.6094956789
 10
170.1560740881
 20
80.3521114308
 10
170.0591655114
 20
80.1140158387
 10
169.9704235633
 20
79.8979066209
 10
169.8908537255
 20
79.706232381
 10
169.821357556
 20
79.541164865
 10
169.7627224742
 20
79.4045743535
 10
169.7156128391
 20
79.2980084719
 10
169.6805624215
 20
79.2226746539
 10
169.6579683568
 20
79.179426462
 10
169.6480866447
 20
79.1687539154
 10
169.651029249
 20
79.1907779384
 10
169.6667628288
 20
79.2452489898
 10
169.6951091163
 20
79.3315498911
 10
169.7357469368
 20
79.4487028184
 10
169.7882158475
 20
79.5953803823
 10
169.8519213548
 20
79.7699206675
 10
169.9261416497
 20
79.9703460626
 10
170.0100357866
 20
80.1943856679
 10
170.1026532115
 20
80.4395010252
 10
170.202944532
 20
80.7029148795
 10
170.3097734073
 20
80.9816426466
 10
170.4219294235
 20
81.2725262295
 10
170.5381418081
 20
81.5722698009
 10
170.6570938286
 20
81.8774771466
 10
170.7774377108
 20
82.1846901452
 10
170.8978099105
 20
82.4904279507
 10
171.0168465626
 20
82.7912264317
 10
171.1331989344
 20
83.0836774211
 10
171.2455487068
 20
83.3644673324
 10
171.3526229121
 20
83.6304147037
 10
171.4532083568
 20
83.8785062451
 10
171.5461653675
 20
84.1059309801
 10
171.6304407043
 20
84.3101120957
 10
171.7050794938
 20
84.4887361383
 10
171.7692360488
 20
84.6397792261
 10
171.8221834499
 20
84.7615299805
 10
171.8633217818
 20
84.8526089169
 10
171.8921849308
 20
84.9119840744
 10
171.9084458659
 20
84.938982709
 10
171.9119203442
 20
84.9332989151
 10
171.9025689984
 20
84.8949970926
 10
171.8804977832
 20
84.8245112163
 10
171.845956774
 20
84.7226399194
 10
171.7993373345
 20
84.5905374443
 10
171.7411676814
 20
84.429700565
 10
171.6721069002
 20
84.2419516275
 10
171.5929374771
 20
84.0294179023
 10
171.5045564333
 20
83.7945074815
  0
LWPOLYLINE
  5
11D
330
1F
100
AcDbEntity
  8
0
  6
Continuous
 62
     7
370
    15
100
AcDbPolyline
 90
       43
 70
   128
 43
0.0
 10
170.4059398171
 20
81.1564200219
 10
170.3431844366
 20
80.9893111545
 10
170.2901853858
 20
80.8459966748
 10
170.2481265759
 20
80.7296779914
 10
170.2179475313
 20
80.6429534716
 10
170.2003224019
 20
80.5877603979
 10
170.195644904
 20
80.5653316922
 10
170.2040195253
 20
80.5761683748
 10
170.2252591904
 20
80.6200283721
 10
170.2588894404
 20
80.6959319243
 10
170.304159031
 20
80.8021834714
 10
170.3600567144
 20
80.9364095294
 10
170.4253338288
 20
81.0956117101
 10
170.4985321912
 20
81.2762336997
 10
170.5780166712
 20
81.4742407015
 10
170.6620117169
 20
81.6852095662
 10
170.7486410177
 20
81.9044275981
 10
170.8359694182
 20
82.1269978285
 10
170.9220461462
 20
82.3479484063
 10
171.00494839
 20
82.5623436608
 10
171.0828242502
 20
82.7653943561
 10
171.153934109
 20
82.9525646752
 10
171.2166894896
 20
83.1196735427
 10
171.2696885404
 20
83.2629880224
 10
171.3117473503
 20
83.3793067057
 10
171.3419263949
 20
83.4660312255
 10
171.3595515243
 20
83.5212242992
 10
171.3642290221
 20
83.5436530049
 10
171.3558544009
 20
83.5328163223
 10
171.3346147358
 20
83.488956325
 10
171.3009844858
 20
83.4130527728
 10
171.2557148952
 20
83.3068012257
 10
171.1998172117
 20
83.1725751677
 10
171.1345400974
 20
83.013372987
 10
171.061341735
 20
82.8327509974
 10
170.9818572549
 20
82.6347439957
 10
170.8978622093
 20
82.4237751309
 10
170.8112329085
 20
82.204557099
 10
170.723904508
 20
81.9819868686
 10
170.6378277799
 20
81.7610362908
 10
170.5549255362
 20
81.5466410364
 10
170.4770496759
 20
81.3435903411
 10
170.4059398171
 20
81.1564200219
  0
LWPOLYLINE
  5
11E
330
1F
100
AcDbEntity
  8
0
  6
Continuous
 62
     7
370
    15
100
AcDbPolyline
 90
       32
 70
   128
 43
0.0
 10
193.578985332
 20
94.1025529729
 10
193.5841826048
 20
94.1143025647
 10
193.6317208029
 20
94.1704323924
 10
193.7114073915
 20
94.2130880852
 10
193.8223394897
 20
94.2417863371
 10
193.9632601924
 20
94.2562019853
 10
194.1325728118
 20
94.2561716949
 10
194.3283589683
 20
94.241695809
 10
194.5484003265
 20
94.2129383452
 10
194.7902037298
 20
94.1702251371
 10
195.0510294492
 20
94.1140401424
 10
195.3279222249
 20
94.0450199594
 10
195.6177447512
 20
93.9639466146
 10
195.917213223
 20
93.8717387012
 10
196.222934543
 20
93.7694409717
 10
196.5314447663
 20
93.6582125004
 10
196.8392483489
 20
93.5393135503
 10
197.1428577532
 20
93.4140912938
 10
197.4388329634
 20
93.2839645494
 10
197.723820462
 20
93.1504077049
 10
197.9945912268
 20
93.0149340128
 10
198.2480773168
 20
92.8790784441
 10
198.4814066334
 20
92.7443802968
 10
198.6919354622
 20
92.6123657546
 10
198.8772784273
 20
92.4845305951
 10
199.0353355191
 20
92.3623232417
 10
199.1643158873
 20
92.2471283525
 10
199.262758133
 20
92.1402511318
 10
199.3295468662
 20
92.042902541
 10
199.3639253438
 20
91.9561855786
 10
199.365504044
 20
91.8810827825
 10
199.3591706091
 20
91.8599076235
  0
LWPOLYLINE
  5
11F
330
1F
100
AcDbEntity
  8
0
  6
Continuous
 62
     7
370
    15
100
AcDbPolyline
 90
       22
 70
   128
 43
0.0
 10
182.4932730366
 20
87.4602272819
 10
182.2349236124
 20
87.4107019569
 10
181.9273719464
 20
87.3245744245
 10
181.6243475728
 20
87.2100367621
 10
181.3292838786
 20
87.0683867273
 10
181.0455240536
 20
86.9012292715
 10
180.7762832099
 20
86.7104583556
 10
180.5246119538
 20
86.4982354901
 10
180.2933618212
 20
86.2669652451
 10
180.0851529686
 20
86.0192680046
 10
179.9023444853
 20
85.7579502776
 10
179.7470076647
 20
85.4859728982
 10
179.6209025349
 20
85.2064174788
 10
179.5254579175
 20
84.9224514941
 10
179.4617552381
 20
84.6372923921
 10
179.4305162734
 20
84.3541711393
 10
179.4320949736
 20
84.0762956127
 10
179.4664734512
 20
83.8068142531
 10
179.5332621844
 20
83.5487803919
 10
179.6317044301
 20
83.3051176559
 10
179.7606847984
 20
83.0785868413
 10
179.7906991138
 20
83.0346031742
  0
LWPOLYLINE
  5
120
330
1F
100
AcDbEntity
  8
0
  6
Continuous
 62
     7
100
AcDbPolyline
 90
       17
 70
   128
 43
0.0
 10
87.3739355579
 20
74.7155291131
 10
87.806892438
 20
74.8660210505
 10
88.1739355579
 20
74.7947044561
 10
88.4191859298
 20
74.5124366347
 10
88.5053064078
 20
74.0621903035
 10
88.4191859298
 20
73.5125113849
 10
88.1739355579
 20
72.9470835114
 10
87.806892438
 20
72.4519879511
 10
87.3739355579
 20
72.1025985151
 10
86.9409786777
 20
71.9521065776
 10
86.5739355579
 20
72.0234231721
 10
86.328685186
 20
72.3056909934
 10
86.242564708
 20
72.7559373246
 10
86.328685186
 20
73.3056162432
 10
86.5739355579
 20
73.8710441167
 10
86.9409786777
 20
74.366139677
 10
87.3739355579
 20
74.7155291131
  0
LWPOLYLINE
  5
121
330
1F
100
AcDbEntity
  8
0
  6
Continuous
 62
     7
100
AcDbPolyline
 90
       17
 70
   128
 43
0.0
 10
88.0148234045
 20
76.1997122645
 10
88.7682387489
 20
76.1671731009
 10
89.3093840719
 20
75.7147368008
 10
89.5558749035
 20
74.9112826894
 10
89.4701852491
 20
73.8791293719
 10
89.0653605817
 20
72.7754128344
 10
88.4030317873
 20
71.7681639145
 10
87.5840324207
 20
71.0107271294
 10
86.7330477112
 20
70.6184153637
 10
85.9796323668
 20
70.6509545272
 10
85.4384870438
 20
71.1033908273
 10
85.1919962122
 20
71.9068449387
 10
85.2776858666
 20
72.9389982562
 10
85.682510534
 20
74.0427147937
 10
86.3448393284
 20
75.0499637137
 10
87.163838695
 20
75.8074004987
 10
88.0148234045
 20
76.1997122645
  0
LINE
  5
122
330
1F
100
AcDbEntity
  8
0
  6
Continuous
 62
     7
370
    15
100
AcDbLine
 10
85.690144055
 20
91.5702498376
 30
0.0
 11
82.3141461544
 21
79.9077450792
 31
0.0
  0
LINE
  5
123
330
1F
100
AcDbEntity
  8
0
  6
Continuous
 62
     7
370
    15
100
AcDbLine
 10
88.2696432733
 20
78.1837804432
 30
0.0
 11
91.645641174
 21
89.8462852017
 31
0.0
  0
LINE
  5
124
330
1F
100
AcDbEntity
  8
0
  6
Continuous
 62
     7
370
    15
100
AcDbLine
 10
68.4999453832
 20
80.7253117105
 30
0.0
 11
96.7842166307
 21
64.3971494741
 31
0.0
  0
LINE
  5
125
330
1F
100
AcDbEntity
  8
0
  6
Continuous
 62
     7
370
    15
100
AcDbLine
 10
82.3145796289
 20
79.9092425323
 30
0.0
 11
71.5996934544
 21
86.0948146573
 31
0.0
  0
LINE
  5
126
330
1F
100
AcDbEntity
  8
0
  6
Continuous
 62
     7
370
    15
100
AcDbLine
 10
99.8839647018
 20
69.7666524208
 30
0.0
 11
91.3200469564
 21
74.7104969026
 31
0.0
  0
LINE
  5
127
330
1F
100
AcDbEntity
  8
0
  6
Continuous
 62
     7
370
    15
100
AcDbLine
 10
101.6786600954
 20
85.4303614006
 30
0.0
 11
88.919530075
 21
80.4288375019
 31
0.0
  0
LINE
  5
128
330
1F
100
AcDbEntity
  8
0
  6
Continuous
 62
     7
370
    15
100
AcDbLine
 10
89.0062506813
 20
73.8034987493
 30
0.0
 11
103.9413963809
 21
79.6580114024
 31
0.0
  0
LINE
  5
129
330
1F
100
AcDbEntity
  8
0
  6
Continuous
 62
     7
370
    15
100
AcDbLine
 10
74.2307945921
 20
92.3496016765
 30
0.0
 11
78.1174287344
 21
82.3322061695
 31
0.0
  0
LINE
  5
12A
330
1F
100
AcDbEntity
  8
0
  6
Continuous
 62
     7
370
    15
100
AcDbLine
 10
83.764482601
 20
84.917983891
 30
0.0
 11
80.0109798692
 21
94.5922470259
 31
0.0
  0
LINE
  5
12B
330
1F
100
AcDbEntity
  8
0
  6
Continuous
 62
     7
370
    15
100
AcDbLine
 10
92.652006048
 20
81.8919519737
 30
0.0
 11
93.7992660875
 21
83.5242972272
 31
0.0
  0
LWPOLYLINE
  5
12C
330
1F
100
AcDbEntity
  8
0
  6
Continuous
 62
     7
370
    15
100
AcDbPolyline
 90
       60
 70
   128
 43
0.0
 10
91.6820138169
 20
90.2899536036
 10
91.6871726494
 20
90.0881109398
 10
91.6581218326
 20
89.8932948978
 10
91.595190524
 20
89.7077128213
 10
91.4990917603
 20
89.5334674293
 10
91.370914379
 20
89.3725329918
 10
91.2121106811
 20
89.2267329602
 10
91.0244799759
 20
89.0977193072
 10
90.8101481942
 20
88.986953809
 10
90.5715438008
 20
88.8956914829
 10
90.3113702787
 20
88.8249663675
 10
90.0325754981
 20
88.7755798068
 10
89.7383183151
 20
88.7480913701
 10
89.4319327811
 20
88.7428125124
 10
89.1168903668
 20
88.7598030453
 10
88.7967606285
 20
88.7988704593
 10
88.4751707642
 20
88.8595721049
 10
88.1557645154
 20
88.9412202083
 10
87.8421608826
 20
89.0428896638
 10
87.5379131203
 20
89.1634285158
 10
87.2464684772
 20
89.3014710111
 10
86.9711291375
 20
89.4554530729
 10
86.715014806
 20
89.623630023
 10
86.4810273604
 20
89.8040963493
 10
86.2718179719
 20
89.9948072963
 10
86.0897570666
 20
90.1936020327
 10
85.9369074672
 20
90.3982281347
 10
85.8150010208
 20
90.6063671069
 10
85.7254189761
 20
90.8156606514
 10
85.6691763334
 20
91.0237373888
 10
85.6469103445
 20
91.2282397266
 10
85.6588732918
 20
91.4268505715
 10
85.7049296303
 20
91.6173195833
 10
85.7845575235
 20
91.7974886719
 10
85.8968547553
 20
91.9653164497
 10
86.0405489533
 20
92.1189013608
 10
86.2140120048
 20
92.2565032269
 10
86.4152785042
 20
92.3765629637
 10
86.6420680215
 20
92.4777202465
 10
86.8918109409
 20
92.5588289229
 10
87.1616775754
 20
92.6189699992
 10
87.4486102281
 20
92.6574620528
 10
87.7493578375
 20
92.6738689536
 10
88.0605128129
 20
92.6680048047
 10
88.3785496442
 20
92.6399360493
 10
88.6998648469
 20
92.5899807176
 10
89.0208177915
 20
92.5187048235
 10
89.3377719528
 20
92.4269159513
 10
89.6471361135
 20
92.3156541056
 10
89.9454050541
 20
92.1861799276
 10
90.2291992682
 20
92.0399604115
 10
90.4953032542
 20
91.8786522829
 10
90.7407019473
 20
91.7040832272
 10
90.9626148825
 20
91.5182311816
 10
91.1585276975
 20
91.3232019241
 10
91.3262206217
 20
91.1212052141
 10
91.4637936275
 20
90.914529755
 10
91.5696879575
 20
90.7055172623
 10
91.6427037869
 20
90.4965359312
 10
91.6820138169
 20
90.2899536036
  0
ELLIPSE
  5
12D
330
1F
100
AcDbEntity
  8
0
  6
Continuous
 62
     7
370
    15
100
AcDbEllipse
 10
84.1919550426
 20
75.2459820657
 30
0.0
 11
3.958551841408507
 21
4.339772883534252
 31
0.0
210
0.0
220
0.0
230
1.0
 40
0.3216250305
 41
4.548370130380228
 42
5.704774336723009
  0
ELLIPSE
  5
12E
330
1F
100
AcDbEntity
  8
0
  6
Continuous
 62
     7
370
    15
100
AcDbEllipse
 10
84.1919550425
 20
75.2459820657
 30
0.0
 11
-1.877146240661304
 21
4.662691218102296
 31
0.0
210
0.0
220
0.0
230
1.0
 40
0.0122410669
 41
0.0156251986261432
 42
2.000813646016963
  0
LWPOLYLINE
  5
12F
330
1F
100
AcDbEntity
  8
0
  6
Continuous
 62
     7
370
    15
100
AcDbPolyline
 90
       43
 70
   128
 43
0.0
 10
87.1122171551
 20
90.9241714764
 10
87.1456839157
 20
90.7739705694
 10
87.2131543032
 20
90.6223019649
 10
87.3131211407
 20
90.4725536888
 10
87.4433513342
 20
90.3280708702
 10
87.6009357564
 20
90.1920810164
 10
87.7823542318
 20
90.0676219162
 10
87.9835541713
 20
89.9574737801
 10
88.2000411008
 20
89.8640971355
 10
88.42697906
 20
89.7895778624
 10
88.6592986299
 20
89.7355805981
 10
88.8918101752
 20
89.7033115523
 10
89.1193197723
 20
89.6934915622
 10
89.3367452326
 20
89.7063399901
 10
89.5392296306
 20
89.7415698234
 10
89.7222497996
 20
89.7983940858
 10
89.8817173713
 20
89.8755434172
 10
90.0140701037
 20
89.971294429
 10
90.1163514555
 20
90.0835082019
 10
90.1862766303
 20
90.2096780655
 10
90.2222836153
 20
90.3469855936
 10
90.2235680738
 20
90.492363563
 10
90.1901013133
 20
90.64256447
 10
90.1226309258
 20
90.7942330745
 10
90.0226640883
 20
90.9439813506
 10
89.8924338947
 20
91.0884641693
 10
89.7348494725
 20
91.224454023
 10
89.5534309972
 20
91.3489131232
 10
89.3522310577
 20
91.4590612593
 10
89.1357441282
 20
91.5524379039
 10
88.9088061689
 20
91.626957177
 10
88.676486599
 20
91.6809544413
 10
88.4439750537
 20
91.7132234871
 10
88.2164654566
 20
91.7230434772
 10
87.9990399964
 20
91.7101950493
 10
87.7965555983
 20
91.674965216
 10
87.6135354294
 20
91.6181409536
 10
87.4540678576
 20
91.5409916222
 10
87.3217151252
 20
91.4452406104
 10
87.2194337734
 20
91.3330268375
 10
87.1495085986
 20
91.2068569739
 10
87.1135016137
 20
91.0695494458
 10
87.1122171551
 20
90.9241714764
  0
ELLIPSE
  5
130
330
1F
100
AcDbEntity
  8
0
  6
Continuous
 62
     7
370
    15
100
AcDbEllipse
 10
84.1919550425
 20
75.2459820657
 30
0.0
 11
5.906966724486822
 21
-0.4437503160935137
 31
0.0
210
0.0
220
0.0
230
1.0
 40
0.3250728369
 41
4.860782631608916
 42
5.689149137982472
  0
LWPOLYLINE
  5
131
330
1F
100
AcDbEntity
  8
0
  6
Continuous
 62
     7
370
    15
100
AcDbPolyline
 90
       60
 70
   128
 43
0.0
 10
70.0498194188
 20
85.9413397008
 10
70.2828180367
 20
86.0615067526
 10
70.5131766872
 20
86.1516318894
 10
70.7382853147
 20
86.2106939573
 10
70.9555933485
 20
86.2380237594
 10
71.1626386018
 20
86.2333116382
 10
71.357075169
 20
86.196610984
 10
71.5367000063
 20
86.1283376297
 10
71.6994778923
 20
86.0292651397
 10
71.8435644887
 20
85.900516045
 10
71.9673272367
 20
85.7435491243
 10
72.0693638549
 20
85.5601428755
 10
72.1485182277
 20
85.3523753646
 10
72.2038935044
 20
85.1226006806
 10
72.234862261
 20
84.8734222624
 10
72.2410736091
 20
84.6076634012
 10
72.2224571716
 20
84.328335251
 10
72.1792238802
 20
84.0386027113
 10
72.1118635854
 20
83.7417485677
 10
72.0211395063
 20
83.4411362961
 10
71.9080795829
 20
83.1401719537
 10
71.7739648293
 20
82.8422655868
 10
71.6203148192
 20
82.5507925936
 10
71.4488704687
 20
82.2690554795
 10
71.2615743108
 20
82.0002464386
 10
71.0605484858
 20
81.7474111848
 10
70.8480706966
 20
81.5134144425
 10
70.6265484015
 20
81.3009074883
 10
70.3984915365
 20
81.1122981109
 10
70.1664840771
 20
80.9497233299
 10
69.9331547605
 20
80.8150251825
 10
69.7011473011
 20
80.7097298527
 10
69.4730904361
 20
80.6350303785
 10
69.251568141
 20
80.5917731348
 10
69.0390903517
 20
80.5804482435
 10
68.8380645267
 20
80.6011840201
 10
68.6507683688
 20
80.6537455201
 10
68.4793240184
 20
80.7375372005
 10
68.3256740083
 20
80.8516096682
 10
68.1915592547
 20
80.9946704366
 10
68.0784993313
 20
81.1650985699
 10
67.9877752521
 20
81.3609630493
 10
67.9204149574
 20
81.5800446521
 10
67.877181666
 20
81.819861096
 10
67.8585652285
 20
82.077695165
 10
67.8647765766
 20
82.3506254961
 10
67.8957453332
 20
82.6355596795
 10
67.9511206099
 20
82.929269297
 10
68.0302749827
 20
83.2284265015
 10
68.1323116009
 20
83.5296417221
 10
68.2560743489
 20
83.8295020701
 10
68.4001609453
 20
84.1246100079
 10
68.5629388313
 20
84.4116218447
 10
68.7425636686
 20
84.6872856216
 10
68.9370002358
 20
84.948477958
 10
69.144045489
 20
85.1922394403
 10
69.3613535229
 20
85.4158081535
 10
69.5864621503
 20
85.6166509747
 10
69.8168208008
 20
85.7924922745
 10
70.0498194188
 20
85.9413397008
  0
LWPOLYLINE
  5
132
330
1F
100
AcDbEntity
  8
0
  6
Continuous
 62
     7
370
    15
100
AcDbPolyline
 90
       31
 70
   128
 43
0.0
 10
99.8839647018
 20
69.7666524208
 10
99.9837491398
 20
69.7011029033
 10
100.1278357362
 20
69.5723538086
 10
100.2515984842
 20
69.4153868879
 10
100.3536351024
 20
69.231980639
 10
100.4327894752
 20
69.0242131281
 10
100.4881647519
 20
68.7944384441
 10
100.5191335084
 20
68.545260026
 10
100.5253448565
 20
68.2795011648
 10
100.506728419
 20
68.0001730145
 10
100.4634951277
 20
67.7104404749
 10
100.3961348329
 20
67.4135863312
 10
100.3054107538
 20
67.1129740596
 10
100.1923508303
 20
66.8120097173
 10
100.0582360767
 20
66.5141033504
 10
99.9045860667
 20
66.2226303571
 10
99.7331417162
 20
65.940893243
 10
99.5458455583
 20
65.6720842022
 10
99.3448197333
 20
65.4192489483
 10
99.1323419441
 20
65.185252206
 10
98.9108196489
 20
64.9727452518
 10
98.6827627839
 20
64.7841358744
 10
98.4507553245
 20
64.6215610934
 10
98.217426008
 20
64.4868629461
 10
97.9854185486
 20
64.3815676162
 10
97.7573616836
 20
64.306868142
 10
97.5358393884
 20
64.2636108983
 10
97.3233615992
 20
64.252286007
 10
97.1223357742
 20
64.2730217837
 10
96.9350396163
 20
64.3255832836
 10
96.7842166307
 20
64.3971494741
  0
LWPOLYLINE
  5
133
330
1F
100
AcDbEntity
  8
0
  6
Continuous
 62
     7
370
    15
100
AcDbPolyline
 90
       43
 70
   128
 43
0.0
 10
70.0498194188
 20
84.7165284829
 10
70.2184414941
 20
84.7992797971
 10
70.383296831
 20
84.8509983077
 10
70.5407028335
 20
84.8705287087
 10
70.6871433116
 20
84.8574347232
 10
70.8193470272
 20
84.8120088493
 10
70.9343607676
 20
84.7352658258
 10
71.0296153159
 20
84.6289199652
 10
71.1029828429
 20
84.4953468581
 10
71.1528244394
 20
84.3375303072
 10
71.1780267263
 20
84.1589956733
 10
71.1780267263
 20
83.9637311252
 10
71.1528244394
 20
83.7560985501
 10
71.1029828429
 20
83.5407361168
 10
71.0296153159
 20
83.3224546662
 10
70.9343607676
 20
83.106130245
 10
70.8193470272
 20
82.8965951834
 10
70.6871433116
 20
82.6985301485
 10
70.5407028335
 20
82.5163595859
 10
70.383296831
 20
82.3541528848
 10
70.2184414941
 20
82.2155334749
 10
70.0498194188
 20
82.1035978849
 10
69.8811973434
 20
82.0208465708
 10
69.7163420066
 20
81.9691280601
 10
69.5589360041
 20
81.9495976591
 10
69.4124955259
 20
81.9626916446
 10
69.2802918104
 20
82.0081175185
 10
69.16527807
 20
82.084860542
 10
69.0700235217
 20
82.1912064026
 10
68.9966559946
 20
82.3247795097
 10
68.9468143982
 20
82.4825960606
 10
68.9216121113
 20
82.6611306945
 10
68.9216121113
 20
82.8563952426
 10
68.9468143982
 20
83.0640278177
 10
68.9966559946
 20
83.279390251
 10
69.0700235217
 20
83.4976717017
 10
69.16527807
 20
83.7139961228
 10
69.2802918104
 20
83.9235311844
 10
69.4124955259
 20
84.1215962193
 10
69.5589360041
 20
84.303766782
 10
69.7163420066
 20
84.465973483
 10
69.8811973434
 20
84.6045928929
 10
70.0498194188
 20
84.7165284829
  0
LWPOLYLINE
  5
134
330
1F
100
AcDbEntity
  8
0
  6
Continuous
 62
     7
370
    15
100
AcDbPolyline
 90
       60
 70
   128
 43
0.0
 10
102.0854087679
 20
84.2842015344
 10
102.1820000398
 20
84.0295760468
 10
102.2857071222
 20
83.758120501
 10
102.3953549723
 20
83.4729105968
 10
102.5097012362
 20
83.1771778764
 10
102.627450325
 20
82.8742731096
 10
102.7472680946
 20
82.5676283285
 10
102.8677969616
 20
82.260717941
 10
102.987671286
 20
81.9570193644
 10
103.1055328436
 20
81.659973625
 10
103.2200462159
 20
81.3729463697
 10
103.3299139208
 20
81.0991897319
 10
103.4338911131
 20
80.8418054838
 10
103.5307996898
 20
80.6037098917
 10
103.6195416379
 20
80.3876006738
 10
103.6991114757
 20
80.195926434
 10
103.7686076452
 20
80.0308589179
 10
103.827242727
 20
79.8942684065
 10
103.8743523621
 20
79.7877025248
 10
103.9094027797
 20
79.7123687069
 10
103.9319968444
 20
79.669120515
 10
103.9418785565
 20
79.6584479684
 10
103.9389359522
 20
79.6804719913
 10
103.9232023724
 20
79.7349430428
 10
103.8948560849
 20
79.8212439441
 10
103.8542182644
 20
79.9383968714
 10
103.8017493537
 20
80.0850744353
 10
103.7380438465
 20
80.2596147204
 10
103.6638235516
 20
80.4600401155
 10
103.5799294146
 20
80.6840797209
 10
103.4873119897
 20
80.9291950782
 10
103.3870206692
 20
81.1926089324
 10
103.280191794
 20
81.4713366995
 10
103.1680357778
 20
81.7622202824
 10
103.0518233931
 20
82.0619638539
 10
102.9328713727
 20
82.3671711995
 10
102.8125274905
 20
82.6743841981
 10
102.6921552907
 20
82.9801220037
 10
102.5731186386
 20
83.2809204846
 10
102.4567662669
 20
83.5733714741
 10
102.3444164944
 20
83.8541613854
 10
102.2373422891
 20
84.1201087567
 10
102.1367568445
 20
84.368200298
 10
102.0437998337
 20
84.595625033
 10
101.9595244969
 20
84.7998061487
 10
101.8848857074
 20
84.9784301912
 10
101.8207291524
 20
85.129473279
 10
101.7677817513
 20
85.2512240334
 10
101.7266434194
 20
85.3423029698
 10
101.6977802704
 20
85.4016781274
 10
101.6815193354
 20
85.4286767619
 10
101.6780448571
 20
85.4229929681
 10
101.6873962028
 20
85.3846911456
 10
101.7094674181
 20
85.3142052692
 10
101.7440084272
 20
85.2123339723
 10
101.7906278667
 20
85.0802314973
 10
101.8487975198
 20
84.919394618
 10
101.917858301
 20
84.7316456805
 10
101.9970277241
 20
84.5191119553
 10
102.0854087679
 20
84.2842015344
  0
LWPOLYLINE
  5
135
330
1F
100
AcDbEntity
  8
0
  6
Continuous
 62
     7
370
    15
100
AcDbPolyline
 90
       43
 70
   128
 43
0.0
 10
102.4360310922
 20
83.4422587282
 10
102.3732757116
 20
83.6093675956
 10
102.3202766608
 20
83.7526820753
 10
102.2782178509
 20
83.8690007586
 10
102.2480388063
 20
83.9557252784
 10
102.230413677
 20
84.0109183522
 10
102.2257361791
 20
84.0333470579
 10
102.2341108003
 20
84.0225103753
 10
102.2553504654
 20
83.978650378
 10
102.2889807154
 20
83.9027468258
 10
102.3342503061
 20
83.7964952787
 10
102.3901479895
 20
83.6622692206
 10
102.4554251039
 20
83.50306704
 10
102.5286234663
 20
83.3224450504
 10
102.6081079463
 20
83.1244380486
 10
102.6921029919
 20
82.9134691839
 10
102.7787322928
 20
82.694251152
 10
102.8660606933
 20
82.4716809216
 10
102.9521374213
 20
82.2507303437
 10
103.035039665
 20
82.0363350893
 10
103.1129155253
 20
81.833284394
 10
103.1840253841
 20
81.6461140748
 10
103.2467807646
 20
81.4790052074
 10
103.2997798155
 20
81.3356907277
 10
103.3418386253
 20
81.2193720444
 10
103.37201767
 20
81.1326475246
 10
103.3896427993
 20
81.0774544508
 10
103.3943202972
 20
81.0550257451
 10
103.385945676
 20
81.0658624277
 10
103.3647060108
 20
81.1097224251
 10
103.3310757609
 20
81.1856259772
 10
103.2858061702
 20
81.2918775243
 10
103.2299084868
 20
81.4261035824
 10
103.1646313724
 20
81.585305763
 10
103.09143301
 20
81.7659277526
 10
103.01194853
 20
81.9639347544
 10
102.9279534843
 20
82.1749036192
 10
102.8413241835
 20
82.394121651
 10
102.753995783
 20
82.6166918815
 10
102.667919055
 20
82.8376424593
 10
102.5850168112
 20
83.0520377137
 10
102.507140951
 20
83.255088409
 10
102.4360310922
 20
83.4422587282
  0
LWPOLYLINE
  5
136
330
1F
100
AcDbEntity
  8
0
  6
Continuous
 62
     7
370
    15
100
AcDbPolyline
 90
       32
 70
   128
 43
0.0
 10
80.0109798692
 20
94.5922470259
 10
80.0057825964
 20
94.6039966177
 10
79.9582443983
 20
94.6601264454
 10
79.8785578097
 20
94.7027821382
 10
79.7676257116
 20
94.73148039
 10
79.6267050088
 20
94.7458960383
 10
79.4573923894
 20
94.7458657479
 10
79.2616062329
 20
94.731389862
 10
79.0415648747
 20
94.7026323982
 10
78.7997614714
 20
94.6599191901
 10
78.538935752
 20
94.6037341953
 10
78.2620429763
 20
94.5347140124
 10
77.97222045
 20
94.4536406675
 10
77.6727519782
 20
94.3614327541
 10
77.3670306583
 20
94.2591350247
 10
77.0585204349
 20
94.1479065534
 10
76.7507168523
 20
94.0290076032
 10
76.447107448
 20
93.9037853468
 10
76.1511322378
 20
93.7736586023
 10
75.8661447392
 20
93.6401017578
 10
75.5953739744
 20
93.5046280657
 10
75.3418878844
 20
93.3687724971
 10
75.1085585678
 20
93.2340743497
 10
74.8980297391
 20
93.1020598076
 10
74.7126867739
 20
92.974224648
 10
74.5546296822
 20
92.8520172946
 10
74.4256493139
 20
92.7368224055
 10
74.3272070682
 20
92.6299451847
 10
74.260418335
 20
92.5325965939
 10
74.2260398574
 20
92.4458796316
 10
74.2244611573
 20
92.3707768355
 10
74.2307945921
 20
92.3496016765
  0
LWPOLYLINE
  5
137
330
1F
100
AcDbEntity
  8
0
  6
Continuous
 62
     7
370
    15
100
AcDbPolyline
 90
       22
 70
   128
 43
0.0
 10
91.0966921646
 20
87.9499213349
 10
91.3550415889
 20
87.9003960099
 10
91.6625932548
 20
87.8142684775
 10
91.9656176285
 20
87.6997308151
 10
92.2606813226
 20
87.5580807803
 10
92.5444411476
 20
87.3909233245
 10
92.8136819913
 20
87.2001524085
 10
93.0653532474
 20
86.9879295431
 10
93.29660338
 20
86.756659298
 10
93.5048122327
 20
86.5089620576
 10
93.6876207159
 20
86.2476443306
 10
93.8429575365
 20
85.9756669512
 10
93.9690626663
 20
85.6961115318
 10
94.0645072837
 20
85.4121455471
 10
94.1282099632
 20
85.126986445
 10
94.1594489278
 20
84.8438651923
 10
94.1578702276
 20
84.5659896657
 10
94.12349175
 20
84.2965083061
 10
94.0567030169
 20
84.0384744449
 10
93.9582607711
 20
83.7948117089
 10
93.8292804029
 20
83.5682808942
 10
93.7992660875
 20
83.5242972272
  0
LINE
  5
138
330
1F
100
AcDbEntity
  8
0
  6
Continuous
 62
     7
370
    15
100
AcDbLine
 10
125.5458628841
 20
157.7781866688
 30
0.0
 11
133.0147234832
 21
157.7781866688
 31
0.0
  0
LINE
  5
139
330
1F
100
AcDbEntity
  8
0
  6
Continuous
 62
     7
370
    15
100
AcDbLine
 10
135.5458628841
 20
163.9781866688
 30
0.0
 11
125.5458628841
 21
163.9781866688
 31
0.0
  0
LINE
  5
13A
330
1F
100
AcDbEntity
  8
0
  6
Continuous
 62
     7
370
    15
100
AcDbLine
 10
145.5458628841
 20
163.9781866688
 30
0.0
 11
135.5458628841
 21
163.9781866688
 31
0.0
  0
LINE
  5
13B
330
1F
100
AcDbEntity
  8
0
  6
Continuous
 62
     7
370
    15
100
AcDbLine
 10
138.077002285
 20
157.7781866688
 30
0.0
 11
145.5458628841
 21
157.7781866688
 31
0.0
  0
LINE
  5
13C
330
1F
100
AcDbEntity
  8
0
  6
Continuous
 62
     7
370
    15
100
AcDbLine
 10
128.189551767
 20
142.9293328499
 30
0.0
 11
135.5458628842
 21
154.9421386007
 31
0.0
  0
LINE
  5
13D
330
1F
100
AcDbEntity
  8
0
  6
Continuous
 62
     7
370
    15
100
AcDbLine
 10
130.0124361196
 20
157.7781866688
 30
0.0
 11
122.9021740013
 21
146.1671772507
 31
0.0
  0
LINE
  5
13E
330
1F
100
AcDbEntity
  8
0
  6
Continuous
 62
     7
370
    15
100
AcDbLine
 10
148.1895517669
 20
146.1671772507
 30
0.0
 11
141.0792896486
 21
157.7781866688
 31
0.0
  0
LINE
  5
13F
330
1F
100
AcDbEntity
  8
0
  6
Continuous
 62
     7
370
    15
100
AcDbLine
 10
135.5458628842
 20
154.9421386005
 30
0.0
 11
142.9021740012
 21
142.9293328499
 31
0.0
  0
LINE
  5
140
330
1F
100
AcDbEntity
  8
0
  6
Continuous
 62
     7
370
    15
100
AcDbLine
 10
145.5458628841
 20
157.7781866688
 30
0.0
 11
155.5458628841
 21
157.7781866688
 31
0.0
  0
LINE
  5
141
330
1F
100
AcDbEntity
  8
0
  6
Continuous
 62
     7
370
    15
100
AcDbLine
 10
115.5458628841
 20
157.7781866688
 30
0.0
 11
125.5458628841
 21
157.7781866688
 31
0.0
  0
LINE
  5
142
330
1F
100
AcDbEntity
  8
0
  6
Continuous
 62
     7
370
    15
100
AcDbLine
 10
125.5458628841
 20
163.9781866688
 30
0.0
 11
115.5458628841
 21
163.9781866688
 31
0.0
  0
LINE
  5
143
330
1F
100
AcDbEntity
  8
0
  6
Continuous
 62
     7
370
    15
100
AcDbLine
 10
155.5458628841
 20
163.9781866688
 30
0.0
 11
145.5458628841
 21
163.9781866688
 31
0.0
  0
LINE
  5
144
330
1F
100
AcDbEntity
  8
0
  6
Continuous
 62
     7
370
    15
100
AcDbLine
 10
135.5458628841
 20
163.9781866688
 30
0.0
 11
135.5458628841
 21
158.3470472679
 31
0.0
  0
ELLIPSE
  5
145
330
1F
100
AcDbEntity
  8
0
  6
Continuous
 62
     7
370
    15
100
AcDbEllipse
 10
135.5458628841
 20
160.8781866688
 30
0.0
 11
4.239626324178971
 21
2.375172233095356
 31
0.0
210
0.0
220
0.0
230
1.0
 40
0.4698819081
 41
3.839506294155014
 42
4.454986002831164
  0
LWPOLYLINE
  5
146
330
1F
100
AcDbEntity
  8
0
  6
Continuous
 62
     7
370
    15
100
AcDbPolyline
 90
       60
 70
   128
 43
0.0
 10
128.2305416358
 20
160.8781866688
 10
128.2153323943
 20
160.5486768633
 10
128.1698769966
 20
160.2229005356
 10
128.0946904705
 20
159.9045488616
 10
127.9906247094
 20
159.597228893
 10
127.8588588199
 20
159.3044226878
 10
127.7008857622
 20
159.0294478574
 10
127.5184954342
 20
158.7754199764
 10
127.3137543913
 20
158.5452172823
 10
127.0889824311
 20
158.3414480635
 10
126.8467263098
 20
158.1664211068
 10
126.5897308862
 20
158.0221195374
 10
126.3209080209
 20
157.9101783499
 10
126.0433035846
 20
157.8318658826
 10
125.7600629464
 20
157.788069447
 10
125.4743953358
 20
157.7792852744
 10
125.1895374812
 20
157.8056128927
 10
124.9087169357
 20
157.8667539997
 10
124.6351155085
 20
157.9620158422
 10
124.3718332129
 20
158.0903190653
 10
124.1218531426
 20
158.2502099424
 10
123.8880076717
 20
158.4398768458
 10
123.6729463628
 20
158.6571707739
 10
123.4791059464
 20
158.8996296995
 10
123.308682712
 20
159.1645064662
 10
123.1636076229
 20
159.4487999143
 10
123.0455244378
 20
159.7492888856
 10
122.9557710863
 20
160.0625687197
 10
122.8953645099
 20
160.3850898312
 10
122.8649891392
 20
160.7131979268
 10
122.8649891392
 20
161.0431754108
 10
122.8953645099
 20
161.3712835065
 10
122.9557710863
 20
161.6938046179
 10
123.0455244378
 20
162.0070844521
 10
123.1636076229
 20
162.3075734233
 10
123.308682712
 20
162.5918668715
 10
123.4791059464
 20
162.8567436381
 10
123.6729463628
 20
163.0992025638
 10
123.8880076717
 20
163.3164964918
 10
124.1218531426
 20
163.5061633953
 10
124.3718332129
 20
163.6660542724
 10
124.6351155085
 20
163.7943574955
 10
124.9087169357
 20
163.889619338
 10
125.1895374812
 20
163.9507604449
 10
125.4743953358
 20
163.9770880633
 10
125.7600629464
 20
163.9683038906
 10
126.0433035846
 20
163.9245074551
 10
126.3209080209
 20
163.8461949878
 10
126.5897308862
 20
163.7342538002
 10
126.8467263098
 20
163.5899522309
 10
127.0889824311
 20
163.4149252742
 10
127.3137543913
 20
163.2111560554
 10
127.5184954342
 20
162.9809533613
 10
127.7008857622
 20
162.7269254803
 10
127.8588588199
 20
162.4519506499
 10
127.9906247094
 20
162.1591444447
 10
128.0946904705
 20
161.8518244761
 10
128.1698769966
 20
161.5334728021
 10
128.2153323943
 20
161.2076964743
 10
128.2305416358
 20
160.8781866688
  0
LWPOLYLINE
  5
147
330
1F
100
AcDbEntity
  8
0
  6
Continuous
 62
     7
370
    15
100
AcDbPolyline
 90
       60
 70
   128
 43
0.0
 10
142.8611841324
 20
160.8781866688
 10
142.8763933739
 20
160.5486768633
 10
142.9218487716
 20
160.2229005356
 10
142.9970352977
 20
159.9045488616
 10
143.1011010588
 20
159.597228893
 10
143.2328669483
 20
159.3044226878
 10
143.390840006
 20
159.0294478574
 10
143.573230334
 20
158.7754199764
 10
143.777971377
 20
158.5452172823
 10
144.0027433371
 20
158.3414480635
 10
144.2449994584
 20
158.1664211068
 10
144.5019948821
 20
158.0221195374
 10
144.7708177473
 20
157.9101783499
 10
145.0484221836
 20
157.8318658826
 10
145.3316628218
 20
157.788069447
 10
145.6173304324
 20
157.7792852744
 10
145.902188287
 20
157.8056128927
 10
146.1830088325
 20
157.8667539997
 10
146.4566102597
 20
157.9620158422
 10
146.7198925553
 20
158.0903190653
 10
146.9698726256
 20
158.2502099424
 10
147.2037180965
 20
158.4398768458
 10
147.4187794054
 20
158.6571707739
 10
147.6126198218
 20
158.8996296995
 10
147.7830430562
 20
159.1645064662
 10
147.9281181453
 20
159.4487999143
 10
148.0462013304
 20
159.7492888856
 10
148.1359546819
 20
160.0625687197
 10
148.1963612583
 20
160.3850898312
 10
148.226736629
 20
160.7131979268
 10
148.226736629
 20
161.0431754108
 10
148.1963612583
 20
161.3712835065
 10
148.1359546819
 20
161.6938046179
 10
148.0462013304
 20
162.0070844521
 10
147.9281181453
 20
162.3075734233
 10
147.7830430562
 20
162.5918668715
 10
147.6126198218
 20
162.8567436381
 10
147.4187794054
 20
163.0992025638
 10
147.2037180965
 20
163.3164964918
 10
146.9698726256
 20
163.5061633953
 10
146.7198925553
 20
163.6660542724
 10
146.4566102597
 20
163.7943574955
 10
146.1830088325
 20
163.889619338
 10
145.902188287
 20
163.9507604449
 10
145.6173304324
 20
163.9770880633
 10
145.3316628218
 20
163.9683038906
 10
145.0484221836
 20
163.9245074551
 10
144.7708177473
 20
163.8461949878
 10
144.5019948821
 20
163.7342538002
 10
144.2449994584
 20
163.5899522309
 10
144.0027433371
 20
163.4149252742
 10
143.777971377
 20
163.2111560554
 10
143.573230334
 20
162.9809533613
 10
143.390840006
 20
162.7269254803
 10
143.2328669483
 20
162.4519506499
 10
143.1011010588
 20
162.1591444447
 10
142.9970352977
 20
161.8518244761
 10
142.9218487716
 20
161.5334728021
 10
142.8763933739
 20
161.2076964743
 10
142.8611841324
 20
160.8781866688
  0
LWPOLYLINE
  5
148
330
1F
100
AcDbEntity
  8
0
  6
Continuous
 62
     7
370
    15
100
AcDbPolyline
 90
       43
 70
   128
 43
0.0
 10
144.160222238
 20
160.8781866688
 10
144.1756986992
 20
160.639719043
 10
144.2217823641
 20
160.4065783898
 10
144.2974437999
 20
160.1839726862
 10
144.4009928551
 20
159.9768745759
 10
144.5301164148
 20
159.7899102884
 10
144.6819300722
 20
159.6272562969
 10
144.8530425611
 20
159.4925460228
 10
145.0396315111
 20
159.388788671
 10
145.2375288334
 20
159.3183020093
 10
145.4423138289
 20
159.2826605933
 10
145.6494119393
 20
159.2826605933
 10
145.8541969348
 20
159.3183020093
 10
146.0520942571
 20
159.388788671
 10
146.2386832071
 20
159.4925460228
 10
146.409795696
 20
159.6272562969
 10
146.5616093534
 20
159.7899102884
 10
146.6907329131
 20
159.9768745759
 10
146.7942819683
 20
160.1839726862
 10
146.8699434041
 20
160.4065783898
 10
146.916027069
 20
160.639719043
 10
146.9315035302
 20
160.8781866688
 10
146.916027069
 20
161.1166542947
 10
146.8699434041
 20
161.3497949479
 10
146.7942819683
 20
161.5724006514
 10
146.6907329131
 20
161.7794987617
 10
146.5616093534
 20
161.9664630493
 10
146.409795696
 20
162.1291170408
 10
146.2386832071
 20
162.2638273149
 10
146.0520942571
 20
162.3675846667
 10
145.8541969348
 20
162.4380713283
 10
145.6494119393
 20
162.4737127443
 10
145.4423138289
 20
162.4737127443
 10
145.2375288334
 20
162.4380713283
 10
145.0396315111
 20
162.3675846667
 10
144.8530425611
 20
162.2638273149
 10
144.6819300722
 20
162.1291170408
 10
144.5301164148
 20
161.9664630493
 10
144.4009928551
 20
161.7794987617
 10
144.2974437999
 20
161.5724006514
 10
144.2217823641
 20
161.3497949479
 10
144.1756986992
 20
161.1166542947
 10
144.160222238
 20
160.8781866688
  0
LWPOLYLINE
  5
149
330
1F
100
AcDbEntity
  8
0
  6
Continuous
 62
     7
370
    15
100
AcDbPolyline
 90
       43
 70
   128
 43
0.0
 10
126.9315035302
 20
160.8781866688
 10
126.916027069
 20
160.639719043
 10
126.8699434041
 20
160.4065783898
 10
126.7942819683
 20
160.1839726862
 10
126.6907329131
 20
159.9768745759
 10
126.5616093534
 20
159.7899102884
 10
126.409795696
 20
159.6272562969
 10
126.2386832071
 20
159.4925460228
 10
126.0520942571
 20
159.388788671
 10
125.8541969348
 20
159.3183020093
 10
125.6494119393
 20
159.2826605933
 10
125.4423138289
 20
159.2826605933
 10
125.2375288334
 20
159.3183020093
 10
125.0396315111
 20
159.388788671
 10
124.8530425611
 20
159.4925460228
 10
124.6819300722
 20
159.6272562969
 10
124.5301164148
 20
159.7899102884
 10
124.4009928551
 20
159.9768745759
 10
124.2974437999
 20
160.1839726862
 10
124.2217823641
 20
160.4065783898
 10
124.1756986992
 20
160.639719043
 10
124.160222238
 20
160.8781866688
 10
124.1756986992
 20
161.1166542947
 10
124.2217823641
 20
161.3497949479
 10
124.2974437999
 20
161.5724006514
 10
124.4009928551
 20
161.7794987617
 10
124.5301164148
 20
161.9664630493
 10
124.6819300722
 20
162.1291170408
 10
124.8530425611
 20
162.2638273149
 10
125.0396315111
 20
162.3675846667
 10
125.2375288334
 20
162.4380713283
 10
125.4423138289
 20
162.4737127443
 10
125.6494119393
 20
162.4737127443
 10
125.8541969348
 20
162.4380713283
 10
126.0520942571
 20
162.3675846667
 10
126.2386832071
 20
162.2638273149
 10
126.409795696
 20
162.1291170408
 10
126.5616093534
 20
161.9664630493
 10
126.6907329131
 20
161.7794987617
 10
126.7942819683
 20
161.5724006514
 10
126.8699434041
 20
161.3497949479
 10
126.916027069
 20
161.1166542947
 10
126.9315035302
 20
160.8781866688
  0
ELLIPSE
  5
14A
330
1F
100
AcDbEntity
  8
0
  6
Continuous
 62
     7
370
    15
100
AcDbEllipse
 10
135.5458628841
 20
160.8781866688
 30
0.0
 11
4.239626324179
 21
-2.375172233095356
 31
0.0
210
0.0
220
0.0
230
1.0
 40
0.4698819081
 41
4.969791957938548
 42
5.58527166661472
  0
LWPOLYLINE
  5
14B
330
1F
100
AcDbEntity
  8
0
  6
Continuous
 62
     7
370
    15
100
AcDbPolyline
 90
       60
 70
   128
 43
0.0
 10
128.1895517669
 20
142.9293328499
 10
128.124899269
 20
142.8573846611
 10
128.0310252582
 20
142.8045947095
 10
127.9089933648
 20
142.7715611262
 10
127.7601862587
 20
142.758658195
 10
127.586289984
 20
142.7660321113
 10
127.389274855
 20
142.7935993257
 10
127.1713731317
 20
142.8410474905
 10
126.9350537278
 20
142.9078389991
 10
126.6829942366
 20
142.9932170771
 10
126.4180505928
 20
143.0962143566
 10
126.1432247137
 20
143.2156638375
 10
125.8616304864
 20
143.3502121092
 10
125.5764584859
 20
143.4983346862
 10
125.2909398251
 20
143.6583532805
 10
125.0083095444
 20
143.8284548173
 10
124.7317699579
 20
144.0067119785
 10
124.4644543695
 20
144.191105039
 10
124.2093915716
 20
144.3795447519
 10
123.9694715278
 20
144.5698960198
 10
123.7474126279
 20
144.7600020869
 10
123.5457308881
 20
144.9477089755
 10
123.366711443
 20
145.1308898915
 10
123.2123826544
 20
145.307469322
 10
123.0844931293
 20
145.4754465514
 10
122.984491907
 20
145.6329183306
 10
122.9135120414
 20
145.7781004414
 10
122.8723577626
 20
145.9093479125
 10
122.8614953651
 20
146.0251736576
 10
122.8810479243
 20
146.1242653247
 10
122.9307939017
 20
146.2055001657
 10
123.0101696556
 20
146.2679577574
 10
123.1182758271
 20
146.3109304302
 10
123.2538875299
 20
146.3339312866
 10
123.4154682293
 20
146.3366997177
 10
123.6011871514
 20
146.3192043562
 10
123.8089400266
 20
146.2816434313
 10
124.0363729318
 20
146.2244425235
 10
124.2809089613
 20
146.1482497419
 10
124.5397774243
 20
146.053928381
 10
124.8100452375
 20
145.9425471397
 10
125.0886501586
 20
145.8153680119
 10
125.3724354826
 20
145.6738319879
 10
125.6581858084
 20
145.5195427275
 10
125.9426634706
 20
145.3542483895
 10
126.2226452236
 20
145.179821825
 10
126.4949587622
 20
144.9982393565
 10
126.7565186653
 20
144.8115583861
 10
127.0043613547
 20
144.6218940836
 10
127.2356786736
 20
144.4313954215
 10
127.4478497043
 20
144.2422208257
 10
127.6384704644
 20
144.0565137199
 10
127.8053811445
 20
143.8763782399
 10
127.9466905798
 20
143.7038553926
 10
128.060797678
 20
143.5408999308
 10
128.1464095601
 20
143.3893582051
 10
128.2025562092
 20
143.2509472437
 10
128.2286014613
 20
143.1272352981
 10
128.2242502135
 20
143.0196240741
 10
128.1895517669
 20
142.9293328499
  0
LINE
  5
14C
330
1F
100
AcDbEntity
  8
0
  6
Continuous
 62
     7
370
    15
100
AcDbLine
 10
135.5458628842
 20
154.9421386007
 30
0.0
 11
135.5458628842
 21
158.3470472679
 31
0.0
  0
LWPOLYLINE
  5
14D
330
1F
100
AcDbEntity
  8
0
  6
Continuous
 62
     7
370
    15
100
AcDbPolyline
 90
       60
 70
   128
 43
0.0
 10
142.9021740013
 20
142.9293328499
 10
142.9668264993
 20
142.8573846611
 10
143.06070051
 20
142.8045947095
 10
143.1827324034
 20
142.7715611262
 10
143.3315395095
 20
142.758658195
 10
143.5054357842
 20
142.7660321113
 10
143.7024509132
 20
142.7935993257
 10
143.9203526365
 20
142.8410474905
 10
144.1566720404
 20
142.9078389991
 10
144.4087315316
 20
142.9932170771
 10
144.6736751754
 20
143.0962143566
 10
144.9485010545
 20
143.2156638375
 10
145.2300952818
 20
143.3502121092
 10
145.5152672823
 20
143.4983346862
 10
145.8007859431
 20
143.6583532805
 10
146.0834162238
 20
143.8284548173
 10
146.3599558103
 20
144.0067119785
 10
146.6272713987
 20
144.191105039
 10
146.8823341966
 20
144.3795447519
 10
147.1222542404
 20
144.5698960198
 10
147.3443131403
 20
144.7600020869
 10
147.5459948801
 20
144.9477089755
 10
147.7250143252
 20
145.1308898915
 10
147.8793431138
 20
145.307469322
 10
148.0072326389
 20
145.4754465514
 10
148.1072338612
 20
145.6329183306
 10
148.1782137269
 20
145.7781004414
 10
148.2193680056
 20
145.9093479125
 10
148.2302304031
 20
146.0251736576
 10
148.210677844
 20
146.1242653247
 10
148.1609318665
 20
146.2055001657
 10
148.0815561126
 20
146.2679577574
 10
147.9734499411
 20
146.3109304302
 10
147.8378382383
 20
146.3339312866
 10
147.6762575389
 20
146.3366997177
 10
147.4905386168
 20
146.3192043562
 10
147.2827857416
 20
146.2816434313
 10
147.0553528364
 20
146.2244425235
 10
146.8108168069
 20
146.1482497419
 10
146.551948344
 20
146.053928381
 10
146.2816805307
 20
145.9425471397
 10
146.0030756096
 20
145.8153680119
 10
145.7192902856
 20
145.6738319879
 10
145.4335399598
 20
145.5195427275
 10
145.1490622976
 20
145.3542483895
 10
144.8690805446
 20
145.179821825
 10
144.596767006
 20
144.9982393565
 10
144.3352071029
 20
144.8115583861
 10
144.0873644135
 20
144.6218940836
 10
143.8560470947
 20
144.4313954215
 10
143.6438760639
 20
144.2422208257
 10
143.4532553038
 20
144.0565137199
 10
143.2863446237
 20
143.8763782399
 10
143.1450351884
 20
143.7038553926
 10
143.0309280902
 20
143.5408999308
 10
142.9453162081
 20
143.3893582051
 10
142.889169559
 20
143.2509472437
 10
142.8631243069
 20
143.1272352981
 10
142.8674755547
 20
143.0196240741
 10
142.9021740013
 20
142.9293328499
  0
LWPOLYLINE
  5
14E
330
1F
100
AcDbEntity
  8
0
  6
Continuous
 62
     7
370
    15
100
AcDbPolyline
 90
       43
 70
   128
 43
0.0
 10
144.1813782994
 20
143.7126823017
 10
144.1606681176
 20
143.7807216302
 10
144.1709008979
 20
143.8659063869
 10
144.2118480569
 20
143.9663336853
 10
144.2825949027
 20
144.0797601454
 10
144.3815610678
 20
144.2036520074
 10
144.5065358115
 20
144.335241732
 10
144.6547274046
 20
144.4715898222
 10
144.8228254917
 20
144.6096504868
 10
145.0070750394
 20
144.7463396789
 10
145.2033602172
 20
144.8786039876
 10
145.4072963386
 20
145.0034888471
 10
145.6143278077
 20
145.1182045357
 10
145.8198298835
 20
145.2201884946
 10
146.0192119893
 20
145.3071625708
 10
146.2080202582
 20
145.3771839069
 10
146.3820370256
 20
145.4286883422
 10
146.5373750444
 20
145.4605253526
 10
146.6705643199
 20
145.471983752
 10
146.7786296239
 20
145.4628075786
 10
146.859156956
 20
145.4332018129
 10
146.9103474687
 20
145.3838277989
 10
146.9310576506
 20
145.3157884704
 10
146.9208248703
 20
145.2306037136
 10
146.8798777112
 20
145.1301764153
 10
146.8091308654
 20
145.0167499552
 10
146.7101647003
 20
144.8928580932
 10
146.5851899566
 20
144.7612683686
 10
146.4369983635
 20
144.6249202784
 10
146.2689002764
 20
144.4868596138
 10
146.0846507288
 20
144.3501704217
 10
145.8883655509
 20
144.2179061129
 10
145.6844294295
 20
144.0930212535
 10
145.4773979604
 20
143.9783055649
 10
145.2718958846
 20
143.876321606
 10
145.0725137789
 20
143.7893475298
 10
144.8837055099
 20
143.7193261936
 10
144.7096887426
 20
143.6678217584
 10
144.5543507238
 20
143.6359847479
 10
144.4211614482
 20
143.6245263486
 10
144.3130961442
 20
143.633702522
 10
144.2325688121
 20
143.6633082877
 10
144.1813782994
 20
143.7126823017
  0
LWPOLYLINE
  5
14F
330
1F
100
AcDbEntity
  8
0
  6
Continuous
 62
     7
370
    15
100
AcDbPolyline
 90
       43
 70
   128
 43
0.0
 10
124.1813782995
 20
145.3838277989
 10
124.1606681176
 20
145.3157884704
 10
124.1709008979
 20
145.2306037136
 10
124.211848057
 20
145.1301764153
 10
124.2825949028
 20
145.0167499552
 10
124.3815610679
 20
144.8928580932
 10
124.5065358116
 20
144.7612683686
 10
124.6547274047
 20
144.6249202784
 10
124.8228254918
 20
144.4868596138
 10
125.0070750395
 20
144.3501704217
 10
125.2033602173
 20
144.2179061129
 10
125.4072963387
 20
144.0930212535
 10
125.6143278078
 20
143.9783055649
 10
125.8198298836
 20
143.876321606
 10
126.0192119893
 20
143.7893475298
 10
126.2080202583
 20
143.7193261936
 10
126.3820370257
 20
143.6678217584
 10
126.5373750444
 20
143.6359847479
 10
126.67056432
 20
143.6245263486
 10
126.778629624
 20
143.633702522
 10
126.8591569561
 20
143.6633082877
 10
126.9103474688
 20
143.7126823017
 10
126.9310576506
 20
143.7807216302
 10
126.9208248703
 20
143.8659063869
 10
126.8798777113
 20
143.9663336853
 10
126.8091308655
 20
144.0797601454
 10
126.7101647004
 20
144.2036520074
 10
126.5851899567
 20
144.335241732
 10
126.4369983636
 20
144.4715898222
 10
126.2689002765
 20
144.6096504868
 10
126.0846507288
 20
144.7463396789
 10
125.888365551
 20
144.8786039876
 10
125.6844294296
 20
145.0034888471
 10
125.4773979605
 20
145.1182045357
 10
125.2718958847
 20
145.2201884946
 10
125.0725137789
 20
145.3071625708
 10
124.88370551
 20
145.3771839069
 10
124.7096887426
 20
145.4286883422
 10
124.5543507238
 20
145.4605253526
 10
124.4211614483
 20
145.471983752
 10
124.3130961443
 20
145.4628075786
 10
124.2325688122
 20
145.4332018129
 10
124.1813782995
 20
145.3838277989
  0
LINE
  5
150
330
1F
100
AcDbEntity
  8
0
  6
Continuous
 62
     7
370
    15
100
AcDbLine
 10
115.5458628841
 20
160.8781866688
 30
0.0
 11
115.5458628841
 21
157.7781866688
 31
0.0
  0
LINE
  5
151
330
1F
100
AcDbEntity
  8
0
  6
Continuous
 62
     7
370
    15
100
AcDbLine
 10
115.5458628841
 20
163.9781866688
 30
0.0
 11
115.5458628841
 21
160.8781866688
 31
0.0
  0
LINE
  5
152
330
1F
100
AcDbEntity
  8
0
  6
Continuous
 62
     7
370
    15
100
AcDbLine
 10
155.5458628841
 20
160.8781866688
 30
0.0
 11
155.5458628841
 21
157.7781866688
 31
0.0
  0
LINE
  5
153
330
1F
100
AcDbEntity
  8
0
  6
Continuous
 62
     7
370
    15
100
AcDbLine
 10
155.5458628841
 20
163.9781866688
 30
0.0
 11
155.5458628841
 21
160.8781866688
 31
0.0
  0
ENDSEC
  0
SECTION
  2
OBJECTS
  0
DICTIONARY
  5
C
330
0
100
AcDbDictionary
281
     1
  3
ACAD_GROUP
350
D
  3
ACAD_LAYOUT
350
1A
  3
ACAD_MLINESTYLE
350
17
  3
ACAD_PLOTSETTINGS
350
19
  3
ACAD_PLOTSTYLENAME
350
E
  3
ACAD_SCALELIST
350
47
  0
DICTIONARY
  5
D
102
{ACAD_REACTORS
330
C
102
}
330
C
100
AcDbDictionary
281
     1
  0
DICTIONARY
  5
1A
102
{ACAD_REACTORS
330
C
102
}
330
C
100
AcDbDictionary
281
     1
  3
Layout1
350
1E
  3
Layout2
350
26
  3
Model
350
22
  0
DICTIONARY
  5
17
102
{ACAD_REACTORS
330
C
102
}
330
C
100
AcDbDictionary
281
     1
  3
Standard
350
18
  0
DICTIONARY
  5
19
102
{ACAD_REACTORS
330
C
102
}
330
C
100
AcDbDictionary
281
     1
  0
ACDBDICTIONARYWDFLT
  5
E
102
{ACAD_REACTORS
330
C
102
}
330
C
100
AcDbDictionary
281
     1
  3
Normal
350
F
100
AcDbDictionaryWithDefault
340
F
  0
DICTIONARY
  5
47
102
{ACAD_REACTORS
330
C
102
}
330
C
100
AcDbDictionary
281
     1
  3
A0
350
48
  3
A1
350
49
  3
A2
350
4A
  3
A3
350
4B
  3
A4
350
4C
  3
A5
350
4D
  3
A6
350
4E
  3
A7
350
4F
  3
A8
350
50
  3
A9
350
51
  3
B0
350
52
  3
B1
350
53
  3
B2
350
54
  3
B3
350
55
  3
B4
350
56
  3
B5
350
57
  3
B6
350
58
  3
B7
350
59
  3
B8
350
5A
  3
B9
350
5B
  3
C0
350
5C
  3
C1
350
5D
  3
C2
350
5E
  3
C3
350
5F
  3
C4
350
60
  3
C5
350
61
  3
C6
350
62
  3
C7
350
63
  3
C8
350
64
  3
C9
350
65
  3
D0
350
66
  3
D1
350
67
  3
D2
350
68
  0
LAYOUT
  5
1E
102
{ACAD_REACTORS
330
1A
102
}
330
1A
100
AcDbPlotSettings
  1

  2
none_device
  4

  6

 40
0.0
 41
0.0
 42
0.0
 43
0.0
 44
0.0
 45
0.0
 46
0.0
 47
0.0
 48
0.0
 49
0.0
140
0.0
141
0.0
142
1.0
143
1.0
 70
   688
 72
     1
 73
     0
 74
     5
  7

 75
    16
147
1.0
148
0.0
149
0.0
100
AcDbLayout
  1
Layout1
 70
     1
 71
     1
 10
0.0
 20
0.0
 11
420.0
 21
297.0
 12
0.0
 22
0.0
 32
0.0
 14
1.0000000000E+20
 24
1.0000000000E+20
 34
1.0000000000E+20
 15
-1.0000000000E+20
 25
-1.0000000000E+20
 35
-1.0000000000E+20
146
0.0
 13
0.0
 23
0.0
 33
0.0
 16
1.0
 26
0.0
 36
0.0
 17
0.0
 27
1.0
 37
0.0
 76
     0
330
1B
  0
LAYOUT
  5
26
102
{ACAD_REACTORS
330
1A
102
}
330
1A
100
AcDbPlotSettings
  1

  2
none_device
  4

  6

 40
0.0
 41
0.0
 42
0.0
 43
0.0
 44
0.0
 45
0.0
 46
0.0
 47
0.0
 48
0.0
 49
0.0
140
0.0
141
0.0
142
1.0
143
1.0
 70
   688
 72
     1
 73
     0
 74
     5
  7

 75
    16
147
1.0
148
0.0
149
0.0
100
AcDbLayout
  1
Layout2
 70
     1
 71
     2
 10
0.0
 20
0.0
 11
0.0
 21
0.0
 12
0.0
 22
0.0
 32
0.0
 14
0.0
 24
0.0
 34
0.0
 15
0.0
 25
0.0
 35
0.0
146
0.0
 13
0.0
 23
0.0
 33
0.0
 16
1.0
 26
0.0
 36
0.0
 17
0.0
 27
1.0
 37
0.0
 76
     0
330
23
  0
LAYOUT
  5
22
102
{ACAD_REACTORS
330
1A
102
}
330
1A
100
AcDbPlotSettings
  1

  2
none_device
  4
Letter_(8.50_x_11.00_Inches)
  6

 40
6.35
 41
6.35
 42
6.35000508
 43
6.35000508
 44
215.9
 45
279.4
 46
0.0
 47
0.0
 48
0.0
 49
0.0
140
0.0
141
0.0
142
1.0
143
1.0
 70
  1712
 72
     1
 73
     0
 74
     0
  7

 75
     0
147
1.0
148
0.0
149
0.0
100
AcDbLayout
  1
Model
 70
     1
 71
     0
 10
0.0
 20
0.0
 11
279.4
 21
215.9
 12
0.0
 22
0.0
 32
0.0
 14
0.0
 24
0.0
 34
0.0
 15
279.4
 25
215.9
 35
0.0
146
0.0
 13
0.0
 23
0.0
 33
0.0
 16
1.0
 26
0.0
 36
0.0
 17
0.0
 27
1.0
 37
0.0
 76
     0
330
1F
331
29
  0
MLINESTYLE
  5
18
102
{ACAD_REACTORS
330
17
102
}
330
17
100
AcDbMlineStyle
  2
Standard
 70
     0
  3

 62
   256
 51
90.0
 52
90.0
 71
     2
 49
0.5
 62
   256
  6
BYLAYER
 49
-0.5
 62
   256
  6
BYLAYER
  0
ACDBPLACEHOLDER
  5
F
102
{ACAD_REACTORS
330
E
102
}
330
E
  0
SCALE
  5
48
102
{ACAD_REACTORS
330
47
102
}
330
47
100
AcDbScale
 70
     0
300
1:1
140
1.0
141
1.0
290
     1
  0
SCALE
  5
49
102
{ACAD_REACTORS
330
47
102
}
330
47
100
AcDbScale
 70
     0
300
1:2
140
1.0
141
2.0
290
     0
  0
SCALE
  5
4A
102
{ACAD_REACTORS
330
47
102
}
330
47
100
AcDbScale
 70
     0
300
1:4
140
1.0
141
4.0
290
     0
  0
SCALE
  5
4B
102
{ACAD_REACTORS
330
47
102
}
330
47
100
AcDbScale
 70
     0
300
1:5
140
1.0
141
5.0
290
     0
  0
SCALE
  5
4C
102
{ACAD_REACTORS
330
47
102
}
330
47
100
AcDbScale
 70
     0
300
1:8
140
1.0
141
8.0
290
     0
  0
SCALE
  5
4D
102
{ACAD_REACTORS
330
47
102
}
330
47
100
AcDbScale
 70
     0
300
1:10
140
1.0
141
10.0
290
     0
  0
SCALE
  5
4E
102
{ACAD_REACTORS
330
47
102
}
330
47
100
AcDbScale
 70
     0
300
1:16
140
1.0
141
16.0
290
     0
  0
SCALE
  5
4F
102
{ACAD_REACTORS
330
47
102
}
330
47
100
AcDbScale
 70
     0
300
1:20
140
1.0
141
20.0
290
     0
  0
SCALE
  5
50
102
{ACAD_REACTORS
330
47
102
}
330
47
100
AcDbScale
 70
     0
300
1:30
140
1.0
141
30.0
290
     0
  0
SCALE
  5
51
102
{ACAD_REACTORS
330
47
102
}
330
47
100
AcDbScale
 70
     0
300
1:40
140
1.0
141
40.0
290
     0
  0
SCALE
  5
52
102
{ACAD_REACTORS
330
47
102
}
330
47
100
AcDbScale
 70
     0
300
1:50
140
1.0
141
50.0
290
     0
  0
SCALE
  5
53
102
{ACAD_REACTORS
330
47
102
}
330
47
100
AcDbScale
 70
     0
300
1:100
140
1.0
141
100.0
290
     0
  0
SCALE
  5
54
102
{ACAD_REACTORS
330
47
102
}
330
47
100
AcDbScale
 70
     0
300
2:1
140
2.0
141
1.0
290
     0
  0
SCALE
  5
55
102
{ACAD_REACTORS
330
47
102
}
330
47
100
AcDbScale
 70
     0
300
4:1
140
4.0
141
1.0
290
     0
  0
SCALE
  5
56
102
{ACAD_REACTORS
330
47
102
}
330
47
100
AcDbScale
 70
     0
300
8:1
140
8.0
141
1.0
290
     0
  0
SCALE
  5
57
102
{ACAD_REACTORS
330
47
102
}
330
47
100
AcDbScale
 70
     0
300
10:1
140
10.0
141
1.0
290
     0
  0
SCALE
  5
58
102
{ACAD_REACTORS
330
47
102
}
330
47
100
AcDbScale
 70
     0
300
100:1
140
100.0
141
1.0
290
     0
  0
SCALE
  5
59
102
{ACAD_REACTORS
330
47
102
}
330
47
100
AcDbScale
 70
     0
300
1/128" = 1'-0"
140
0.0078125
141
12.0
290
     0
  0
SCALE
  5
5A
102
{ACAD_REACTORS
330
47
102
}
330
47
100
AcDbScale
 70
     0
300
1/64" = 1'-0"
140
0.015625
141
12.0
290
     0
  0
SCALE
  5
5B
102
{ACAD_REACTORS
330
47
102
}
330
47
100
AcDbScale
 70
     0
300
1/32" = 1'-0"
140
0.03125
141
12.0
290
     0
  0
SCALE
  5
5C
102
{ACAD_REACTORS
330
47
102
}
330
47
100
AcDbScale
 70
     0
300
1/16" = 1'-0"
140
0.0625
141
12.0
290
     0
  0
SCALE
  5
5D
102
{ACAD_REACTORS
330
47
102
}
330
47
100
AcDbScale
 70
     0
300
3/32" = 1'-0"
140
0.09375
141
12.0
290
     0
  0
SCALE
  5
5E
102
{ACAD_REACTORS
330
47
102
}
330
47
100
AcDbScale
 70
     0
300
1/8" = 1'-0"
140
0.125
141
12.0
290
     0
  0
SCALE
  5
5F
102
{ACAD_REACTORS
330
47
102
}
330
47
100
AcDbScale
 70
     0
300
3/16" = 1'-0"
140
0.1875
141
12.0
290
     0
  0
SCALE
  5
60
102
{ACAD_REACTORS
330
47
102
}
330
47
100
AcDbScale
 70
     0
300
1/4" = 1'-0"
140
0.25
141
12.0
290
     0
  0
SCALE
  5
61
102
{ACAD_REACTORS
330
47
102
}
330
47
100
AcDbScale
 70
     0
300
3/8" = 1'-0"
140
0.375
141
12.0
290
     0
  0
SCALE
  5
62
102
{ACAD_REACTORS
330
47
102
}
330
47
100
AcDbScale
 70
     0
300
1/2" = 1'-0"
140
0.5
141
12.0
290
     0
  0
SCALE
  5
63
102
{ACAD_REACTORS
330
47
102
}
330
47
100
AcDbScale
 70
     0
300
3/4" = 1'-0"
140
0.75
141
12.0
290
     0
  0
SCALE
  5
64
102
{ACAD_REACTORS
330
47
102
}
330
47
100
AcDbScale
 70
     0
300
1" = 1'-0"
140
1.0
141
12.0
290
     0
  0
SCALE
  5
65
102
{ACAD_REACTORS
330
47
102
}
330
47
100
AcDbScale
 70
     0
300
1-1/2" = 1'-0"
140
1.5
141
12.0
290
     0
  0
SCALE
  5
66
102
{ACAD_REACTORS
330
47
102
}
330
47
100
AcDbScale
 70
     0
300
3" = 1'-0"
140
3.0
141
12.0
290
     0
  0
SCALE
  5
67
102
{ACAD_REACTORS
330
47
102
}
330
47
100
AcDbScale
 70
     0
300
6" = 1'-0"
140
6.0
141
12.0
290
     0
  0
SCALE
  5
68
102
{ACAD_REACTORS
330
47
102
}
330
47
100
AcDbScale
 70
     0
300
1'-0" = 1'-0"
140
12.0
141
12.0
290
     0
  0
ENDSEC
  0
EOF
